<ttFont>
    <TTGlyph name="ampersand" xMin="108" yMin="-16" xMax="1396" yMax="1465">
      <contour>
        <pt x="674" y="1465" on="1"/>
        <pt x="743" y="1465" on="0"/>
        <pt x="866" y="1418" on="0"/>
        <pt x="957" y="1338" on="0"/>
        <pt x="1011" y="1233" on="0"/>
        <pt x="1013" y="1176" on="1"/>
        <pt x="999" y="1172" on="0"/>
        <pt x="988" y="1169" on="1"/>
        <pt x="964" y="1164" on="0"/>
        <pt x="951" y="1164" on="1"/>
        <pt x="943" y="1164" on="0"/>
        <pt x="928" y="1177" on="0"/>
        <pt x="925" y="1188" on="1"/>
        <pt x="918" y="1214" on="0"/>
        <pt x="883" y="1284" on="0"/>
        <pt x="824" y="1346" on="0"/>
        <pt x="735" y="1389" on="0"/>
        <pt x="674" y="1389" on="1"/>
        <pt x="613" y="1389" on="0"/>
        <pt x="512" y="1351" on="0"/>
        <pt x="441" y="1282" on="0"/>
        <pt x="401" y="1188" on="0"/>
        <pt x="401" y="1132" on="1"/>
        <pt x="401" y="1048" on="0"/>
        <pt x="487" y="894" on="0"/>
        <pt x="577" y="806" on="1"/>
        <pt x="1034" y="355" on="1"/>
        <pt x="1080" y="429" on="0"/>
        <pt x="1134" y="589" on="0"/>
        <pt x="1142" y="664" on="1"/>
        <pt x="1144" y="677" on="0"/>
        <pt x="1157" y="692" on="0"/>
        <pt x="1169" y="692" on="1"/>
        <pt x="1225" y="692" on="1"/>
        <pt x="1223" y="596" on="0"/>
        <pt x="1155" y="392" on="0"/>
        <pt x="1091" y="299" on="1"/>
        <pt x="1396" y="0" on="1"/>
        <pt x="1305" y="0" on="1"/>
        <pt x="1287" y="0" on="0"/>
        <pt x="1263" y="8" on="0"/>
        <pt x="1248" y="23" on="1"/>
        <pt x="1038" y="228" on="1"/>
        <pt x="992" y="175" on="0"/>
        <pt x="881" y="85" on="0"/>
        <pt x="752" y="20" on="0"/>
        <pt x="606" y="-16" on="0"/>
        <pt x="525" y="-16" on="1"/>
        <pt x="448" y="-16" on="0"/>
        <pt x="298" y="35" on="0"/>
        <pt x="181" y="134" on="0"/>
        <pt x="108" y="279" on="0"/>
        <pt x="108" y="371" on="1"/>
        <pt x="108" y="444" on="0"/>
        <pt x="161" y="579" on="0"/>
        <pt x="253" y="690" on="0"/>
        <pt x="380" y="778" on="0"/>
        <pt x="454" y="806" on="1"/>
        <pt x="381" y="888" on="0"/>
        <pt x="309" y="1042" on="0"/>
        <pt x="309" y="1130" on="1"/>
        <pt x="309" y="1202" on="0"/>
        <pt x="361" y="1324" on="0"/>
        <pt x="457" y="1414" on="0"/>
        <pt x="591" y="1465" on="0"/>
      </contour>
      <contour>
        <pt x="207" y="377" on="1"/>
        <pt x="207" y="298" on="0"/>
        <pt x="268" y="181" on="0"/>
        <pt x="364" y="102" on="0"/>
        <pt x="482" y="63" on="0"/>
        <pt x="539" y="63" on="1"/>
        <pt x="611" y="63" on="0"/>
        <pt x="739" y="96" on="0"/>
        <pt x="850" y="155" on="0"/>
        <pt x="944" y="234" on="0"/>
        <pt x="982" y="283" on="1"/>
        <pt x="512" y="744" on="1"/>
        <pt x="506" y="750" on="0"/>
        <pt x="501" y="756" on="1"/>
        <pt x="434" y="727" on="0"/>
        <pt x="324" y="647" on="0"/>
        <pt x="248" y="550" on="0"/>
        <pt x="207" y="437" on="0"/>
      </contour>
    </TTGlyph>
    <TTGlyph name="asciitilde" xMin="143" yMin="444" xMax="1044" yMax="765">
      <contour>
        <pt x="797" y="581" on="1"/>
        <pt x="835" y="581" on="0"/>
        <pt x="898" y="608" on="0"/>
        <pt x="941" y="657" on="0"/>
        <pt x="964" y="725" on="0"/>
        <pt x="964" y="765" on="1"/>
        <pt x="1044" y="765" on="1"/>
        <pt x="1044" y="709" on="0"/>
        <pt x="1011" y="612" on="0"/>
        <pt x="950" y="541" on="0"/>
        <pt x="860" y="500" on="0"/>
        <pt x="802" y="500" on="1"/>
        <pt x="750" y="500" on="0"/>
        <pt x="641" y="540" on="0"/>
        <pt x="533" y="589" on="0"/>
        <pt x="433" y="629" on="0"/>
        <pt x="389" y="629" on="1"/>
        <pt x="350" y="629" on="0"/>
        <pt x="289" y="601" on="0"/>
        <pt x="246" y="552" on="0"/>
        <pt x="223" y="484" on="0"/>
        <pt x="222" y="444" on="1"/>
        <pt x="143" y="444" on="1"/>
        <pt x="143" y="501" on="0"/>
        <pt x="176" y="597" on="0"/>
        <pt x="237" y="669" on="0"/>
        <pt x="326" y="710" on="0"/>
        <pt x="384" y="710" on="1"/>
        <pt x="437" y="710" on="0"/>
        <pt x="546" y="670" on="0"/>
        <pt x="653" y="621" on="0"/>
        <pt x="753" y="581" on="0"/>
      </contour>
    </TTGlyph>
    <TTGlyph name="asterisk" xMin="125" yMin="919" xMax="689" yMax="1529">
      <contour>
        <pt x="380" y="919" on="1"/>
        <pt x="380" y="1137" on="1"/>
        <pt x="380" y="1154" on="0"/>
        <pt x="385" y="1181" on="0"/>
        <pt x="393" y="1198" on="1"/>
        <pt x="382" y="1183" on="0"/>
        <pt x="361" y="1166" on="0"/>
        <pt x="345" y="1157" on="1"/>
        <pt x="153" y="1046" on="1"/>
        <pt x="127" y="1091" on="1"/>
        <pt x="320" y="1203" on="1"/>
        <pt x="334" y="1211" on="0"/>
        <pt x="361" y="1220" on="0"/>
        <pt x="379" y="1223" on="1"/>
        <pt x="359" y="1226" on="0"/>
        <pt x="334" y="1236" on="0"/>
        <pt x="320" y="1244" on="1"/>
        <pt x="125" y="1357" on="1"/>
        <pt x="152" y="1403" on="1"/>
        <pt x="345" y="1290" on="1"/>
        <pt x="362" y="1280" on="0"/>
        <pt x="381" y="1261" on="0"/>
        <pt x="395" y="1243" on="1"/>
        <pt x="387" y="1263" on="0"/>
        <pt x="380" y="1292" on="0"/>
        <pt x="380" y="1310" on="1"/>
        <pt x="380" y="1529" on="1"/>
        <pt x="433" y="1529" on="1"/>
        <pt x="433" y="1311" on="1"/>
        <pt x="433" y="1292" on="0"/>
        <pt x="428" y="1263" on="0"/>
        <pt x="420" y="1244" on="1"/>
        <pt x="432" y="1262" on="0"/>
        <pt x="453" y="1281" on="0"/>
        <pt x="469" y="1290" on="1"/>
        <pt x="662" y="1402" on="1"/>
        <pt x="688" y="1356" on="1"/>
        <pt x="496" y="1244" on="1"/>
        <pt x="480" y="1235" on="0"/>
        <pt x="454" y="1225" on="0"/>
        <pt x="436" y="1223" on="1"/>
        <pt x="455" y="1220" on="0"/>
        <pt x="480" y="1211" on="0"/>
        <pt x="496" y="1203" on="1"/>
        <pt x="689" y="1091" on="1"/>
        <pt x="664" y="1044" on="1"/>
        <pt x="469" y="1157" on="1"/>
        <pt x="454" y="1166" on="0"/>
        <pt x="433" y="1183" on="0"/>
        <pt x="420" y="1200" on="1"/>
        <pt x="426" y="1182" on="0"/>
        <pt x="433" y="1155" on="0"/>
        <pt x="433" y="1138" on="1"/>
        <pt x="433" y="919" on="1"/>
      </contour>
    </TTGlyph>
    <TTGlyph name="at" xMin="110" yMin="-244" xMax="1575" yMax="1363">
      <contour>
        <pt x="1194" y="193" on="1"/>
        <pt x="1104" y="193" on="0"/>
        <pt x="1013" y="288" on="0"/>
        <pt x="1011" y="377" on="1"/>
        <pt x="954" y="282" on="0"/>
        <pt x="809" y="197" on="0"/>
        <pt x="725" y="197" on="1"/>
        <pt x="668" y="197" on="0"/>
        <pt x="584" y="237" on="0"/>
        <pt x="529" y="306" on="0"/>
        <pt x="501" y="400" on="0"/>
        <pt x="501" y="455" on="1"/>
        <pt x="501" y="542" on="0"/>
        <pt x="568" y="717" on="0"/>
        <pt x="696" y="857" on="0"/>
        <pt x="882" y="945" on="0"/>
        <pt x="1001" y="945" on="1"/>
        <pt x="1055" y="945" on="0"/>
        <pt x="1150" y="927" on="0"/>
        <pt x="1188" y="909" on="1"/>
        <pt x="1095" y="554" on="1"/>
        <pt x="1083" y="507" on="0"/>
        <pt x="1072" y="432" on="0"/>
        <pt x="1072" y="402" on="1"/>
        <pt x="1072" y="357" on="0"/>
        <pt x="1094" y="301" on="0"/>
        <pt x="1132" y="268" on="0"/>
        <pt x="1181" y="257" on="0"/>
        <pt x="1208" y="257" on="1"/>
        <pt x="1266" y="257" on="0"/>
        <pt x="1373" y="318" on="0"/>
        <pt x="1455" y="432" on="0"/>
        <pt x="1503" y="594" on="0"/>
        <pt x="1503" y="694" on="1"/>
        <pt x="1503" y="846" on="0"/>
        <pt x="1403" y="1072" on="0"/>
        <pt x="1232" y="1222" on="0"/>
        <pt x="1005" y="1295" on="0"/>
        <pt x="877" y="1295" on="1"/>
        <pt x="737" y="1295" on="0"/>
        <pt x="486" y="1187" on="0"/>
        <pt x="296" y="992" on="0"/>
        <pt x="185" y="723" on="0"/>
        <pt x="185" y="562" on="1"/>
        <pt x="185" y="381" on="0"/>
        <pt x="300" y="105" on="0"/>
        <pt x="499" y="-80" on="0"/>
        <pt x="764" y="-175" on="0"/>
        <pt x="914" y="-175" on="1"/>
        <pt x="1065" y="-175" on="0"/>
        <pt x="1316" y="-105" on="0"/>
        <pt x="1419" y="-39" on="1"/>
        <pt x="1426" y="-34" on="0"/>
        <pt x="1436" y="-34" on="1"/>
        <pt x="1450" y="-34" on="0"/>
        <pt x="1457" y="-48" on="1"/>
        <pt x="1472" y="-86" on="1"/>
        <pt x="1357" y="-162" on="0"/>
        <pt x="1082" y="-244" on="0"/>
        <pt x="914" y="-244" on="1"/>
        <pt x="745" y="-244" on="0"/>
        <pt x="452" y="-136" on="0"/>
        <pt x="235" y="70" on="0"/>
        <pt x="110" y="370" on="0"/>
        <pt x="110" y="562" on="1"/>
        <pt x="110" y="733" on="0"/>
        <pt x="231" y="1026" on="0"/>
        <pt x="440" y="1241" on="0"/>
        <pt x="718" y="1363" on="0"/>
        <pt x="877" y="1363" on="1"/>
        <pt x="1014" y="1363" on="0"/>
        <pt x="1266" y="1278" on="0"/>
        <pt x="1460" y="1109" on="0"/>
        <pt x="1575" y="859" on="0"/>
        <pt x="1575" y="694" on="1"/>
        <pt x="1575" y="583" on="0"/>
        <pt x="1516" y="398" on="0"/>
        <pt x="1413" y="266" on="0"/>
        <pt x="1273" y="193" on="0"/>
      </contour>
      <contour>
        <pt x="744" y="264" on="1"/>
        <pt x="781" y="264" on="0"/>
        <pt x="860" y="289" on="0"/>
        <pt x="932" y="353" on="0"/>
        <pt x="996" y="463" on="0"/>
        <pt x="1017" y="548" on="1"/>
        <pt x="1099" y="865" on="1"/>
        <pt x="1075" y="872" on="0"/>
        <pt x="1022" y="880" on="0"/>
        <pt x="988" y="880" on="1"/>
        <pt x="895" y="880" on="0"/>
        <pt x="745" y="805" on="0"/>
        <pt x="639" y="684" on="0"/>
        <pt x="581" y="534" on="0"/>
        <pt x="581" y="457" on="1"/>
        <pt x="581" y="416" on="0"/>
        <pt x="602" y="345" on="0"/>
        <pt x="642" y="294" on="0"/>
        <pt x="703" y="264" on="0"/>
      </contour>
    </TTGlyph>
    <TTGlyph name="bar" xMin="268" yMin="-360" xMax="345" yMax="1553">
      <contour>
        <pt x="268" y="1553" on="1"/>
        <pt x="345" y="1553" on="1"/>
        <pt x="345" y="-360" on="1"/>
        <pt x="268" y="-360" on="1"/>
      </contour>
    </TTGlyph>
    <TTGlyph name="braceleft" xMin="64" yMin="-270" xMax="506" yMax="1553">
      <contour>
        <pt x="224" y="456" on="1"/>
        <pt x="224" y="489" on="0"/>
        <pt x="201" y="546" on="0"/>
        <pt x="159" y="588" on="0"/>
        <pt x="100" y="610" on="0"/>
        <pt x="64" y="610" on="1"/>
        <pt x="64" y="673" on="1"/>
        <pt x="100" y="673" on="0"/>
        <pt x="159" y="695" on="0"/>
        <pt x="201" y="737" on="0"/>
        <pt x="224" y="794" on="0"/>
        <pt x="224" y="827" on="1"/>
        <pt x="224" y="884" on="0"/>
        <pt x="204" y="990" on="0"/>
        <pt x="182" y="1097" on="0"/>
        <pt x="162" y="1204" on="0"/>
        <pt x="162" y="1262" on="1"/>
        <pt x="162" y="1324" on="0"/>
        <pt x="201" y="1431" on="0"/>
        <pt x="275" y="1509" on="0"/>
        <pt x="382" y="1553" on="0"/>
        <pt x="450" y="1553" on="1"/>
        <pt x="506" y="1553" on="1"/>
        <pt x="506" y="1510" on="1"/>
        <pt x="506" y="1499" on="0"/>
        <pt x="489" y="1487" on="0"/>
        <pt x="481" y="1487" on="1"/>
        <pt x="447" y="1487" on="1"/>
        <pt x="403" y="1487" on="0"/>
        <pt x="330" y="1456" on="0"/>
        <pt x="278" y="1399" on="0"/>
        <pt x="248" y="1317" on="0"/>
        <pt x="248" y="1267" on="1"/>
        <pt x="248" y="1208" on="0"/>
        <pt x="267" y="1098" on="0"/>
        <pt x="289" y="990" on="0"/>
        <pt x="308" y="883" on="0"/>
        <pt x="308" y="828" on="1"/>
        <pt x="308" y="791" on="0"/>
        <pt x="282" y="727" on="0"/>
        <pt x="240" y="680" on="0"/>
        <pt x="186" y="648" on="0"/>
        <pt x="156" y="641" on="1"/>
        <pt x="186" y="635" on="0"/>
        <pt x="240" y="603" on="0"/>
        <pt x="282" y="555" on="0"/>
        <pt x="308" y="493" on="0"/>
        <pt x="308" y="455" on="1"/>
        <pt x="308" y="400" on="0"/>
        <pt x="289" y="293" on="0"/>
        <pt x="267" y="184" on="0"/>
        <pt x="248" y="74" on="0"/>
        <pt x="248" y="16" on="1"/>
        <pt x="248" y="-34" on="0"/>
        <pt x="278" y="-116" on="0"/>
        <pt x="330" y="-173" on="0"/>
        <pt x="403" y="-204" on="0"/>
        <pt x="447" y="-204" on="1"/>
        <pt x="481" y="-204" on="1"/>
        <pt x="489" y="-204" on="0"/>
        <pt x="506" y="-216" on="0"/>
        <pt x="506" y="-227" on="1"/>
        <pt x="506" y="-270" on="1"/>
        <pt x="450" y="-270" on="1"/>
        <pt x="382" y="-270" on="0"/>
        <pt x="275" y="-226" on="0"/>
        <pt x="201" y="-147" on="0"/>
        <pt x="162" y="-41" on="0"/>
        <pt x="162" y="22" on="1"/>
        <pt x="162" y="79" on="0"/>
        <pt x="182" y="186" on="0"/>
        <pt x="204" y="293" on="0"/>
        <pt x="224" y="399" on="0"/>
      </contour>
    </TTGlyph>
    <TTGlyph name="braceright" xMin="107" yMin="-270" xMax="548" yMax="1553">
      <contour>
        <pt x="390" y="456" on="1"/>
        <pt x="390" y="399" on="0"/>
        <pt x="409" y="293" on="0"/>
        <pt x="432" y="186" on="0"/>
        <pt x="451" y="79" on="0"/>
        <pt x="451" y="22" on="1"/>
        <pt x="451" y="-41" on="0"/>
        <pt x="412" y="-147" on="0"/>
        <pt x="338" y="-226" on="0"/>
        <pt x="231" y="-270" on="0"/>
        <pt x="163" y="-270" on="1"/>
        <pt x="107" y="-270" on="1"/>
        <pt x="107" y="-227" on="1"/>
        <pt x="107" y="-216" on="0"/>
        <pt x="123" y="-204" on="0"/>
        <pt x="133" y="-204" on="1"/>
        <pt x="166" y="-204" on="1"/>
        <pt x="210" y="-204" on="0"/>
        <pt x="283" y="-173" on="0"/>
        <pt x="335" y="-116" on="0"/>
        <pt x="365" y="-34" on="0"/>
        <pt x="365" y="16" on="1"/>
        <pt x="365" y="74" on="0"/>
        <pt x="347" y="184" on="0"/>
        <pt x="324" y="293" on="0"/>
        <pt x="306" y="400" on="0"/>
        <pt x="306" y="455" on="1"/>
        <pt x="306" y="493" on="0"/>
        <pt x="330" y="555" on="0"/>
        <pt x="372" y="603" on="0"/>
        <pt x="426" y="635" on="0"/>
        <pt x="456" y="641" on="1"/>
        <pt x="426" y="648" on="0"/>
        <pt x="372" y="680" on="0"/>
        <pt x="330" y="727" on="0"/>
        <pt x="306" y="791" on="0"/>
        <pt x="306" y="828" on="1"/>
        <pt x="306" y="883" on="0"/>
        <pt x="324" y="990" on="0"/>
        <pt x="347" y="1098" on="0"/>
        <pt x="365" y="1208" on="0"/>
        <pt x="365" y="1267" on="1"/>
        <pt x="365" y="1317" on="0"/>
        <pt x="335" y="1399" on="0"/>
        <pt x="283" y="1456" on="0"/>
        <pt x="210" y="1487" on="0"/>
        <pt x="166" y="1487" on="1"/>
        <pt x="133" y="1487" on="1"/>
        <pt x="123" y="1487" on="0"/>
        <pt x="107" y="1499" on="0"/>
        <pt x="107" y="1510" on="1"/>
        <pt x="107" y="1553" on="1"/>
        <pt x="163" y="1553" on="1"/>
        <pt x="231" y="1553" on="0"/>
        <pt x="338" y="1509" on="0"/>
        <pt x="412" y="1431" on="0"/>
        <pt x="451" y="1324" on="0"/>
        <pt x="451" y="1262" on="1"/>
        <pt x="451" y="1204" on="0"/>
        <pt x="432" y="1097" on="0"/>
        <pt x="409" y="990" on="0"/>
        <pt x="390" y="884" on="0"/>
        <pt x="390" y="827" on="1"/>
        <pt x="390" y="794" on="0"/>
        <pt x="412" y="737" on="0"/>
        <pt x="454" y="695" on="0"/>
        <pt x="513" y="673" on="0"/>
        <pt x="548" y="673" on="1"/>
        <pt x="548" y="610" on="1"/>
        <pt x="513" y="610" on="0"/>
        <pt x="454" y="588" on="0"/>
        <pt x="412" y="546" on="0"/>
        <pt x="390" y="489" on="0"/>
      </contour>
    </TTGlyph>
    <TTGlyph name="colon" xMin="148" yMin="-15" xMax="337" yMax="990">
      <contour>
        <pt x="148" y="79" on="1"/>
        <pt x="148" y="98" on="0"/>
        <pt x="162" y="133" on="0"/>
        <pt x="188" y="159" on="0"/>
        <pt x="222" y="174" on="0"/>
        <pt x="242" y="174" on="1"/>
        <pt x="262" y="174" on="0"/>
        <pt x="296" y="159" on="0"/>
        <pt x="322" y="133" on="0"/>
        <pt x="337" y="98" on="0"/>
        <pt x="337" y="79" on="1"/>
        <pt x="337" y="58" on="0"/>
        <pt x="322" y="25" on="0"/>
        <pt x="296" y="-1" on="0"/>
        <pt x="262" y="-15" on="0"/>
        <pt x="242" y="-15" on="1"/>
        <pt x="202" y="-15" on="0"/>
        <pt x="148" y="39" on="0"/>
      </contour>
      <contour>
        <pt x="148" y="895" on="1"/>
        <pt x="148" y="914" on="0"/>
        <pt x="162" y="949" on="0"/>
        <pt x="188" y="975" on="0"/>
        <pt x="222" y="990" on="0"/>
        <pt x="242" y="990" on="1"/>
        <pt x="262" y="990" on="0"/>
        <pt x="296" y="975" on="0"/>
        <pt x="322" y="949" on="0"/>
        <pt x="337" y="914" on="0"/>
        <pt x="337" y="895" on="1"/>
        <pt x="337" y="874" on="0"/>
        <pt x="322" y="841" on="0"/>
        <pt x="296" y="815" on="0"/>
        <pt x="262" y="801" on="0"/>
        <pt x="242" y="801" on="1"/>
        <pt x="202" y="801" on="0"/>
        <pt x="148" y="855" on="0"/>
      </contour>
    </TTGlyph>
    <TTGlyph name="comma" xMin="112" yMin="-259" xMax="293" yMax="174">
      <contour>
        <pt x="112" y="87" on="1"/>
        <pt x="112" y="123" on="0"/>
        <pt x="161" y="174" on="0"/>
        <pt x="201" y="174" on="1"/>
        <pt x="245" y="174" on="0"/>
        <pt x="293" y="114" on="0"/>
        <pt x="293" y="65" on="1"/>
        <pt x="293" y="23" on="0"/>
        <pt x="272" y="-65" on="0"/>
        <pt x="231" y="-148" on="0"/>
        <pt x="173" y="-226" on="0"/>
        <pt x="139" y="-259" on="1"/>
        <pt x="123" y="-244" on="1"/>
        <pt x="115" y="-236" on="0"/>
        <pt x="115" y="-226" on="1"/>
        <pt x="115" y="-221" on="0"/>
        <pt x="121" y="-211" on="0"/>
        <pt x="125" y="-207" on="1"/>
        <pt x="136" y="-197" on="0"/>
        <pt x="167" y="-157" on="0"/>
        <pt x="199" y="-102" on="0"/>
        <pt x="225" y="-37" on="0"/>
        <pt x="229" y="0" on="1"/>
        <pt x="223" y="-2" on="0"/>
        <pt x="207" y="-4" on="0"/>
        <pt x="198" y="-4" on="1"/>
        <pt x="160" y="-4" on="0"/>
        <pt x="112" y="47" on="0"/>
      </contour>
    </TTGlyph>
    <TTGlyph name="dollar" xMin="155" yMin="-263" xMax="1058" yMax="1667">
      <contour>
        <pt x="554" y="-15" on="1"/>
        <pt x="423" y="-9" on="0"/>
        <pt x="229" y="91" on="0"/>
        <pt x="155" y="173" on="1"/>
        <pt x="183" y="213" on="1"/>
        <pt x="195" y="228" on="0"/>
        <pt x="211" y="228" on="1"/>
        <pt x="221" y="228" on="0"/>
        <pt x="248" y="206" on="0"/>
        <pt x="287" y="172" on="0"/>
        <pt x="340" y="132" on="0"/>
        <pt x="411" y="96" on="0"/>
        <pt x="501" y="70" on="0"/>
        <pt x="558" y="67" on="1"/>
        <pt x="591" y="718" on="1"/>
        <pt x="522" y="739" on="0"/>
        <pt x="389" y="793" on="0"/>
        <pt x="286" y="876" on="0"/>
        <pt x="223" y="997" on="0"/>
        <pt x="223" y="1090" on="1"/>
        <pt x="223" y="1160" on="0"/>
        <pt x="276" y="1292" on="0"/>
        <pt x="379" y="1396" on="0"/>
        <pt x="531" y="1459" on="0"/>
        <pt x="628" y="1462" on="1"/>
        <pt x="637" y="1634" on="1"/>
        <pt x="638" y="1649" on="0"/>
        <pt x="654" y="1667" on="0"/>
        <pt x="668" y="1667" on="1"/>
        <pt x="705" y="1667" on="1"/>
        <pt x="694" y="1461" on="1"/>
        <pt x="797" y="1454" on="0"/>
        <pt x="953" y="1377" on="0"/>
        <pt x="1017" y="1313" on="1"/>
        <pt x="995" y="1278" on="1"/>
        <pt x="984" y="1261" on="0"/>
        <pt x="968" y="1261" on="1"/>
        <pt x="956" y="1261" on="0"/>
        <pt x="916" y="1294" on="0"/>
        <pt x="851" y="1335" on="0"/>
        <pt x="756" y="1373" on="0"/>
        <pt x="690" y="1378" on="1"/>
        <pt x="660" y="793" on="1"/>
        <pt x="708" y="777" on="0"/>
        <pt x="805" y="744" on="0"/>
        <pt x="894" y="703" on="0"/>
        <pt x="970" y="650" on="0"/>
        <pt x="1026" y="578" on="0"/>
        <pt x="1058" y="484" on="0"/>
        <pt x="1058" y="423" on="1"/>
        <pt x="1058" y="335" on="0"/>
        <pt x="999" y="179" on="0"/>
        <pt x="887" y="61" on="0"/>
        <pt x="724" y="-10" on="0"/>
        <pt x="620" y="-15" on="1"/>
        <pt x="609" y="-231" on="1"/>
        <pt x="608" y="-245" on="0"/>
        <pt x="592" y="-263" on="0"/>
        <pt x="579" y="-263" on="1"/>
        <pt x="542" y="-263" on="1"/>
      </contour>
      <contour>
        <pt x="966" y="408" on="1"/>
        <pt x="966" y="475" on="0"/>
        <pt x="915" y="569" on="0"/>
        <pt x="829" y="635" on="0"/>
        <pt x="717" y="679" on="0"/>
        <pt x="656" y="698" on="1"/>
        <pt x="624" y="67" on="1"/>
        <pt x="706" y="72" on="0"/>
        <pt x="834" y="128" on="0"/>
        <pt x="921" y="219" on="0"/>
        <pt x="966" y="339" on="0"/>
      </contour>
      <contour>
        <pt x="314" y="1098" on="1"/>
        <pt x="314" y="1034" on="0"/>
        <pt x="359" y="944" on="0"/>
        <pt x="437" y="880" on="0"/>
        <pt x="538" y="834" on="0"/>
        <pt x="595" y="814" on="1"/>
        <pt x="624" y="1379" on="1"/>
        <pt x="546" y="1375" on="0"/>
        <pt x="430" y="1326" on="0"/>
        <pt x="353" y="1249" on="0"/>
        <pt x="314" y="1151" on="0"/>
      </contour>
    </TTGlyph>
    <TTGlyph name="eight" xMin="122" yMin="-16" xMax="1064" yMax="1465">
      <contour>
        <pt x="593" y="-16" on="1"/>
        <pt x="489" y="-16" on="0"/>
        <pt x="316" y="39" on="0"/>
        <pt x="192" y="143" on="0"/>
        <pt x="122" y="291" on="0"/>
        <pt x="122" y="383" on="1"/>
        <pt x="122" y="463" on="0"/>
        <pt x="168" y="588" on="0"/>
        <pt x="252" y="680" on="0"/>
        <pt x="368" y="741" on="0"/>
        <pt x="437" y="757" on="1"/>
        <pt x="374" y="775" on="0"/>
        <pt x="276" y="839" on="0"/>
        <pt x="209" y="927" on="0"/>
        <pt x="174" y="1034" on="0"/>
        <pt x="174" y="1096" on="1"/>
        <pt x="174" y="1172" on="0"/>
        <pt x="233" y="1308" on="0"/>
        <pt x="341" y="1408" on="0"/>
        <pt x="496" y="1465" on="0"/>
        <pt x="593" y="1465" on="1"/>
        <pt x="689" y="1465" on="0"/>
        <pt x="844" y="1408" on="0"/>
        <pt x="953" y="1308" on="0"/>
        <pt x="1012" y="1172" on="0"/>
        <pt x="1012" y="1096" on="1"/>
        <pt x="1012" y="1034" on="0"/>
        <pt x="977" y="927" on="0"/>
        <pt x="909" y="839" on="0"/>
        <pt x="811" y="775" on="0"/>
        <pt x="748" y="757" on="1"/>
        <pt x="817" y="741" on="0"/>
        <pt x="933" y="680" on="0"/>
        <pt x="1017" y="588" on="0"/>
        <pt x="1064" y="463" on="0"/>
        <pt x="1064" y="383" on="1"/>
        <pt x="1064" y="291" on="0"/>
        <pt x="994" y="143" on="0"/>
        <pt x="871" y="39" on="0"/>
        <pt x="697" y="-16" on="0"/>
      </contour>
      <contour>
        <pt x="593" y="61" on="1"/>
        <pt x="676" y="61" on="0"/>
        <pt x="812" y="108" on="0"/>
        <pt x="910" y="193" on="0"/>
        <pt x="964" y="311" on="0"/>
        <pt x="964" y="384" on="1"/>
        <pt x="964" y="479" on="0"/>
        <pt x="894" y="606" on="0"/>
        <pt x="786" y="682" on="0"/>
        <pt x="654" y="714" on="0"/>
        <pt x="593" y="714" on="1"/>
        <pt x="532" y="714" on="0"/>
        <pt x="401" y="682" on="0"/>
        <pt x="292" y="606" on="0"/>
        <pt x="222" y="479" on="0"/>
        <pt x="222" y="384" on="1"/>
        <pt x="222" y="311" on="0"/>
        <pt x="276" y="193" on="0"/>
        <pt x="373" y="108" on="0"/>
        <pt x="510" y="61" on="0"/>
      </contour>
      <contour>
        <pt x="593" y="793" on="1"/>
        <pt x="676" y="793" on="0"/>
        <pt x="798" y="843" on="0"/>
        <pt x="878" y="928" on="0"/>
        <pt x="916" y="1036" on="0"/>
        <pt x="916" y="1095" on="1"/>
        <pt x="916" y="1157" on="0"/>
        <pt x="873" y="1265" on="0"/>
        <pt x="790" y="1345" on="0"/>
        <pt x="670" y="1390" on="0"/>
        <pt x="593" y="1390" on="1"/>
        <pt x="516" y="1390" on="0"/>
        <pt x="395" y="1345" on="0"/>
        <pt x="312" y="1265" on="0"/>
        <pt x="269" y="1157" on="0"/>
        <pt x="269" y="1095" on="1"/>
        <pt x="269" y="1036" on="0"/>
        <pt x="307" y="928" on="0"/>
        <pt x="387" y="843" on="0"/>
        <pt x="509" y="793" on="0"/>
      </contour>
    </TTGlyph>
    <TTGlyph name="equal" xMin="169" yMin="494" xMax="1016" yMax="890">
      <contour>
        <pt x="169" y="569" on="1"/>
        <pt x="1016" y="569" on="1"/>
        <pt x="1016" y="494" on="1"/>
        <pt x="169" y="494" on="1"/>
      </contour>
      <contour>
        <pt x="169" y="890" on="1"/>
        <pt x="1016" y="890" on="1"/>
        <pt x="1016" y="814" on="1"/>
        <pt x="169" y="814" on="1"/>
      </contour>
    </TTGlyph>
    <TTGlyph name="exclam" xMin="235" yMin="-15" xMax="424" yMax="1449">
      <contour>
        <pt x="380" y="1449" on="1"/>
        <pt x="380" y="863" on="1"/>
        <pt x="380" y="817" on="0"/>
        <pt x="378" y="735" on="0"/>
        <pt x="375" y="650" on="0"/>
        <pt x="369" y="556" on="0"/>
        <pt x="366" y="499" on="1"/>
        <pt x="300" y="499" on="1"/>
        <pt x="296" y="556" on="0"/>
        <pt x="290" y="650" on="0"/>
        <pt x="287" y="735" on="0"/>
        <pt x="285" y="817" on="0"/>
        <pt x="285" y="863" on="1"/>
        <pt x="285" y="1449" on="1"/>
      </contour>
      <contour>
        <pt x="235" y="79" on="1"/>
        <pt x="235" y="98" on="0"/>
        <pt x="249" y="133" on="0"/>
        <pt x="275" y="159" on="0"/>
        <pt x="309" y="174" on="0"/>
        <pt x="329" y="174" on="1"/>
        <pt x="349" y="174" on="0"/>
        <pt x="383" y="159" on="0"/>
        <pt x="409" y="133" on="0"/>
        <pt x="424" y="98" on="0"/>
        <pt x="424" y="79" on="1"/>
        <pt x="424" y="58" on="0"/>
        <pt x="409" y="25" on="0"/>
        <pt x="383" y="-1" on="0"/>
        <pt x="349" y="-15" on="0"/>
        <pt x="329" y="-15" on="1"/>
        <pt x="289" y="-15" on="0"/>
        <pt x="235" y="39" on="0"/>
      </contour>
    </TTGlyph>
    <TTGlyph name="five" xMin="151" yMin="-16" xMax="1028" yMax="1449">
      <contour>
        <pt x="989" y="1407" on="1"/>
        <pt x="989" y="1386" on="0"/>
        <pt x="961" y="1359" on="0"/>
        <pt x="931" y="1359" on="1"/>
        <pt x="407" y="1359" on="1"/>
        <pt x="320" y="876" on="1"/>
        <pt x="389" y="893" on="0"/>
        <pt x="511" y="908" on="0"/>
        <pt x="568" y="908" on="1"/>
        <pt x="680" y="908" on="0"/>
        <pt x="852" y="844" on="0"/>
        <pt x="968" y="728" on="0"/>
        <pt x="1028" y="568" on="0"/>
        <pt x="1028" y="474" on="1"/>
        <pt x="1028" y="359" on="0"/>
        <pt x="948" y="178" on="0"/>
        <pt x="811" y="51" on="0"/>
        <pt x="629" y="-16" on="0"/>
        <pt x="527" y="-16" on="1"/>
        <pt x="466" y="-16" on="0"/>
        <pt x="358" y="5" on="0"/>
        <pt x="262" y="41" on="0"/>
        <pt x="182" y="88" on="0"/>
        <pt x="151" y="113" on="1"/>
        <pt x="180" y="153" on="1"/>
        <pt x="190" y="168" on="0"/>
        <pt x="209" y="168" on="1"/>
        <pt x="223" y="168" on="0"/>
        <pt x="273" y="137" on="0"/>
        <pt x="352" y="100" on="0"/>
        <pt x="459" y="70" on="0"/>
        <pt x="531" y="70" on="1"/>
        <pt x="615" y="70" on="0"/>
        <pt x="760" y="124" on="0"/>
        <pt x="868" y="226" on="0"/>
        <pt x="928" y="377" on="0"/>
        <pt x="928" y="472" on="1"/>
        <pt x="928" y="550" on="0"/>
        <pt x="882" y="681" on="0"/>
        <pt x="789" y="774" on="0"/>
        <pt x="647" y="826" on="0"/>
        <pt x="550" y="826" on="1"/>
        <pt x="492" y="826" on="0"/>
        <pt x="361" y="808" on="0"/>
        <pt x="287" y="787" on="1"/>
        <pt x="224" y="807" on="1"/>
        <pt x="337" y="1449" on="1"/>
        <pt x="989" y="1449" on="1"/>
      </contour>
    </TTGlyph>
    <TTGlyph name="four" xMin="64" yMin="0" xMax="1144" yMax="1451">
      <contour>
        <pt x="879" y="494" on="1"/>
        <pt x="1144" y="494" on="1"/>
        <pt x="1144" y="440" on="1"/>
        <pt x="1144" y="429" on="0"/>
        <pt x="1131" y="416" on="0"/>
        <pt x="1117" y="416" on="1"/>
        <pt x="879" y="416" on="1"/>
        <pt x="879" y="0" on="1"/>
        <pt x="791" y="0" on="1"/>
        <pt x="791" y="416" on="1"/>
        <pt x="108" y="416" on="1"/>
        <pt x="93" y="416" on="0"/>
        <pt x="76" y="429" on="0"/>
        <pt x="73" y="440" on="1"/>
        <pt x="64" y="488" on="1"/>
        <pt x="792" y="1451" on="1"/>
        <pt x="879" y="1451" on="1"/>
      </contour>
      <contour>
        <pt x="791" y="1252" on="1"/>
        <pt x="791" y="1270" on="0"/>
        <pt x="793" y="1309" on="0"/>
        <pt x="796" y="1329" on="1"/>
        <pt x="170" y="494" on="1"/>
        <pt x="791" y="494" on="1"/>
      </contour>
    </TTGlyph>
    <TTGlyph name="greater" xMin="257" yMin="271" xMax="1025" yMax="1103">
      <contour>
        <pt x="257" y="271" on="1"/>
        <pt x="257" y="338" on="1"/>
        <pt x="257" y="349" on="0"/>
        <pt x="269" y="367" on="0"/>
        <pt x="284" y="374" on="1"/>
        <pt x="851" y="662" on="1"/>
        <pt x="883" y="678" on="0"/>
        <pt x="924" y="687" on="1"/>
        <pt x="903" y="692" on="0"/>
        <pt x="868" y="706" on="0"/>
        <pt x="851" y="714" on="1"/>
        <pt x="284" y="1000" on="1"/>
        <pt x="257" y="1015" on="0"/>
        <pt x="257" y="1036" on="1"/>
        <pt x="257" y="1103" on="1"/>
        <pt x="1025" y="709" on="1"/>
        <pt x="1025" y="667" on="1"/>
      </contour>
    </TTGlyph>
    <TTGlyph name="guillemotleft" xMin="158" yMin="137" xMax="713" yMax="926">
      <contour>
        <pt x="158" y="525" on="1"/>
        <pt x="158" y="539" on="1"/>
        <pt x="405" y="926" on="1"/>
        <pt x="436" y="910" on="1"/>
        <pt x="452" y="900" on="0"/>
        <pt x="452" y="885" on="1"/>
        <pt x="452" y="872" on="0"/>
        <pt x="445" y="861" on="1"/>
        <pt x="257" y="561" on="1"/>
        <pt x="244" y="541" on="0"/>
        <pt x="235" y="531" on="1"/>
        <pt x="245" y="523" on="0"/>
        <pt x="257" y="503" on="1"/>
        <pt x="445" y="202" on="1"/>
        <pt x="452" y="190" on="0"/>
        <pt x="452" y="178" on="1"/>
        <pt x="452" y="163" on="0"/>
        <pt x="436" y="153" on="1"/>
        <pt x="405" y="137" on="1"/>
      </contour>
      <contour>
        <pt x="419" y="525" on="1"/>
        <pt x="419" y="539" on="1"/>
        <pt x="666" y="926" on="1"/>
        <pt x="697" y="910" on="1"/>
        <pt x="713" y="900" on="0"/>
        <pt x="713" y="885" on="1"/>
        <pt x="713" y="872" on="0"/>
        <pt x="706" y="861" on="1"/>
        <pt x="518" y="561" on="1"/>
        <pt x="505" y="541" on="0"/>
        <pt x="496" y="531" on="1"/>
        <pt x="506" y="523" on="0"/>
        <pt x="518" y="503" on="1"/>
        <pt x="706" y="202" on="1"/>
        <pt x="713" y="190" on="0"/>
        <pt x="713" y="178" on="1"/>
        <pt x="713" y="163" on="0"/>
        <pt x="697" y="153" on="1"/>
        <pt x="666" y="137" on="1"/>
      </contour>
    </TTGlyph>
    <TTGlyph name="guillemotright" xMin="180" yMin="137" xMax="736" yMax="926">
      <contour>
        <pt x="228" y="137" on="1"/>
        <pt x="197" y="153" on="1"/>
        <pt x="180" y="162" on="0"/>
        <pt x="180" y="179" on="1"/>
        <pt x="180" y="190" on="0"/>
        <pt x="187" y="202" on="1"/>
        <pt x="375" y="503" on="1"/>
        <pt x="381" y="514" on="0"/>
        <pt x="392" y="527" on="0"/>
        <pt x="397" y="531" on="1"/>
        <pt x="392" y="537" on="0"/>
        <pt x="381" y="550" on="0"/>
        <pt x="375" y="561" on="1"/>
        <pt x="187" y="861" on="1"/>
        <pt x="180" y="872" on="0"/>
        <pt x="180" y="885" on="1"/>
        <pt x="180" y="901" on="0"/>
        <pt x="197" y="910" on="1"/>
        <pt x="228" y="926" on="1"/>
        <pt x="475" y="539" on="1"/>
        <pt x="475" y="525" on="1"/>
      </contour>
      <contour>
        <pt x="489" y="137" on="1"/>
        <pt x="459" y="153" on="1"/>
        <pt x="441" y="162" on="0"/>
        <pt x="441" y="179" on="1"/>
        <pt x="441" y="190" on="0"/>
        <pt x="448" y="202" on="1"/>
        <pt x="636" y="503" on="1"/>
        <pt x="642" y="514" on="0"/>
        <pt x="653" y="527" on="0"/>
        <pt x="658" y="531" on="1"/>
        <pt x="653" y="537" on="0"/>
        <pt x="642" y="550" on="0"/>
        <pt x="636" y="561" on="1"/>
        <pt x="448" y="861" on="1"/>
        <pt x="441" y="872" on="0"/>
        <pt x="441" y="885" on="1"/>
        <pt x="441" y="901" on="0"/>
        <pt x="459" y="910" on="1"/>
        <pt x="489" y="926" on="1"/>
        <pt x="736" y="539" on="1"/>
        <pt x="736" y="525" on="1"/>
      </contour>
    </TTGlyph>
    <TTGlyph name="hyphen" xMin="102" yMin="566" xMax="578" yMax="649">
      <contour>
        <pt x="102" y="649" on="1"/>
        <pt x="578" y="649" on="1"/>
        <pt x="578" y="566" on="1"/>
        <pt x="102" y="566" on="1"/>
      </contour>
    </TTGlyph>
    <TTGlyph name="less" xMin="163" yMin="271" xMax="931" yMax="1103">
      <contour>
        <pt x="163" y="709" on="1"/>
        <pt x="931" y="1103" on="1"/>
        <pt x="931" y="1036" on="1"/>
        <pt x="931" y="1025" on="0"/>
        <pt x="919" y="1009" on="0"/>
        <pt x="903" y="1000" on="1"/>
        <pt x="337" y="714" on="1"/>
        <pt x="303" y="696" on="0"/>
        <pt x="263" y="687" on="1"/>
        <pt x="306" y="678" on="0"/>
        <pt x="337" y="662" on="1"/>
        <pt x="903" y="374" on="1"/>
        <pt x="919" y="366" on="0"/>
        <pt x="931" y="349" on="0"/>
        <pt x="931" y="338" on="1"/>
        <pt x="931" y="271" on="1"/>
        <pt x="163" y="667" on="1"/>
      </contour>
    </TTGlyph>
    <TTGlyph name="nine" xMin="176" yMin="0" xMax="1074" yMax="1465">
      <contour>
        <pt x="587" y="616" on="1"/>
        <pt x="498" y="616" on="0"/>
        <pt x="347" y="675" on="0"/>
        <pt x="237" y="783" on="0"/>
        <pt x="176" y="936" on="0"/>
        <pt x="176" y="1030" on="1"/>
        <pt x="176" y="1123" on="0"/>
        <pt x="245" y="1282" on="0"/>
        <pt x="367" y="1399" on="0"/>
        <pt x="536" y="1465" on="0"/>
        <pt x="637" y="1465" on="1"/>
        <pt x="733" y="1465" on="0"/>
        <pt x="894" y="1400" on="0"/>
        <pt x="1010" y="1280" on="0"/>
        <pt x="1074" y="1113" on="0"/>
        <pt x="1074" y="1011" on="1"/>
        <pt x="1074" y="954" on="0"/>
        <pt x="1050" y="852" on="0"/>
        <pt x="1004" y="750" on="0"/>
        <pt x="939" y="642" on="0"/>
        <pt x="897" y="581" on="1"/>
        <pt x="517" y="24" on="1"/>
        <pt x="502" y="0" on="0"/>
        <pt x="467" y="0" on="1"/>
        <pt x="379" y="0" on="1"/>
        <pt x="807" y="598" on="1"/>
        <pt x="838" y="641" on="0"/>
        <pt x="890" y="718" on="0"/>
        <pt x="911" y="754" on="1"/>
        <pt x="852" y="688" on="0"/>
        <pt x="683" y="616" on="0"/>
      </contour>
      <contour>
        <pt x="980" y="1029" on="1"/>
        <pt x="980" y="1108" on="0"/>
        <pt x="929" y="1239" on="0"/>
        <pt x="836" y="1332" on="0"/>
        <pt x="711" y="1384" on="0"/>
        <pt x="636" y="1384" on="1"/>
        <pt x="556" y="1384" on="0"/>
        <pt x="422" y="1333" on="0"/>
        <pt x="327" y="1241" on="0"/>
        <pt x="273" y="1113" on="0"/>
        <pt x="273" y="1036" on="1"/>
        <pt x="273" y="956" on="0"/>
        <pt x="322" y="828" on="0"/>
        <pt x="412" y="739" on="0"/>
        <pt x="537" y="692" on="0"/>
        <pt x="614" y="692" on="1"/>
        <pt x="701" y="692" on="0"/>
        <pt x="838" y="752" on="0"/>
        <pt x="932" y="848" on="0"/>
        <pt x="980" y="968" on="0"/>
      </contour>
    </TTGlyph>
    <TTGlyph name="numbersign" xMin="88" yMin="0" xMax="1110" yMax="1449">
      <contour>
        <pt x="775" y="454" on="1"/>
        <pt x="679" y="0" on="1"/>
        <pt x="637" y="0" on="1"/>
        <pt x="623" y="0" on="0"/>
        <pt x="604" y="17" on="0"/>
        <pt x="604" y="34" on="1"/>
        <pt x="604" y="41" on="0"/>
        <pt x="605" y="45" on="1"/>
        <pt x="693" y="454" on="1"/>
        <pt x="388" y="454" on="1"/>
        <pt x="300" y="41" on="1"/>
        <pt x="295" y="18" on="0"/>
        <pt x="270" y="0" on="0"/>
        <pt x="253" y="0" on="1"/>
        <pt x="210" y="0" on="1"/>
        <pt x="306" y="454" on="1"/>
        <pt x="119" y="454" on="1"/>
        <pt x="104" y="454" on="0"/>
        <pt x="88" y="467" on="0"/>
        <pt x="88" y="484" on="1"/>
        <pt x="88" y="489" on="0"/>
        <pt x="88" y="499" on="0"/>
        <pt x="90" y="509" on="1"/>
        <pt x="93" y="525" on="1"/>
        <pt x="316" y="525" on="1"/>
        <pt x="400" y="924" on="1"/>
        <pt x="141" y="924" on="1"/>
        <pt x="147" y="963" on="1"/>
        <pt x="151" y="996" on="0"/>
        <pt x="192" y="996" on="1"/>
        <pt x="411" y="996" on="1"/>
        <pt x="500" y="1410" on="1"/>
        <pt x="504" y="1430" on="0"/>
        <pt x="529" y="1449" on="0"/>
        <pt x="547" y="1449" on="1"/>
        <pt x="590" y="1449" on="1"/>
        <pt x="492" y="996" on="1"/>
        <pt x="798" y="996" on="1"/>
        <pt x="895" y="1449" on="1"/>
        <pt x="938" y="1449" on="1"/>
        <pt x="970" y="1449" on="0"/>
        <pt x="970" y="1418" on="1"/>
        <pt x="970" y="1410" on="0"/>
        <pt x="969" y="1406" on="1"/>
        <pt x="880" y="996" on="1"/>
        <pt x="1110" y="996" on="1"/>
        <pt x="1104" y="957" on="1"/>
        <pt x="1099" y="924" on="0"/>
        <pt x="1058" y="924" on="1"/>
        <pt x="869" y="924" on="1"/>
        <pt x="785" y="525" on="1"/>
        <pt x="1016" y="525" on="1"/>
        <pt x="1046" y="525" on="0"/>
        <pt x="1046" y="499" on="1"/>
        <pt x="1042" y="454" on="1"/>
      </contour>
      <contour>
        <pt x="398" y="525" on="1"/>
        <pt x="703" y="525" on="1"/>
        <pt x="787" y="924" on="1"/>
        <pt x="482" y="924" on="1"/>
      </contour>
    </TTGlyph>
    <TTGlyph name="one" xMin="251" yMin="0" xMax="1062" yMax="1455">
      <contour>
        <pt x="316" y="76" on="1"/>
        <pt x="648" y="76" on="1"/>
        <pt x="648" y="1251" on="1"/>
        <pt x="648" y="1286" on="0"/>
        <pt x="651" y="1325" on="1"/>
        <pt x="332" y="1041" on="1"/>
        <pt x="322" y="1032" on="0"/>
        <pt x="307" y="1032" on="1"/>
        <pt x="290" y="1032" on="0"/>
        <pt x="281" y="1044" on="1"/>
        <pt x="251" y="1085" on="1"/>
        <pt x="670" y="1455" on="1"/>
        <pt x="746" y="1455" on="1"/>
        <pt x="746" y="76" on="1"/>
        <pt x="1062" y="76" on="1"/>
        <pt x="1062" y="0" on="1"/>
        <pt x="316" y="0" on="1"/>
      </contour>
    </TTGlyph>
    <TTGlyph name="parenleft" xMin="174" yMin="-271" xMax="513" yMax="1563">
      <contour>
        <pt x="259" y="645" on="1"/>
        <pt x="259" y="416" on="0"/>
        <pt x="383" y="-5" on="0"/>
        <pt x="506" y="-201" on="1"/>
        <pt x="513" y="-212" on="0"/>
        <pt x="513" y="-222" on="1"/>
        <pt x="513" y="-238" on="0"/>
        <pt x="499" y="-245" on="1"/>
        <pt x="456" y="-271" on="1"/>
        <pt x="377" y="-151" on="0"/>
        <pt x="269" y="76" on="0"/>
        <pt x="204" y="300" on="0"/>
        <pt x="174" y="525" on="0"/>
        <pt x="174" y="645" on="1"/>
        <pt x="174" y="765" on="0"/>
        <pt x="204" y="991" on="0"/>
        <pt x="269" y="1215" on="0"/>
        <pt x="377" y="1442" on="0"/>
        <pt x="456" y="1563" on="1"/>
        <pt x="499" y="1536" on="1"/>
        <pt x="512" y="1529" on="0"/>
        <pt x="512" y="1514" on="1"/>
        <pt x="512" y="1504" on="0"/>
        <pt x="505" y="1493" on="1"/>
        <pt x="383" y="1296" on="0"/>
        <pt x="259" y="876" on="0"/>
      </contour>
    </TTGlyph>
    <TTGlyph name="parenright" xMin="100" yMin="-271" xMax="439" yMax="1563">
      <contour>
        <pt x="354" y="645" on="1"/>
        <pt x="354" y="876" on="0"/>
        <pt x="230" y="1296" on="0"/>
        <pt x="108" y="1493" on="1"/>
        <pt x="101" y="1504" on="0"/>
        <pt x="101" y="1514" on="1"/>
        <pt x="101" y="1529" on="0"/>
        <pt x="114" y="1536" on="1"/>
        <pt x="157" y="1563" on="1"/>
        <pt x="235" y="1442" on="0"/>
        <pt x="344" y="1215" on="0"/>
        <pt x="409" y="991" on="0"/>
        <pt x="439" y="765" on="0"/>
        <pt x="439" y="645" on="1"/>
        <pt x="439" y="525" on="0"/>
        <pt x="409" y="300" on="0"/>
        <pt x="344" y="76" on="0"/>
        <pt x="235" y="-151" on="0"/>
        <pt x="157" y="-271" on="1"/>
        <pt x="114" y="-245" on="1"/>
        <pt x="100" y="-238" on="0"/>
        <pt x="100" y="-222" on="1"/>
        <pt x="100" y="-212" on="0"/>
        <pt x="107" y="-201" on="1"/>
        <pt x="230" y="-5" on="0"/>
        <pt x="354" y="416" on="0"/>
      </contour>
    </TTGlyph>
    <TTGlyph name="percent" xMin="89" yMin="-17" xMax="1481" yMax="1465">
      <contour>
        <pt x="698" y="1101" on="1"/>
        <pt x="698" y="1012" on="0"/>
        <pt x="649" y="876" on="0"/>
        <pt x="565" y="785" on="0"/>
        <pt x="455" y="739" on="0"/>
        <pt x="393" y="739" on="1"/>
        <pt x="330" y="739" on="0"/>
        <pt x="218" y="785" on="0"/>
        <pt x="136" y="876" on="0"/>
        <pt x="89" y="1012" on="0"/>
        <pt x="89" y="1101" on="1"/>
        <pt x="89" y="1191" on="0"/>
        <pt x="136" y="1328" on="0"/>
        <pt x="218" y="1419" on="0"/>
        <pt x="330" y="1465" on="0"/>
        <pt x="393" y="1465" on="1"/>
        <pt x="457" y="1465" on="0"/>
        <pt x="567" y="1419" on="0"/>
        <pt x="650" y="1328" on="0"/>
        <pt x="698" y="1191" on="0"/>
      </contour>
      <contour>
        <pt x="620" y="1101" on="1"/>
        <pt x="620" y="1180" on="0"/>
        <pt x="585" y="1292" on="0"/>
        <pt x="522" y="1365" on="0"/>
        <pt x="439" y="1399" on="0"/>
        <pt x="393" y="1399" on="1"/>
        <pt x="347" y="1399" on="0"/>
        <pt x="265" y="1365" on="0"/>
        <pt x="204" y="1292" on="0"/>
        <pt x="168" y="1180" on="0"/>
        <pt x="168" y="1101" on="1"/>
        <pt x="168" y="1022" on="0"/>
        <pt x="204" y="910" on="0"/>
        <pt x="265" y="839" on="0"/>
        <pt x="347" y="805" on="0"/>
        <pt x="393" y="805" on="1"/>
        <pt x="439" y="805" on="0"/>
        <pt x="522" y="839" on="0"/>
        <pt x="585" y="910" on="0"/>
        <pt x="620" y="1022" on="0"/>
      </contour>
      <contour>
        <pt x="1248" y="1431" on="1"/>
        <pt x="1254" y="1439" on="0"/>
        <pt x="1272" y="1449" on="0"/>
        <pt x="1286" y="1449" on="1"/>
        <pt x="1355" y="1449" on="1"/>
        <pt x="314" y="18" on="1"/>
        <pt x="301" y="0" on="0"/>
        <pt x="278" y="0" on="1"/>
        <pt x="209" y="0" on="1"/>
      </contour>
      <contour>
        <pt x="1481" y="344" on="1"/>
        <pt x="1481" y="255" on="0"/>
        <pt x="1431" y="119" on="0"/>
        <pt x="1349" y="29" on="0"/>
        <pt x="1238" y="-17" on="0"/>
        <pt x="1176" y="-17" on="1"/>
        <pt x="1113" y="-17" on="0"/>
        <pt x="1001" y="29" on="0"/>
        <pt x="919" y="119" on="0"/>
        <pt x="872" y="255" on="0"/>
        <pt x="872" y="344" on="1"/>
        <pt x="872" y="434" on="0"/>
        <pt x="919" y="571" on="0"/>
        <pt x="1001" y="663" on="0"/>
        <pt x="1113" y="709" on="0"/>
        <pt x="1176" y="709" on="1"/>
        <pt x="1240" y="709" on="0"/>
        <pt x="1351" y="663" on="0"/>
        <pt x="1434" y="571" on="0"/>
        <pt x="1481" y="434" on="0"/>
      </contour>
      <contour>
        <pt x="1403" y="344" on="1"/>
        <pt x="1403" y="423" on="0"/>
        <pt x="1367" y="537" on="0"/>
        <pt x="1306" y="609" on="0"/>
        <pt x="1223" y="643" on="0"/>
        <pt x="1176" y="643" on="1"/>
        <pt x="1130" y="643" on="0"/>
        <pt x="1047" y="609" on="0"/>
        <pt x="986" y="537" on="0"/>
        <pt x="950" y="423" on="0"/>
        <pt x="950" y="344" on="1"/>
        <pt x="950" y="265" on="0"/>
        <pt x="986" y="154" on="0"/>
        <pt x="1047" y="82" on="0"/>
        <pt x="1130" y="49" on="0"/>
        <pt x="1176" y="49" on="1"/>
        <pt x="1223" y="49" on="0"/>
        <pt x="1306" y="82" on="0"/>
        <pt x="1367" y="154" on="0"/>
        <pt x="1403" y="265" on="0"/>
      </contour>
    </TTGlyph>
    <TTGlyph name="period" xMin="107" yMin="-15" xMax="296" yMax="174">
      <contour>
        <pt x="107" y="79" on="1"/>
        <pt x="107" y="98" on="0"/>
        <pt x="121" y="133" on="0"/>
        <pt x="147" y="159" on="0"/>
        <pt x="181" y="174" on="0"/>
        <pt x="201" y="174" on="1"/>
        <pt x="221" y="174" on="0"/>
        <pt x="255" y="159" on="0"/>
        <pt x="281" y="133" on="0"/>
        <pt x="296" y="98" on="0"/>
        <pt x="296" y="79" on="1"/>
        <pt x="296" y="58" on="0"/>
        <pt x="281" y="25" on="0"/>
        <pt x="255" y="-1" on="0"/>
        <pt x="221" y="-15" on="0"/>
        <pt x="201" y="-15" on="1"/>
        <pt x="161" y="-15" on="0"/>
        <pt x="107" y="39" on="0"/>
      </contour>
    </TTGlyph>
    <TTGlyph name="plus" xMin="111" yMin="185" xMax="1073" yMax="1186">
      <contour>
        <pt x="631" y="1186" on="1"/>
        <pt x="631" y="724" on="1"/>
        <pt x="1073" y="724" on="1"/>
        <pt x="1073" y="649" on="1"/>
        <pt x="631" y="649" on="1"/>
        <pt x="631" y="185" on="1"/>
        <pt x="551" y="185" on="1"/>
        <pt x="551" y="649" on="1"/>
        <pt x="111" y="649" on="1"/>
        <pt x="111" y="724" on="1"/>
        <pt x="551" y="724" on="1"/>
        <pt x="551" y="1186" on="1"/>
      </contour>
    </TTGlyph>
    <TTGlyph name="question" xMin="33" yMin="-15" xMax="719" yMax="1465">
      <contour>
        <pt x="33" y="1323" on="1"/>
        <pt x="61" y="1351" on="0"/>
        <pt x="130" y="1402" on="0"/>
        <pt x="213" y="1442" on="0"/>
        <pt x="312" y="1465" on="0"/>
        <pt x="369" y="1465" on="1"/>
        <pt x="441" y="1465" on="0"/>
        <pt x="568" y="1422" on="0"/>
        <pt x="663" y="1342" on="0"/>
        <pt x="719" y="1227" on="0"/>
        <pt x="719" y="1155" on="1"/>
        <pt x="719" y="1077" on="0"/>
        <pt x="671" y="965" on="0"/>
        <pt x="597" y="880" on="0"/>
        <pt x="511" y="815" on="0"/>
        <pt x="436" y="759" on="0"/>
        <pt x="384" y="701" on="0"/>
        <pt x="382" y="667" on="1"/>
        <pt x="370" y="499" on="1"/>
        <pt x="303" y="499" on="1"/>
        <pt x="298" y="674" on="1"/>
        <pt x="298" y="679" on="1"/>
        <pt x="298" y="721" on="0"/>
        <pt x="347" y="784" on="0"/>
        <pt x="420" y="844" on="0"/>
        <pt x="505" y="905" on="0"/>
        <pt x="578" y="982" on="0"/>
        <pt x="627" y="1082" on="0"/>
        <pt x="627" y="1151" on="1"/>
        <pt x="627" y="1206" on="0"/>
        <pt x="584" y="1293" on="0"/>
        <pt x="510" y="1354" on="0"/>
        <pt x="414" y="1385" on="0"/>
        <pt x="362" y="1385" on="1"/>
        <pt x="294" y="1385" on="0"/>
        <pt x="195" y="1350" on="0"/>
        <pt x="127" y="1306" on="0"/>
        <pt x="88" y="1270" on="0"/>
        <pt x="81" y="1270" on="1"/>
        <pt x="66" y="1270" on="0"/>
        <pt x="59" y="1282" on="1"/>
      </contour>
      <contour>
        <pt x="240" y="79" on="1"/>
        <pt x="240" y="98" on="0"/>
        <pt x="254" y="133" on="0"/>
        <pt x="280" y="159" on="0"/>
        <pt x="314" y="174" on="0"/>
        <pt x="334" y="174" on="1"/>
        <pt x="354" y="174" on="0"/>
        <pt x="388" y="159" on="0"/>
        <pt x="414" y="133" on="0"/>
        <pt x="429" y="98" on="0"/>
        <pt x="429" y="79" on="1"/>
        <pt x="429" y="58" on="0"/>
        <pt x="414" y="25" on="0"/>
        <pt x="388" y="-1" on="0"/>
        <pt x="354" y="-15" on="0"/>
        <pt x="334" y="-15" on="1"/>
        <pt x="294" y="-15" on="0"/>
        <pt x="240" y="39" on="0"/>
      </contour>
    </TTGlyph>
    <TTGlyph name="quotedbl" xMin="184" yMin="956" xMax="566" yMax="1449">
      <contour>
        <pt x="269" y="1449" on="1"/>
        <pt x="269" y="1150" on="1"/>
        <pt x="260" y="993" on="1"/>
        <pt x="258" y="976" on="0"/>
        <pt x="243" y="956" on="0"/>
        <pt x="226" y="956" on="1"/>
        <pt x="212" y="956" on="0"/>
        <pt x="195" y="976" on="0"/>
        <pt x="193" y="993" on="1"/>
        <pt x="184" y="1150" on="1"/>
        <pt x="184" y="1449" on="1"/>
      </contour>
      <contour>
        <pt x="566" y="1449" on="1"/>
        <pt x="566" y="1150" on="1"/>
        <pt x="557" y="993" on="1"/>
        <pt x="555" y="976" on="0"/>
        <pt x="540" y="956" on="0"/>
        <pt x="523" y="956" on="1"/>
        <pt x="509" y="956" on="0"/>
        <pt x="492" y="976" on="0"/>
        <pt x="490" y="993" on="1"/>
        <pt x="481" y="1150" on="1"/>
        <pt x="481" y="1449" on="1"/>
      </contour>
    </TTGlyph>
    <TTGlyph name="quotesingle" xMin="184" yMin="956" xMax="269" yMax="1449">
      <contour>
        <pt x="269" y="1449" on="1"/>
        <pt x="269" y="1150" on="1"/>
        <pt x="260" y="993" on="1"/>
        <pt x="258" y="976" on="0"/>
        <pt x="243" y="956" on="0"/>
        <pt x="226" y="956" on="1"/>
        <pt x="212" y="956" on="0"/>
        <pt x="195" y="976" on="0"/>
        <pt x="193" y="993" on="1"/>
        <pt x="184" y="1150" on="1"/>
        <pt x="184" y="1449" on="1"/>
      </contour>
    </TTGlyph>
    <TTGlyph name="semicolon" xMin="148" yMin="-259" xMax="337" yMax="990">
      <contour>
        <pt x="148" y="895" on="1"/>
        <pt x="148" y="914" on="0"/>
        <pt x="162" y="949" on="0"/>
        <pt x="188" y="975" on="0"/>
        <pt x="222" y="990" on="0"/>
        <pt x="242" y="990" on="1"/>
        <pt x="262" y="990" on="0"/>
        <pt x="296" y="975" on="0"/>
        <pt x="322" y="949" on="0"/>
        <pt x="337" y="914" on="0"/>
        <pt x="337" y="895" on="1"/>
        <pt x="337" y="874" on="0"/>
        <pt x="322" y="841" on="0"/>
        <pt x="296" y="815" on="0"/>
        <pt x="262" y="801" on="0"/>
        <pt x="242" y="801" on="1"/>
        <pt x="202" y="801" on="0"/>
        <pt x="148" y="855" on="0"/>
      </contour>
      <contour>
        <pt x="153" y="87" on="1"/>
        <pt x="153" y="123" on="0"/>
        <pt x="202" y="174" on="0"/>
        <pt x="242" y="174" on="1"/>
        <pt x="286" y="174" on="0"/>
        <pt x="334" y="114" on="0"/>
        <pt x="334" y="65" on="1"/>
        <pt x="334" y="23" on="0"/>
        <pt x="313" y="-65" on="0"/>
        <pt x="272" y="-148" on="0"/>
        <pt x="215" y="-226" on="0"/>
        <pt x="180" y="-259" on="1"/>
        <pt x="164" y="-244" on="1"/>
        <pt x="156" y="-236" on="0"/>
        <pt x="156" y="-226" on="1"/>
        <pt x="156" y="-221" on="0"/>
        <pt x="162" y="-211" on="0"/>
        <pt x="166" y="-207" on="1"/>
        <pt x="177" y="-197" on="0"/>
        <pt x="208" y="-157" on="0"/>
        <pt x="240" y="-102" on="0"/>
        <pt x="266" y="-37" on="0"/>
        <pt x="270" y="0" on="1"/>
        <pt x="264" y="-2" on="0"/>
        <pt x="248" y="-4" on="0"/>
        <pt x="239" y="-4" on="1"/>
        <pt x="201" y="-4" on="0"/>
        <pt x="153" y="47" on="0"/>
      </contour>
    </TTGlyph>
    <TTGlyph name="seven" xMin="133" yMin="0" xMax="1097" yMax="1449">
      <contour>
        <pt x="1097" y="1449" on="1"/>
        <pt x="1097" y="1405" on="1"/>
        <pt x="1097" y="1388" on="0"/>
        <pt x="1089" y="1362" on="0"/>
        <pt x="1084" y="1353" on="1"/>
        <pt x="420" y="37" on="1"/>
        <pt x="412" y="20" on="0"/>
        <pt x="384" y="0" on="0"/>
        <pt x="361" y="0" on="1"/>
        <pt x="295" y="0" on="1"/>
        <pt x="963" y="1311" on="1"/>
        <pt x="977" y="1337" on="0"/>
        <pt x="995" y="1359" on="1"/>
        <pt x="160" y="1359" on="1"/>
        <pt x="148" y="1359" on="0"/>
        <pt x="133" y="1375" on="0"/>
        <pt x="133" y="1386" on="1"/>
        <pt x="133" y="1449" on="1"/>
      </contour>
    </TTGlyph>
    <TTGlyph name="six" xMin="139" yMin="-16" xMax="1072" yMax="1449">
      <contour>
        <pt x="643" y="866" on="1"/>
        <pt x="736" y="866" on="0"/>
        <pt x="894" y="805" on="0"/>
        <pt x="1007" y="693" on="0"/>
        <pt x="1072" y="535" on="0"/>
        <pt x="1072" y="436" on="1"/>
        <pt x="1072" y="338" on="0"/>
        <pt x="1001" y="172" on="0"/>
        <pt x="875" y="51" on="0"/>
        <pt x="699" y="-16" on="0"/>
        <pt x="594" y="-16" on="1"/>
        <pt x="492" y="-16" on="0"/>
        <pt x="324" y="49" on="0"/>
        <pt x="205" y="172" on="0"/>
        <pt x="139" y="349" on="0"/>
        <pt x="139" y="461" on="1"/>
        <pt x="139" y="546" on="0"/>
        <pt x="225" y="760" on="0"/>
        <pt x="323" y="893" on="1"/>
        <pt x="719" y="1425" on="1"/>
        <pt x="736" y="1449" on="0"/>
        <pt x="771" y="1449" on="1"/>
        <pt x="857" y="1449" on="1"/>
        <pt x="425" y="885" on="1"/>
        <pt x="393" y="843" on="0"/>
        <pt x="340" y="769" on="0"/>
        <pt x="318" y="733" on="1"/>
        <pt x="379" y="796" on="0"/>
        <pt x="545" y="866" on="0"/>
      </contour>
      <contour>
        <pt x="234" y="437" on="1"/>
        <pt x="234" y="356" on="0"/>
        <pt x="284" y="219" on="0"/>
        <pt x="377" y="120" on="0"/>
        <pt x="510" y="65" on="0"/>
        <pt x="593" y="65" on="1"/>
        <pt x="681" y="65" on="0"/>
        <pt x="822" y="120" on="0"/>
        <pt x="921" y="217" on="0"/>
        <pt x="975" y="351" on="0"/>
        <pt x="975" y="430" on="1"/>
        <pt x="975" y="513" on="0"/>
        <pt x="922" y="647" on="0"/>
        <pt x="827" y="740" on="0"/>
        <pt x="696" y="791" on="0"/>
        <pt x="616" y="791" on="1"/>
        <pt x="526" y="791" on="0"/>
        <pt x="384" y="728" on="0"/>
        <pt x="285" y="629" on="0"/>
        <pt x="234" y="502" on="0"/>
      </contour>
    </TTGlyph>
    <TTGlyph name="slash" xMin="-5" yMin="-86" xMax="729" yMax="1490">
      <contour>
        <pt x="93" y="-46" on="1"/>
        <pt x="85" y="-67" on="0"/>
        <pt x="52" y="-86" on="0"/>
        <pt x="35" y="-86" on="1"/>
        <pt x="-5" y="-86" on="1"/>
        <pt x="632" y="1452" on="1"/>
        <pt x="647" y="1490" on="0"/>
        <pt x="687" y="1490" on="1"/>
        <pt x="729" y="1490" on="1"/>
      </contour>
    </TTGlyph>
    <TTGlyph name="three" xMin="132" yMin="-16" xMax="1071" yMax="1465">
      <contour>
        <pt x="628" y="1465" on="1"/>
        <pt x="711" y="1465" on="0"/>
        <pt x="858" y="1419" on="0"/>
        <pt x="970" y="1327" on="0"/>
        <pt x="1034" y="1190" on="0"/>
        <pt x="1034" y="1100" on="1"/>
        <pt x="1034" y="1029" on="0"/>
        <pt x="990" y="915" on="0"/>
        <pt x="913" y="829" on="0"/>
        <pt x="809" y="771" on="0"/>
        <pt x="747" y="756" on="1"/>
        <pt x="907" y="726" on="0"/>
        <pt x="1071" y="539" on="0"/>
        <pt x="1071" y="398" on="1"/>
        <pt x="1071" y="309" on="0"/>
        <pt x="999" y="157" on="0"/>
        <pt x="874" y="46" on="0"/>
        <pt x="704" y="-16" on="0"/>
        <pt x="605" y="-16" on="1"/>
        <pt x="481" y="-16" on="0"/>
        <pt x="316" y="50" on="0"/>
        <pt x="210" y="157" on="0"/>
        <pt x="150" y="289" on="0"/>
        <pt x="132" y="354" on="1"/>
        <pt x="171" y="371" on="1"/>
        <pt x="183" y="376" on="0"/>
        <pt x="194" y="376" on="1"/>
        <pt x="206" y="376" on="0"/>
        <pt x="226" y="366" on="0"/>
        <pt x="231" y="351" on="1"/>
        <pt x="238" y="331" on="1"/>
        <pt x="245" y="312" on="0"/>
        <pt x="267" y="258" on="0"/>
        <pt x="303" y="200" on="0"/>
        <pt x="356" y="141" on="0"/>
        <pt x="433" y="95" on="0"/>
        <pt x="536" y="67" on="0"/>
        <pt x="604" y="67" on="1"/>
        <pt x="696" y="67" on="0"/>
        <pt x="834" y="128" on="0"/>
        <pt x="928" y="223" on="0"/>
        <pt x="974" y="341" on="0"/>
        <pt x="974" y="396" on="1"/>
        <pt x="974" y="463" on="0"/>
        <pt x="932" y="578" on="0"/>
        <pt x="833" y="660" on="0"/>
        <pt x="673" y="709" on="0"/>
        <pt x="555" y="709" on="1"/>
        <pt x="555" y="779" on="1"/>
        <pt x="649" y="781" on="0"/>
        <pt x="792" y="827" on="0"/>
        <pt x="889" y="907" on="0"/>
        <pt x="938" y="1018" on="0"/>
        <pt x="938" y="1084" on="1"/>
        <pt x="938" y="1161" on="0"/>
        <pt x="887" y="1274" on="0"/>
        <pt x="801" y="1348" on="0"/>
        <pt x="686" y="1382" on="0"/>
        <pt x="624" y="1382" on="1"/>
        <pt x="555" y="1382" on="0"/>
        <pt x="440" y="1341" on="0"/>
        <pt x="352" y="1268" on="0"/>
        <pt x="293" y="1164" on="0"/>
        <pt x="278" y="1101" on="1"/>
        <pt x="270" y="1065" on="0"/>
        <pt x="241" y="1065" on="1"/>
        <pt x="233" y="1065" on="0"/>
        <pt x="229" y="1066" on="1"/>
        <pt x="179" y="1074" on="1"/>
        <pt x="192" y="1167" on="0"/>
        <pt x="268" y="1313" on="0"/>
        <pt x="385" y="1413" on="0"/>
        <pt x="539" y="1465" on="0"/>
      </contour>
    </TTGlyph>
    <TTGlyph name="two" xMin="132" yMin="0" xMax="1067" yMax="1465">
      <contour>
        <pt x="616" y="1465" on="1"/>
        <pt x="699" y="1465" on="0"/>
        <pt x="850" y="1417" on="0"/>
        <pt x="965" y="1320" on="0"/>
        <pt x="1032" y="1174" on="0"/>
        <pt x="1032" y="1075" on="1"/>
        <pt x="1032" y="993" on="0"/>
        <pt x="982" y="853" on="0"/>
        <pt x="896" y="724" on="0"/>
        <pt x="782" y="602" on="0"/>
        <pt x="720" y="539" on="1"/>
        <pt x="266" y="76" on="1"/>
        <pt x="299" y="84" on="0"/>
        <pt x="370" y="92" on="0"/>
        <pt x="405" y="92" on="1"/>
        <pt x="1031" y="92" on="1"/>
        <pt x="1047" y="92" on="0"/>
        <pt x="1067" y="73" on="0"/>
        <pt x="1067" y="57" on="1"/>
        <pt x="1067" y="0" on="1"/>
        <pt x="132" y="0" on="1"/>
        <pt x="132" y="35" on="1"/>
        <pt x="132" y="46" on="0"/>
        <pt x="143" y="70" on="0"/>
        <pt x="151" y="78" on="1"/>
        <pt x="646" y="579" on="1"/>
        <pt x="707" y="641" on="0"/>
        <pt x="812" y="758" on="0"/>
        <pt x="889" y="877" on="0"/>
        <pt x="933" y="1001" on="0"/>
        <pt x="933" y="1072" on="1"/>
        <pt x="933" y="1152" on="0"/>
        <pt x="880" y="1270" on="0"/>
        <pt x="790" y="1346" on="0"/>
        <pt x="675" y="1382" on="0"/>
        <pt x="611" y="1382" on="1"/>
        <pt x="543" y="1382" on="0"/>
        <pt x="427" y="1340" on="0"/>
        <pt x="338" y="1266" on="0"/>
        <pt x="279" y="1162" on="0"/>
        <pt x="268" y="1101" on="1"/>
        <pt x="258" y="1065" on="0"/>
        <pt x="227" y="1065" on="1"/>
        <pt x="225" y="1065" on="0"/>
        <pt x="219" y="1066" on="0"/>
        <pt x="217" y="1066" on="1"/>
        <pt x="168" y="1074" on="1"/>
        <pt x="180" y="1167" on="0"/>
        <pt x="257" y="1313" on="0"/>
        <pt x="374" y="1413" on="0"/>
        <pt x="527" y="1465" on="0"/>
      </contour>
    </TTGlyph>
    <TTGlyph name="uni00AD" xMin="102" yMin="566" xMax="578" yMax="649">
      <contour>
        <pt x="102" y="649" on="1"/>
        <pt x="578" y="649" on="1"/>
        <pt x="578" y="566" on="1"/>
        <pt x="102" y="566" on="1"/>
      </contour>
    </TTGlyph>
    <TTGlyph name="uni1780" xMin="250" yMin="0" xMax="1250" yMax="1500">
      <contour>
        <pt x="350" y="0" on="1"/>
        <pt x="250" y="0" on="1"/>
        <pt x="250" y="700" on="1"/>
        <pt x="250" y="1200" on="0"/>
        <pt x="750" y="1200" on="1"/>
        <pt x="1250" y="1200" on="0"/>
        <pt x="1250" y="700" on="1"/>
        <pt x="1250" y="0" on="1"/>
        <pt x="1150" y="0" on="1"/>
        <pt x="1150" y="700" on="1"/>
        <pt x="1150" y="1100" on="0"/>
        <pt x="750" y="1100" on="1"/>
        <pt x="350" y="1100" on="0"/>
        <pt x="350" y="700" on="1"/>
      </contour>
      <contour>
        <pt x="1250" y="1500" on="1"/>
        <pt x="1250" y="1400" on="1"/>
        <pt x="250" y="1400" on="1"/>
        <pt x="250" y="1500" on="1"/>
      </contour>
    </TTGlyph>
    <TTGlyph name="uni1781" xMin="250" yMin="0" xMax="1250" yMax="1500">
      <contour>
        <pt x="250" y="560" on="1"/>
        <pt x="1150" y="750" on="0"/>
        <pt x="1150" y="1100" on="1"/>
        <pt x="1150" y="1400" on="0"/>
        <pt x="750" y="1400" on="1"/>
        <pt x="350" y="1400" on="0"/>
        <pt x="350" y="1100" on="1"/>
        <pt x="350" y="929" on="0"/>
        <pt x="444" y="929" on="1"/>
        <pt x="489" y="929" on="0"/>
        <pt x="560" y="950" on="1"/>
        <pt x="560" y="850" on="1"/>
        <pt x="521" y="821" on="0"/>
        <pt x="458" y="821" on="1"/>
        <pt x="250" y="821" on="0"/>
        <pt x="250" y="1100" on="1"/>
        <pt x="250" y="1500" on="0"/>
        <pt x="750" y="1500" on="1"/>
        <pt x="1250" y="1500" on="0"/>
        <pt x="1250" y="1100" on="1"/>
        <pt x="1250" y="680" on="0"/>
        <pt x="350" y="500" on="1"/>
        <pt x="350" y="400" on="1"/>
        <pt x="350" y="100" on="0"/>
        <pt x="750" y="100" on="1"/>
        <pt x="1150" y="100" on="0"/>
        <pt x="1150" y="400" on="1"/>
        <pt x="1150" y="550" on="0"/>
        <pt x="1010" y="630" on="1"/>
        <pt x="1090" y="690" on="1"/>
        <pt x="1250" y="600" on="0"/>
        <pt x="1250" y="400" on="1"/>
        <pt x="1250" y="0" on="0"/>
        <pt x="750" y="0" on="1"/>
        <pt x="250" y="0" on="0"/>
        <pt x="250" y="400" on="1"/>
      </contour>
    </TTGlyph>
    <TTGlyph name="uni1782" xMin="250" yMin="0" xMax="1250" yMax="1500">
      <contour>
        <pt x="1250" y="1500" on="1"/>
        <pt x="1250" y="1400" on="1"/>
        <pt x="250" y="1400" on="1"/>
        <pt x="250" y="1500" on="1"/>
      </contour>
      <contour>
        <pt x="350" y="300" on="1"/>
        <pt x="495" y="500" on="0"/>
        <pt x="660" y="500" on="1"/>
        <pt x="750" y="500" on="1"/>
        <pt x="750" y="390" on="1"/>
        <pt x="660" y="390" on="1"/>
        <pt x="495" y="390" on="0"/>
        <pt x="350" y="190" on="1"/>
        <pt x="350" y="0" on="1"/>
        <pt x="250" y="0" on="1"/>
        <pt x="250" y="700" on="1"/>
        <pt x="250" y="1200" on="0"/>
        <pt x="750" y="1200" on="1"/>
        <pt x="1250" y="1200" on="0"/>
        <pt x="1250" y="700" on="1"/>
        <pt x="1250" y="0" on="1"/>
        <pt x="1150" y="0" on="1"/>
        <pt x="1150" y="700" on="1"/>
        <pt x="1150" y="1100" on="0"/>
        <pt x="750" y="1100" on="1"/>
        <pt x="350" y="1100" on="0"/>
        <pt x="350" y="700" on="1"/>
      </contour>
    </TTGlyph>
    <TTGlyph name="uni1783" xMin="100" yMin="0" xMax="2000" yMax="1500">
      <contour>
        <pt x="225" y="1400" on="1"/>
        <pt x="214" y="1400" on="0"/>
        <pt x="200" y="1381" on="0"/>
        <pt x="200" y="1275" on="1"/>
        <pt x="200" y="1169" on="0"/>
        <pt x="214" y="1150" on="0"/>
        <pt x="225" y="1150" on="1"/>
        <pt x="236" y="1150" on="0"/>
        <pt x="250" y="1169" on="0"/>
        <pt x="250" y="1275" on="1"/>
        <pt x="250" y="1381" on="0"/>
        <pt x="236" y="1400" on="0"/>
      </contour>
      <contour>
        <pt x="1850" y="1100" on="1"/>
        <pt x="1850" y="1170" on="0"/>
        <pt x="1700" y="1250" on="1"/>
        <pt x="1700" y="1350" on="1"/>
        <pt x="1700" y="1500" on="0"/>
        <pt x="1850" y="1500" on="1"/>
        <pt x="2000" y="1500" on="1"/>
        <pt x="2000" y="1400" on="1"/>
        <pt x="1850" y="1400" on="1"/>
        <pt x="1800" y="1400" on="0"/>
        <pt x="1800" y="1350" on="1"/>
        <pt x="1800" y="1300" on="1"/>
        <pt x="1950" y="1220" on="0"/>
        <pt x="1950" y="1100" on="1"/>
        <pt x="1950" y="500" on="1"/>
        <pt x="1950" y="0" on="0"/>
        <pt x="1500" y="0" on="1"/>
        <pt x="1200" y="0" on="0"/>
        <pt x="1100" y="222" on="1"/>
        <pt x="1000" y="0" on="0"/>
        <pt x="700" y="0" on="1"/>
        <pt x="250" y="0" on="0"/>
        <pt x="250" y="500" on="1"/>
        <pt x="250" y="1052" on="1"/>
        <pt x="238" y="1050" on="0"/>
        <pt x="225" y="1050" on="1"/>
        <pt x="167" y="1050" on="0"/>
        <pt x="100" y="1147" on="0"/>
        <pt x="100" y="1275" on="1"/>
        <pt x="100" y="1403" on="0"/>
        <pt x="167" y="1500" on="0"/>
        <pt x="225" y="1500" on="1"/>
        <pt x="283" y="1500" on="0"/>
        <pt x="350" y="1403" on="0"/>
        <pt x="350" y="1275" on="1"/>
        <pt x="350" y="500" on="1"/>
        <pt x="350" y="100" on="0"/>
        <pt x="700" y="100" on="1"/>
        <pt x="1050" y="100" on="0"/>
        <pt x="1050" y="500" on="1"/>
        <pt x="1050" y="1100" on="1"/>
        <pt x="1050" y="1170" on="0"/>
        <pt x="900" y="1250" on="1"/>
        <pt x="900" y="1350" on="1"/>
        <pt x="900" y="1500" on="0"/>
        <pt x="1050" y="1500" on="1"/>
        <pt x="1200" y="1500" on="1"/>
        <pt x="1200" y="1400" on="1"/>
        <pt x="1050" y="1400" on="1"/>
        <pt x="1000" y="1400" on="0"/>
        <pt x="1000" y="1350" on="1"/>
        <pt x="1000" y="1300" on="1"/>
        <pt x="1150" y="1220" on="0"/>
        <pt x="1150" y="1100" on="1"/>
        <pt x="1150" y="500" on="1"/>
        <pt x="1150" y="100" on="0"/>
        <pt x="1500" y="100" on="1"/>
        <pt x="1850" y="100" on="0"/>
        <pt x="1850" y="500" on="1"/>
      </contour>
    </TTGlyph>
    <TTGlyph name="uni1784" xMin="100" yMin="0" xMax="1250" yMax="1800">
      <contour>
        <pt x="225" y="900" on="1"/>
        <pt x="214" y="900" on="0"/>
        <pt x="200" y="881" on="0"/>
        <pt x="200" y="775" on="1"/>
        <pt x="200" y="669" on="0"/>
        <pt x="214" y="650" on="0"/>
        <pt x="225" y="650" on="1"/>
        <pt x="236" y="650" on="0"/>
        <pt x="250" y="669" on="0"/>
        <pt x="250" y="775" on="1"/>
        <pt x="250" y="881" on="0"/>
        <pt x="236" y="900" on="0"/>
      </contour>
      <contour>
        <pt x="1040" y="1340" on="1"/>
        <pt x="1040" y="1400" on="0"/>
        <pt x="960" y="1400" on="1"/>
        <pt x="880" y="1400" on="0"/>
        <pt x="880" y="1340" on="1"/>
        <pt x="880" y="1286" on="0"/>
        <pt x="960" y="1232" on="1"/>
        <pt x="1040" y="1273" on="0"/>
      </contour>
      <contour>
        <pt x="1150" y="900" on="1"/>
        <pt x="1150" y="1008" on="0"/>
        <pt x="968" y="1129" on="1"/>
        <pt x="836" y="1050" on="0"/>
        <pt x="640" y="1050" on="1"/>
        <pt x="422" y="1050" on="0"/>
        <pt x="250" y="1164" on="0"/>
        <pt x="250" y="1280" on="1"/>
        <pt x="250" y="1365" on="0"/>
        <pt x="330" y="1540" on="0"/>
        <pt x="330" y="1610" on="1"/>
        <pt x="330" y="1700" on="0"/>
        <pt x="200" y="1700" on="1"/>
        <pt x="200" y="1800" on="1"/>
        <pt x="430" y="1800" on="0"/>
        <pt x="430" y="1610" on="1"/>
        <pt x="430" y="1535" on="0"/>
        <pt x="350" y="1350" on="0"/>
        <pt x="350" y="1280" on="1"/>
        <pt x="350" y="1221" on="0"/>
        <pt x="450" y="1150" on="0"/>
        <pt x="640" y="1150" on="1"/>
        <pt x="804" y="1150" on="0"/>
        <pt x="870" y="1193" on="1"/>
        <pt x="780" y="1244" on="0"/>
        <pt x="780" y="1330" on="1"/>
        <pt x="780" y="1500" on="0"/>
        <pt x="960" y="1500" on="1"/>
        <pt x="1150" y="1500" on="0"/>
        <pt x="1150" y="1330" on="1"/>
        <pt x="1150" y="1243" on="0"/>
        <pt x="1062" y="1172" on="1"/>
        <pt x="1250" y="1053" on="0"/>
        <pt x="1250" y="900" on="1"/>
        <pt x="1250" y="0" on="1"/>
        <pt x="1100" y="0" on="1"/>
        <pt x="750" y="300" on="1"/>
        <pt x="400" y="0" on="1"/>
        <pt x="250" y="0" on="1"/>
        <pt x="250" y="552" on="1"/>
        <pt x="238" y="550" on="0"/>
        <pt x="225" y="550" on="1"/>
        <pt x="167" y="550" on="0"/>
        <pt x="100" y="647" on="0"/>
        <pt x="100" y="775" on="1"/>
        <pt x="100" y="903" on="0"/>
        <pt x="167" y="1000" on="0"/>
        <pt x="225" y="1000" on="1"/>
        <pt x="283" y="1000" on="0"/>
        <pt x="350" y="903" on="0"/>
        <pt x="350" y="775" on="1"/>
        <pt x="350" y="100" on="1"/>
        <pt x="750" y="450" on="1"/>
        <pt x="1150" y="100" on="1"/>
      </contour>
    </TTGlyph>
    <TTGlyph name="uni1785" xMin="200" yMin="0" xMax="1250" yMax="1500">
      <contour>
        <pt x="1100" y="1000" on="1"/>
        <pt x="1079" y="1000" on="0"/>
        <pt x="1050" y="961" on="0"/>
        <pt x="1050" y="925" on="1"/>
        <pt x="1050" y="889" on="0"/>
        <pt x="1079" y="850" on="0"/>
        <pt x="1100" y="850" on="1"/>
        <pt x="1121" y="850" on="0"/>
        <pt x="1150" y="889" on="0"/>
        <pt x="1150" y="925" on="1"/>
        <pt x="1150" y="961" on="0"/>
        <pt x="1121" y="1000" on="0"/>
      </contour>
      <contour>
        <pt x="250" y="1100" on="1"/>
        <pt x="250" y="1170" on="0"/>
        <pt x="200" y="1250" on="1"/>
        <pt x="200" y="1300" on="1"/>
        <pt x="200" y="1500" on="0"/>
        <pt x="400" y="1500" on="1"/>
        <pt x="1250" y="1500" on="1"/>
        <pt x="1250" y="1400" on="1"/>
        <pt x="400" y="1400" on="1"/>
        <pt x="300" y="1400" on="0"/>
        <pt x="300" y="1300" on="1"/>
        <pt x="300" y="1290" on="1"/>
        <pt x="350" y="1210" on="0"/>
        <pt x="350" y="1100" on="1"/>
        <pt x="350" y="500" on="1"/>
        <pt x="350" y="100" on="0"/>
        <pt x="750" y="100" on="1"/>
        <pt x="1150" y="100" on="0"/>
        <pt x="1150" y="500" on="1"/>
        <pt x="1150" y="757" on="1"/>
        <pt x="1127" y="750" on="0"/>
        <pt x="1100" y="750" on="1"/>
        <pt x="1027" y="750" on="0"/>
        <pt x="950" y="847" on="0"/>
        <pt x="950" y="925" on="1"/>
        <pt x="950" y="1003" on="0"/>
        <pt x="1027" y="1100" on="0"/>
        <pt x="1100" y="1100" on="1"/>
        <pt x="1173" y="1100" on="0"/>
        <pt x="1250" y="1003" on="0"/>
        <pt x="1250" y="925" on="1"/>
        <pt x="1250" y="500" on="1"/>
        <pt x="1250" y="0" on="0"/>
        <pt x="750" y="0" on="1"/>
        <pt x="250" y="0" on="0"/>
        <pt x="250" y="500" on="1"/>
      </contour>
    </TTGlyph>
    <TTGlyph name="uni1786" xMin="200" yMin="0" xMax="1250" yMax="1500">
      <contour>
        <pt x="1100" y="1000" on="1"/>
        <pt x="1079" y="1000" on="0"/>
        <pt x="1050" y="961" on="0"/>
        <pt x="1050" y="925" on="1"/>
        <pt x="1050" y="889" on="0"/>
        <pt x="1079" y="850" on="0"/>
        <pt x="1100" y="850" on="1"/>
        <pt x="1121" y="850" on="0"/>
        <pt x="1150" y="889" on="0"/>
        <pt x="1150" y="925" on="1"/>
        <pt x="1150" y="961" on="0"/>
        <pt x="1121" y="1000" on="0"/>
      </contour>
      <contour>
        <pt x="350" y="397" on="1"/>
        <pt x="384" y="450" on="0"/>
        <pt x="495" y="450" on="1"/>
        <pt x="725" y="450" on="0"/>
        <pt x="725" y="200" on="1"/>
        <pt x="725" y="100" on="0"/>
        <pt x="950" y="100" on="1"/>
        <pt x="1150" y="100" on="0"/>
        <pt x="1150" y="250" on="1"/>
        <pt x="1150" y="757" on="1"/>
        <pt x="1127" y="750" on="0"/>
        <pt x="1100" y="750" on="1"/>
        <pt x="1027" y="750" on="0"/>
        <pt x="950" y="847" on="0"/>
        <pt x="950" y="925" on="1"/>
        <pt x="950" y="1003" on="0"/>
        <pt x="1027" y="1100" on="0"/>
        <pt x="1100" y="1100" on="1"/>
        <pt x="1173" y="1100" on="0"/>
        <pt x="1250" y="1003" on="0"/>
        <pt x="1250" y="925" on="1"/>
        <pt x="1250" y="250" on="1"/>
        <pt x="1250" y="0" on="0"/>
        <pt x="950" y="0" on="1"/>
        <pt x="625" y="0" on="0"/>
        <pt x="625" y="250" on="1"/>
        <pt x="625" y="350" on="0"/>
        <pt x="500" y="350" on="1"/>
        <pt x="350" y="350" on="0"/>
        <pt x="350" y="260" on="1"/>
        <pt x="350" y="0" on="1"/>
        <pt x="250" y="0" on="1"/>
        <pt x="250" y="1100" on="1"/>
        <pt x="250" y="1170" on="0"/>
        <pt x="200" y="1250" on="1"/>
        <pt x="200" y="1300" on="1"/>
        <pt x="200" y="1500" on="0"/>
        <pt x="400" y="1500" on="1"/>
        <pt x="1250" y="1500" on="1"/>
        <pt x="1250" y="1400" on="1"/>
        <pt x="400" y="1400" on="1"/>
        <pt x="300" y="1400" on="0"/>
        <pt x="300" y="1300" on="1"/>
        <pt x="300" y="1290" on="1"/>
        <pt x="350" y="1210" on="0"/>
        <pt x="350" y="1100" on="1"/>
      </contour>
    </TTGlyph>
    <TTGlyph name="uni1787" xMin="200" yMin="0" xMax="1250" yMax="1650">
      <contour>
        <pt x="250" y="1100" on="1"/>
        <pt x="250" y="1170" on="0"/>
        <pt x="200" y="1250" on="1"/>
        <pt x="200" y="1300" on="1"/>
        <pt x="200" y="1500" on="0"/>
        <pt x="400" y="1500" on="1"/>
        <pt x="700" y="1500" on="1"/>
        <pt x="930" y="1350" on="1"/>
        <pt x="1080" y="1350" on="1"/>
        <pt x="1150" y="1350" on="0"/>
        <pt x="1150" y="1420" on="1"/>
        <pt x="1150" y="1650" on="1"/>
        <pt x="1250" y="1650" on="1"/>
        <pt x="1250" y="1420" on="1"/>
        <pt x="1250" y="1250" on="0"/>
        <pt x="1080" y="1250" on="1"/>
        <pt x="900" y="1250" on="1"/>
        <pt x="670" y="1400" on="1"/>
        <pt x="400" y="1400" on="1"/>
        <pt x="300" y="1400" on="0"/>
        <pt x="300" y="1300" on="1"/>
        <pt x="300" y="1290" on="1"/>
        <pt x="350" y="1210" on="0"/>
        <pt x="350" y="1100" on="1"/>
        <pt x="350" y="100" on="1"/>
        <pt x="750" y="450" on="1"/>
        <pt x="1150" y="100" on="1"/>
        <pt x="1150" y="1100" on="1"/>
        <pt x="1250" y="1100" on="1"/>
        <pt x="1250" y="0" on="1"/>
        <pt x="1100" y="0" on="1"/>
        <pt x="750" y="300" on="1"/>
        <pt x="400" y="0" on="1"/>
        <pt x="250" y="0" on="1"/>
      </contour>
    </TTGlyph>
    <TTGlyph name="uni1788" xMin="250" yMin="0" xMax="2500" yMax="1500">
      <contour>
        <pt x="400" y="350" on="1"/>
        <pt x="379" y="350" on="0"/>
        <pt x="350" y="311" on="0"/>
        <pt x="350" y="225" on="1"/>
        <pt x="350" y="139" on="0"/>
        <pt x="379" y="100" on="0"/>
        <pt x="400" y="100" on="1"/>
        <pt x="421" y="100" on="0"/>
        <pt x="450" y="139" on="0"/>
        <pt x="450" y="225" on="1"/>
        <pt x="450" y="311" on="0"/>
        <pt x="421" y="350" on="0"/>
      </contour>
      <contour>
        <pt x="2350" y="1100" on="1"/>
        <pt x="2350" y="1170" on="0"/>
        <pt x="2200" y="1250" on="1"/>
        <pt x="2200" y="1350" on="1"/>
        <pt x="2200" y="1500" on="0"/>
        <pt x="2350" y="1500" on="1"/>
        <pt x="2500" y="1500" on="1"/>
        <pt x="2500" y="1400" on="1"/>
        <pt x="2350" y="1400" on="1"/>
        <pt x="2300" y="1400" on="0"/>
        <pt x="2300" y="1350" on="1"/>
        <pt x="2300" y="1300" on="1"/>
        <pt x="2450" y="1220" on="0"/>
        <pt x="2450" y="1100" on="1"/>
        <pt x="2450" y="500" on="1"/>
        <pt x="2450" y="0" on="0"/>
        <pt x="2050" y="0" on="1"/>
        <pt x="1800" y="0" on="0"/>
        <pt x="1700" y="222" on="1"/>
        <pt x="1600" y="0" on="0"/>
        <pt x="1350" y="0" on="1"/>
        <pt x="950" y="0" on="0"/>
        <pt x="950" y="500" on="1"/>
        <pt x="950" y="1000" on="1"/>
        <pt x="950" y="1400" on="0"/>
        <pt x="650" y="1400" on="1"/>
        <pt x="350" y="1400" on="0"/>
        <pt x="350" y="1000" on="1"/>
        <pt x="350" y="440" on="1"/>
        <pt x="373" y="450" on="0"/>
        <pt x="400" y="450" on="1"/>
        <pt x="463" y="450" on="0"/>
        <pt x="550" y="343" on="0"/>
        <pt x="550" y="225" on="1"/>
        <pt x="550" y="107" on="0"/>
        <pt x="463" y="0" on="0"/>
        <pt x="400" y="0" on="1"/>
        <pt x="337" y="0" on="0"/>
        <pt x="294" y="54" on="1"/>
        <pt x="260" y="95" on="0"/>
        <pt x="252" y="175" on="1"/>
        <pt x="250" y="175" on="1"/>
        <pt x="250" y="1000" on="1"/>
        <pt x="250" y="1500" on="0"/>
        <pt x="650" y="1500" on="1"/>
        <pt x="1050" y="1500" on="0"/>
        <pt x="1050" y="1000" on="1"/>
        <pt x="1050" y="500" on="1"/>
        <pt x="1050" y="100" on="0"/>
        <pt x="1350" y="100" on="1"/>
        <pt x="1650" y="100" on="0"/>
        <pt x="1650" y="500" on="1"/>
        <pt x="1650" y="1100" on="1"/>
        <pt x="1650" y="1170" on="0"/>
        <pt x="1500" y="1250" on="1"/>
        <pt x="1500" y="1350" on="1"/>
        <pt x="1500" y="1500" on="0"/>
        <pt x="1650" y="1500" on="1"/>
        <pt x="1800" y="1500" on="1"/>
        <pt x="1800" y="1400" on="1"/>
        <pt x="1650" y="1400" on="1"/>
        <pt x="1600" y="1400" on="0"/>
        <pt x="1600" y="1350" on="1"/>
        <pt x="1600" y="1300" on="1"/>
        <pt x="1750" y="1220" on="0"/>
        <pt x="1750" y="1100" on="1"/>
        <pt x="1750" y="500" on="1"/>
        <pt x="1750" y="100" on="0"/>
        <pt x="2050" y="100" on="1"/>
        <pt x="2350" y="100" on="0"/>
        <pt x="2350" y="500" on="1"/>
      </contour>
    </TTGlyph>
    <TTGlyph name="uni1789" xMin="250" yMin="-450" xMax="1950" yMax="1500">
      <contour>
        <pt x="1776" y="-208" on="1"/>
        <pt x="1731" y="-208" on="0"/>
        <pt x="1700" y="-229" on="1"/>
        <pt x="1640" y="-209" on="0"/>
        <pt x="1640" y="-159" on="1"/>
        <pt x="1640" y="-100" on="0"/>
        <pt x="1762" y="-100" on="1"/>
        <pt x="1950" y="-100" on="0"/>
        <pt x="1950" y="-250" on="1"/>
        <pt x="1950" y="-450" on="0"/>
        <pt x="1200" y="-450" on="1"/>
        <pt x="800" y="-450" on="0"/>
        <pt x="450" y="-200" on="0"/>
        <pt x="250" y="-200" on="1"/>
        <pt x="250" y="-100" on="1"/>
        <pt x="500" y="-100" on="0"/>
        <pt x="850" y="-350" on="0"/>
        <pt x="1200" y="-350" on="1"/>
        <pt x="1550" y="-350" on="0"/>
        <pt x="1850" y="-280" on="0"/>
        <pt x="1850" y="-234" on="1"/>
        <pt x="1850" y="-208" on="0"/>
      </contour>
      <contour>
        <pt x="400" y="350" on="1"/>
        <pt x="379" y="350" on="0"/>
        <pt x="350" y="311" on="0"/>
        <pt x="350" y="225" on="1"/>
        <pt x="350" y="139" on="0"/>
        <pt x="379" y="100" on="0"/>
        <pt x="400" y="100" on="1"/>
        <pt x="421" y="100" on="0"/>
        <pt x="450" y="139" on="0"/>
        <pt x="450" y="225" on="1"/>
        <pt x="450" y="311" on="0"/>
        <pt x="421" y="350" on="0"/>
      </contour>
      <contour>
        <pt x="350" y="1160" on="1"/>
        <pt x="350" y="440" on="1"/>
        <pt x="373" y="450" on="0"/>
        <pt x="400" y="450" on="1"/>
        <pt x="463" y="450" on="0"/>
        <pt x="550" y="343" on="0"/>
        <pt x="550" y="225" on="1"/>
        <pt x="550" y="107" on="0"/>
        <pt x="463" y="0" on="0"/>
        <pt x="400" y="0" on="1"/>
        <pt x="337" y="0" on="0"/>
        <pt x="294" y="54" on="1"/>
        <pt x="260" y="95" on="0"/>
        <pt x="252" y="175" on="1"/>
        <pt x="250" y="175" on="1"/>
        <pt x="250" y="1200" on="1"/>
        <pt x="510" y="1500" on="1"/>
        <pt x="750" y="1300" on="1"/>
        <pt x="990" y="1500" on="1"/>
        <pt x="1250" y="1200" on="1"/>
        <pt x="1250" y="0" on="1"/>
        <pt x="1150" y="0" on="1"/>
        <pt x="1150" y="1160" on="1"/>
        <pt x="980" y="1355" on="1"/>
        <pt x="750" y="1170" on="1"/>
        <pt x="520" y="1355" on="1"/>
      </contour>
      <contour>
        <pt x="1210" y="1285" on="1"/>
        <pt x="1485" y="1500" on="1"/>
        <pt x="1550" y="1500" on="1"/>
        <pt x="1950" y="1500" on="0"/>
        <pt x="1950" y="1100" on="1"/>
        <pt x="1950" y="0" on="1"/>
        <pt x="1850" y="0" on="1"/>
        <pt x="1850" y="1100" on="1"/>
        <pt x="1850" y="1400" on="0"/>
        <pt x="1550" y="1400" on="1"/>
        <pt x="1510" y="1400" on="1"/>
        <pt x="1270" y="1220" on="1"/>
      </contour>
    </TTGlyph>
    <TTGlyph name="uni1789.a" xMin="250" yMin="0" xMax="1950" yMax="1500">
      <contour>
        <pt x="400" y="350" on="1"/>
        <pt x="379" y="350" on="0"/>
        <pt x="350" y="311" on="0"/>
        <pt x="350" y="225" on="1"/>
        <pt x="350" y="139" on="0"/>
        <pt x="379" y="100" on="0"/>
        <pt x="400" y="100" on="1"/>
        <pt x="421" y="100" on="0"/>
        <pt x="450" y="139" on="0"/>
        <pt x="450" y="225" on="1"/>
        <pt x="450" y="311" on="0"/>
        <pt x="421" y="350" on="0"/>
      </contour>
      <contour>
        <pt x="350" y="1160" on="1"/>
        <pt x="350" y="440" on="1"/>
        <pt x="373" y="450" on="0"/>
        <pt x="400" y="450" on="1"/>
        <pt x="463" y="450" on="0"/>
        <pt x="550" y="343" on="0"/>
        <pt x="550" y="225" on="1"/>
        <pt x="550" y="107" on="0"/>
        <pt x="463" y="0" on="0"/>
        <pt x="400" y="0" on="1"/>
        <pt x="337" y="0" on="0"/>
        <pt x="294" y="54" on="1"/>
        <pt x="260" y="95" on="0"/>
        <pt x="252" y="175" on="1"/>
        <pt x="250" y="175" on="1"/>
        <pt x="250" y="1200" on="1"/>
        <pt x="510" y="1500" on="1"/>
        <pt x="750" y="1300" on="1"/>
        <pt x="990" y="1500" on="1"/>
        <pt x="1250" y="1200" on="1"/>
        <pt x="1250" y="0" on="1"/>
        <pt x="1150" y="0" on="1"/>
        <pt x="1150" y="1160" on="1"/>
        <pt x="980" y="1355" on="1"/>
        <pt x="750" y="1170" on="1"/>
        <pt x="520" y="1355" on="1"/>
      </contour>
      <contour>
        <pt x="1210" y="1285" on="1"/>
        <pt x="1485" y="1500" on="1"/>
        <pt x="1550" y="1500" on="1"/>
        <pt x="1950" y="1500" on="0"/>
        <pt x="1950" y="1100" on="1"/>
        <pt x="1950" y="0" on="1"/>
        <pt x="1850" y="0" on="1"/>
        <pt x="1850" y="1100" on="1"/>
        <pt x="1850" y="1400" on="0"/>
        <pt x="1550" y="1400" on="1"/>
        <pt x="1510" y="1400" on="1"/>
        <pt x="1270" y="1220" on="1"/>
      </contour>
    </TTGlyph>
    <TTGlyph name="uni178917C917B617C6" xMin="250" yMin="-1200" xMax="2650" yMax="2250">
      <contour>
        <pt x="1776" y="-208" on="1"/>
        <pt x="1731" y="-208" on="0"/>
        <pt x="1700" y="-229" on="1"/>
        <pt x="1640" y="-209" on="0"/>
        <pt x="1640" y="-159" on="1"/>
        <pt x="1640" y="-100" on="0"/>
        <pt x="1762" y="-100" on="1"/>
        <pt x="1950" y="-100" on="0"/>
        <pt x="1950" y="-250" on="1"/>
        <pt x="1950" y="-450" on="0"/>
        <pt x="1200" y="-450" on="1"/>
        <pt x="800" y="-450" on="0"/>
        <pt x="450" y="-200" on="0"/>
        <pt x="250" y="-200" on="1"/>
        <pt x="250" y="-100" on="1"/>
        <pt x="500" y="-100" on="0"/>
        <pt x="850" y="-350" on="0"/>
        <pt x="1200" y="-350" on="1"/>
        <pt x="1550" y="-350" on="0"/>
        <pt x="1850" y="-280" on="0"/>
        <pt x="1850" y="-234" on="1"/>
        <pt x="1850" y="-208" on="0"/>
      </contour>
      <contour>
        <pt x="400" y="350" on="1"/>
        <pt x="379" y="350" on="0"/>
        <pt x="350" y="311" on="0"/>
        <pt x="350" y="225" on="1"/>
        <pt x="350" y="139" on="0"/>
        <pt x="379" y="100" on="0"/>
        <pt x="400" y="100" on="1"/>
        <pt x="421" y="100" on="0"/>
        <pt x="450" y="139" on="0"/>
        <pt x="450" y="225" on="1"/>
        <pt x="450" y="311" on="0"/>
        <pt x="421" y="350" on="0"/>
      </contour>
      <contour>
        <pt x="350" y="1160" on="1"/>
        <pt x="350" y="440" on="1"/>
        <pt x="373" y="450" on="0"/>
        <pt x="400" y="450" on="1"/>
        <pt x="463" y="450" on="0"/>
        <pt x="550" y="343" on="0"/>
        <pt x="550" y="225" on="1"/>
        <pt x="550" y="107" on="0"/>
        <pt x="463" y="0" on="0"/>
        <pt x="400" y="0" on="1"/>
        <pt x="337" y="0" on="0"/>
        <pt x="294" y="54" on="1"/>
        <pt x="260" y="95" on="0"/>
        <pt x="252" y="175" on="1"/>
        <pt x="250" y="175" on="1"/>
        <pt x="250" y="1200" on="1"/>
        <pt x="510" y="1500" on="1"/>
        <pt x="750" y="1300" on="1"/>
        <pt x="990" y="1500" on="1"/>
        <pt x="1250" y="1200" on="1"/>
        <pt x="1250" y="0" on="1"/>
        <pt x="1150" y="0" on="1"/>
        <pt x="1150" y="1160" on="1"/>
        <pt x="980" y="1355" on="1"/>
        <pt x="750" y="1170" on="1"/>
        <pt x="520" y="1355" on="1"/>
      </contour>
      <contour>
        <pt x="1210" y="1285" on="1"/>
        <pt x="1485" y="1500" on="1"/>
        <pt x="1550" y="1500" on="1"/>
        <pt x="1950" y="1500" on="0"/>
        <pt x="1950" y="1100" on="1"/>
        <pt x="1950" y="0" on="1"/>
        <pt x="1850" y="0" on="1"/>
        <pt x="1850" y="1100" on="1"/>
        <pt x="1850" y="1400" on="0"/>
        <pt x="1550" y="1400" on="1"/>
        <pt x="1510" y="1400" on="1"/>
        <pt x="1270" y="1220" on="1"/>
      </contour>
      <contour>
        <pt x="1950" y="1500" on="1"/>
        <pt x="2250" y="1500" on="1"/>
        <pt x="2650" y="1500" on="0"/>
        <pt x="2650" y="1100" on="1"/>
        <pt x="2650" y="0" on="1"/>
        <pt x="2550" y="0" on="1"/>
        <pt x="2550" y="1100" on="1"/>
        <pt x="2550" y="1400" on="0"/>
        <pt x="2250" y="1400" on="1"/>
        <pt x="1950" y="1400" on="1"/>
      </contour>
      <contour>
        <pt x="2150" y="2025" on="1"/>
        <pt x="2150" y="1963" on="0"/>
        <pt x="2182" y="1932" on="1"/>
        <pt x="2213" y="1900" on="0"/>
        <pt x="2275" y="1900" on="1"/>
        <pt x="2338" y="1900" on="0"/>
        <pt x="2370" y="1932" on="1"/>
        <pt x="2400" y="1963" on="0"/>
        <pt x="2400" y="2025" on="1"/>
        <pt x="2400" y="2088" on="0"/>
        <pt x="2370" y="2118" on="1"/>
        <pt x="2338" y="2150" on="0"/>
        <pt x="2275" y="2150" on="1"/>
        <pt x="2213" y="2150" on="0"/>
        <pt x="2182" y="2118" on="1"/>
        <pt x="2150" y="2088" on="0"/>
      </contour>
      <contour>
        <pt x="2500" y="2025" on="1"/>
        <pt x="2500" y="1912" on="0"/>
        <pt x="2444" y="1856" on="1"/>
        <pt x="2388" y="1800" on="0"/>
        <pt x="2275" y="1800" on="1"/>
        <pt x="2162" y="1800" on="0"/>
        <pt x="2106" y="1856" on="1"/>
        <pt x="2050" y="1912" on="0"/>
        <pt x="2050" y="2025" on="1"/>
        <pt x="2050" y="2138" on="0"/>
        <pt x="2106" y="2194" on="1"/>
        <pt x="2162" y="2250" on="0"/>
        <pt x="2275" y="2250" on="1"/>
        <pt x="2388" y="2250" on="0"/>
        <pt x="2444" y="2194" on="1"/>
        <pt x="2500" y="2138" on="0"/>
      </contour>
      <contour>
        <pt x="1950" y="-700" on="1"/>
        <pt x="1950" y="-1200" on="1"/>
        <pt x="1850" y="-1200" on="1"/>
        <pt x="1850" y="-700" on="1"/>
      </contour>
    </TTGlyph>
    <TTGlyph name="uni178A" xMin="250" yMin="0" xMax="1250" yMax="1650">
      <contour>
        <pt x="250" y="1100" on="1"/>
        <pt x="350" y="1100" on="1"/>
        <pt x="350" y="100" on="1"/>
        <pt x="750" y="450" on="1"/>
        <pt x="1150" y="100" on="1"/>
        <pt x="1150" y="1100" on="1"/>
        <pt x="1250" y="1100" on="1"/>
        <pt x="1250" y="0" on="1"/>
        <pt x="1100" y="0" on="1"/>
        <pt x="750" y="300" on="1"/>
        <pt x="400" y="0" on="1"/>
        <pt x="250" y="0" on="1"/>
      </contour>
      <contour>
        <pt x="350" y="1340" on="1"/>
        <pt x="350" y="1250" on="0"/>
        <pt x="750" y="1250" on="1"/>
        <pt x="1150" y="1250" on="0"/>
        <pt x="1150" y="1500" on="1"/>
        <pt x="1150" y="1650" on="1"/>
        <pt x="1250" y="1650" on="1"/>
        <pt x="1250" y="1500" on="1"/>
        <pt x="1250" y="1150" on="0"/>
        <pt x="750" y="1150" on="1"/>
        <pt x="250" y="1150" on="0"/>
        <pt x="250" y="1340" on="1"/>
        <pt x="250" y="1500" on="0"/>
        <pt x="438" y="1500" on="1"/>
        <pt x="521" y="1500" on="0"/>
        <pt x="560" y="1471" on="1"/>
        <pt x="560" y="1371" on="1"/>
        <pt x="489" y="1392" on="0"/>
        <pt x="424" y="1392" on="1"/>
        <pt x="350" y="1392" on="0"/>
      </contour>
    </TTGlyph>
    <TTGlyph name="uni178B" xMin="100" yMin="0" xMax="1400" yMax="1650">
      <contour>
        <pt x="225" y="1400" on="1"/>
        <pt x="214" y="1400" on="0"/>
        <pt x="200" y="1381" on="0"/>
        <pt x="200" y="1275" on="1"/>
        <pt x="200" y="1169" on="0"/>
        <pt x="214" y="1150" on="0"/>
        <pt x="225" y="1150" on="1"/>
        <pt x="236" y="1150" on="0"/>
        <pt x="250" y="1169" on="0"/>
        <pt x="250" y="1275" on="1"/>
        <pt x="250" y="1381" on="0"/>
        <pt x="236" y="1400" on="0"/>
      </contour>
      <contour>
        <pt x="250" y="1052" on="1"/>
        <pt x="238" y="1050" on="0"/>
        <pt x="225" y="1050" on="1"/>
        <pt x="167" y="1050" on="0"/>
        <pt x="100" y="1147" on="0"/>
        <pt x="100" y="1275" on="1"/>
        <pt x="100" y="1403" on="0"/>
        <pt x="167" y="1500" on="0"/>
        <pt x="225" y="1500" on="1"/>
        <pt x="283" y="1500" on="0"/>
        <pt x="350" y="1403" on="0"/>
        <pt x="350" y="1275" on="1"/>
        <pt x="350" y="500" on="1"/>
        <pt x="350" y="100" on="0"/>
        <pt x="750" y="100" on="1"/>
        <pt x="1150" y="100" on="0"/>
        <pt x="1150" y="500" on="1"/>
        <pt x="1150" y="1100" on="1"/>
        <pt x="1150" y="1170" on="0"/>
        <pt x="1000" y="1250" on="1"/>
        <pt x="1000" y="1350" on="1"/>
        <pt x="1000" y="1500" on="0"/>
        <pt x="1150" y="1500" on="1"/>
        <pt x="1180" y="1500" on="1"/>
        <pt x="1260" y="1400" on="1"/>
        <pt x="1300" y="1400" on="0"/>
        <pt x="1300" y="1470" on="1"/>
        <pt x="1300" y="1650" on="1"/>
        <pt x="1400" y="1650" on="1"/>
        <pt x="1400" y="1470" on="1"/>
        <pt x="1400" y="1300" on="0"/>
        <pt x="1230" y="1300" on="1"/>
        <pt x="1150" y="1400" on="1"/>
        <pt x="1100" y="1400" on="0"/>
        <pt x="1100" y="1350" on="1"/>
        <pt x="1100" y="1300" on="1"/>
        <pt x="1250" y="1220" on="0"/>
        <pt x="1250" y="1100" on="1"/>
        <pt x="1250" y="500" on="1"/>
        <pt x="1250" y="0" on="0"/>
        <pt x="750" y="0" on="1"/>
        <pt x="250" y="0" on="0"/>
        <pt x="250" y="500" on="1"/>
      </contour>
    </TTGlyph>
    <TTGlyph name="uni178C" xMin="250" yMin="0" xMax="1250" yMax="1500">
      <contour>
        <pt x="350" y="1100" on="1"/>
        <pt x="350" y="929" on="0"/>
        <pt x="444" y="929" on="1"/>
        <pt x="489" y="929" on="0"/>
        <pt x="560" y="950" on="1"/>
        <pt x="560" y="850" on="1"/>
        <pt x="521" y="821" on="0"/>
        <pt x="458" y="821" on="1"/>
        <pt x="250" y="821" on="0"/>
        <pt x="250" y="1100" on="1"/>
        <pt x="250" y="1190" on="1"/>
        <pt x="510" y="1500" on="1"/>
        <pt x="750" y="1300" on="1"/>
        <pt x="990" y="1500" on="1"/>
        <pt x="1250" y="1190" on="1"/>
        <pt x="1250" y="1100" on="1"/>
        <pt x="1250" y="680" on="0"/>
        <pt x="350" y="500" on="1"/>
        <pt x="350" y="400" on="1"/>
        <pt x="350" y="100" on="0"/>
        <pt x="530" y="100" on="1"/>
        <pt x="686" y="100" on="0"/>
        <pt x="1150" y="400" on="1"/>
        <pt x="1150" y="600" on="1"/>
        <pt x="1250" y="600" on="1"/>
        <pt x="1250" y="0" on="1"/>
        <pt x="1150" y="0" on="1"/>
        <pt x="1150" y="300" on="1"/>
        <pt x="736" y="0" on="0"/>
        <pt x="530" y="0" on="1"/>
        <pt x="250" y="0" on="0"/>
        <pt x="250" y="400" on="1"/>
        <pt x="250" y="560" on="1"/>
        <pt x="1150" y="750" on="0"/>
        <pt x="1150" y="1100" on="1"/>
        <pt x="1150" y="1150" on="1"/>
        <pt x="980" y="1355" on="1"/>
        <pt x="750" y="1170" on="1"/>
        <pt x="520" y="1355" on="1"/>
        <pt x="350" y="1150" on="1"/>
      </contour>
    </TTGlyph>
    <TTGlyph name="uni178D" xMin="250" yMin="0" xMax="2000" yMax="1500">
      <contour>
        <pt x="400" y="350" on="1"/>
        <pt x="379" y="350" on="0"/>
        <pt x="350" y="311" on="0"/>
        <pt x="350" y="225" on="1"/>
        <pt x="350" y="139" on="0"/>
        <pt x="379" y="100" on="0"/>
        <pt x="400" y="100" on="1"/>
        <pt x="421" y="100" on="0"/>
        <pt x="450" y="139" on="0"/>
        <pt x="450" y="225" on="1"/>
        <pt x="450" y="311" on="0"/>
        <pt x="421" y="350" on="0"/>
      </contour>
      <contour>
        <pt x="1250" y="347" on="1"/>
        <pt x="1250" y="0" on="1"/>
        <pt x="1150" y="0" on="1"/>
        <pt x="1150" y="1150" on="1"/>
        <pt x="980" y="1355" on="1"/>
        <pt x="750" y="1170" on="1"/>
        <pt x="520" y="1355" on="1"/>
        <pt x="350" y="1150" on="1"/>
        <pt x="350" y="440" on="1"/>
        <pt x="373" y="450" on="0"/>
        <pt x="400" y="450" on="1"/>
        <pt x="463" y="450" on="0"/>
        <pt x="550" y="343" on="0"/>
        <pt x="550" y="225" on="1"/>
        <pt x="550" y="107" on="0"/>
        <pt x="463" y="0" on="0"/>
        <pt x="400" y="0" on="1"/>
        <pt x="337" y="0" on="0"/>
        <pt x="294" y="54" on="1"/>
        <pt x="260" y="95" on="0"/>
        <pt x="252" y="175" on="1"/>
        <pt x="250" y="175" on="1"/>
        <pt x="250" y="1190" on="1"/>
        <pt x="510" y="1500" on="1"/>
        <pt x="750" y="1300" on="1"/>
        <pt x="990" y="1500" on="1"/>
        <pt x="1250" y="1190" on="1"/>
        <pt x="1250" y="447" on="1"/>
        <pt x="1271" y="450" on="0"/>
        <pt x="1295" y="450" on="1"/>
        <pt x="1525" y="450" on="0"/>
        <pt x="1525" y="200" on="1"/>
        <pt x="1525" y="100" on="0"/>
        <pt x="1700" y="100" on="1"/>
        <pt x="1850" y="100" on="0"/>
        <pt x="1850" y="250" on="1"/>
        <pt x="1850" y="1100" on="1"/>
        <pt x="1850" y="1170" on="0"/>
        <pt x="1700" y="1250" on="1"/>
        <pt x="1700" y="1350" on="1"/>
        <pt x="1700" y="1500" on="0"/>
        <pt x="1850" y="1500" on="1"/>
        <pt x="2000" y="1500" on="1"/>
        <pt x="2000" y="1400" on="1"/>
        <pt x="1850" y="1400" on="1"/>
        <pt x="1800" y="1400" on="0"/>
        <pt x="1800" y="1350" on="1"/>
        <pt x="1800" y="1300" on="1"/>
        <pt x="1950" y="1220" on="0"/>
        <pt x="1950" y="1100" on="1"/>
        <pt x="1950" y="250" on="1"/>
        <pt x="1950" y="0" on="0"/>
        <pt x="1700" y="0" on="1"/>
        <pt x="1425" y="0" on="0"/>
        <pt x="1425" y="250" on="1"/>
        <pt x="1425" y="350" on="0"/>
        <pt x="1300" y="350" on="1"/>
        <pt x="1272" y="350" on="0"/>
      </contour>
    </TTGlyph>
    <TTGlyph name="uni178E" xMin="250" yMin="0" xMax="2450" yMax="1500">
      <contour>
        <pt x="400" y="350" on="1"/>
        <pt x="379" y="350" on="0"/>
        <pt x="350" y="311" on="0"/>
        <pt x="350" y="225" on="1"/>
        <pt x="350" y="139" on="0"/>
        <pt x="379" y="100" on="0"/>
        <pt x="400" y="100" on="1"/>
        <pt x="421" y="100" on="0"/>
        <pt x="450" y="139" on="0"/>
        <pt x="450" y="225" on="1"/>
        <pt x="450" y="311" on="0"/>
        <pt x="421" y="350" on="0"/>
      </contour>
      <contour>
        <pt x="950" y="1000" on="1"/>
        <pt x="950" y="1400" on="0"/>
        <pt x="650" y="1400" on="1"/>
        <pt x="350" y="1400" on="0"/>
        <pt x="350" y="1000" on="1"/>
        <pt x="350" y="440" on="1"/>
        <pt x="373" y="450" on="0"/>
        <pt x="400" y="450" on="1"/>
        <pt x="463" y="450" on="0"/>
        <pt x="550" y="343" on="0"/>
        <pt x="550" y="225" on="1"/>
        <pt x="550" y="107" on="0"/>
        <pt x="463" y="0" on="0"/>
        <pt x="400" y="0" on="1"/>
        <pt x="337" y="0" on="0"/>
        <pt x="294" y="54" on="1"/>
        <pt x="260" y="95" on="0"/>
        <pt x="252" y="175" on="1"/>
        <pt x="250" y="175" on="1"/>
        <pt x="250" y="1000" on="1"/>
        <pt x="250" y="1500" on="0"/>
        <pt x="650" y="1500" on="1"/>
        <pt x="1050" y="1500" on="0"/>
        <pt x="1050" y="1000" on="1"/>
        <pt x="1050" y="100" on="1"/>
        <pt x="1350" y="450" on="1"/>
        <pt x="1650" y="100" on="1"/>
        <pt x="1650" y="1000" on="1"/>
        <pt x="1650" y="1500" on="0"/>
        <pt x="2050" y="1500" on="1"/>
        <pt x="2450" y="1500" on="0"/>
        <pt x="2450" y="1000" on="1"/>
        <pt x="2450" y="0" on="1"/>
        <pt x="2350" y="0" on="1"/>
        <pt x="2350" y="1000" on="1"/>
        <pt x="2350" y="1400" on="0"/>
        <pt x="2050" y="1400" on="1"/>
        <pt x="1750" y="1400" on="0"/>
        <pt x="1750" y="1000" on="1"/>
        <pt x="1750" y="0" on="1"/>
        <pt x="1600" y="0" on="1"/>
        <pt x="1350" y="300" on="1"/>
        <pt x="1100" y="0" on="1"/>
        <pt x="950" y="0" on="1"/>
      </contour>
    </TTGlyph>
    <TTGlyph name="uni178F" xMin="250" yMin="0" xMax="1250" yMax="1500">
      <contour>
        <pt x="400" y="350" on="1"/>
        <pt x="379" y="350" on="0"/>
        <pt x="350" y="311" on="0"/>
        <pt x="350" y="225" on="1"/>
        <pt x="350" y="139" on="0"/>
        <pt x="379" y="100" on="0"/>
        <pt x="400" y="100" on="1"/>
        <pt x="421" y="100" on="0"/>
        <pt x="450" y="139" on="0"/>
        <pt x="450" y="225" on="1"/>
        <pt x="450" y="311" on="0"/>
        <pt x="421" y="350" on="0"/>
      </contour>
      <contour>
        <pt x="1250" y="1500" on="1"/>
        <pt x="1250" y="1400" on="1"/>
        <pt x="250" y="1400" on="1"/>
        <pt x="250" y="1500" on="1"/>
      </contour>
      <contour>
        <pt x="250" y="700" on="1"/>
        <pt x="250" y="1200" on="0"/>
        <pt x="750" y="1200" on="1"/>
        <pt x="1250" y="1200" on="0"/>
        <pt x="1250" y="700" on="1"/>
        <pt x="1250" y="0" on="1"/>
        <pt x="1150" y="0" on="1"/>
        <pt x="1150" y="700" on="1"/>
        <pt x="1150" y="1100" on="0"/>
        <pt x="750" y="1100" on="1"/>
        <pt x="350" y="1100" on="0"/>
        <pt x="350" y="700" on="1"/>
        <pt x="350" y="440" on="1"/>
        <pt x="373" y="450" on="0"/>
        <pt x="400" y="450" on="1"/>
        <pt x="463" y="450" on="0"/>
        <pt x="550" y="343" on="0"/>
        <pt x="550" y="225" on="1"/>
        <pt x="550" y="107" on="0"/>
        <pt x="463" y="0" on="0"/>
        <pt x="400" y="0" on="1"/>
        <pt x="337" y="0" on="0"/>
        <pt x="294" y="54" on="1"/>
        <pt x="260" y="95" on="0"/>
        <pt x="252" y="175" on="1"/>
        <pt x="250" y="175" on="1"/>
      </contour>
    </TTGlyph>
    <TTGlyph name="uni1790" xMin="200" yMin="0" xMax="1250" yMax="1650">
      <contour>
        <pt x="1100" y="1000" on="1"/>
        <pt x="1079" y="1000" on="0"/>
        <pt x="1050" y="961" on="0"/>
        <pt x="1050" y="925" on="1"/>
        <pt x="1050" y="889" on="0"/>
        <pt x="1079" y="850" on="0"/>
        <pt x="1100" y="850" on="1"/>
        <pt x="1121" y="850" on="0"/>
        <pt x="1150" y="889" on="0"/>
        <pt x="1150" y="925" on="1"/>
        <pt x="1150" y="961" on="0"/>
        <pt x="1121" y="1000" on="0"/>
      </contour>
      <contour>
        <pt x="250" y="1100" on="1"/>
        <pt x="250" y="1170" on="0"/>
        <pt x="200" y="1250" on="1"/>
        <pt x="200" y="1300" on="1"/>
        <pt x="200" y="1500" on="0"/>
        <pt x="400" y="1500" on="1"/>
        <pt x="700" y="1500" on="1"/>
        <pt x="930" y="1350" on="1"/>
        <pt x="1080" y="1350" on="1"/>
        <pt x="1150" y="1350" on="0"/>
        <pt x="1150" y="1420" on="1"/>
        <pt x="1150" y="1650" on="1"/>
        <pt x="1250" y="1650" on="1"/>
        <pt x="1250" y="1420" on="1"/>
        <pt x="1250" y="1250" on="0"/>
        <pt x="1080" y="1250" on="1"/>
        <pt x="900" y="1250" on="1"/>
        <pt x="670" y="1400" on="1"/>
        <pt x="400" y="1400" on="1"/>
        <pt x="300" y="1400" on="0"/>
        <pt x="300" y="1300" on="1"/>
        <pt x="300" y="1290" on="1"/>
        <pt x="350" y="1210" on="0"/>
        <pt x="350" y="1100" on="1"/>
        <pt x="350" y="500" on="1"/>
        <pt x="350" y="100" on="0"/>
        <pt x="750" y="100" on="1"/>
        <pt x="1150" y="100" on="0"/>
        <pt x="1150" y="500" on="1"/>
        <pt x="1150" y="757" on="1"/>
        <pt x="1127" y="750" on="0"/>
        <pt x="1100" y="750" on="1"/>
        <pt x="1027" y="750" on="0"/>
        <pt x="950" y="847" on="0"/>
        <pt x="950" y="925" on="1"/>
        <pt x="950" y="1003" on="0"/>
        <pt x="1027" y="1100" on="0"/>
        <pt x="1100" y="1100" on="1"/>
        <pt x="1173" y="1100" on="0"/>
        <pt x="1250" y="1003" on="0"/>
        <pt x="1250" y="925" on="1"/>
        <pt x="1250" y="500" on="1"/>
        <pt x="1250" y="0" on="0"/>
        <pt x="750" y="0" on="1"/>
        <pt x="250" y="0" on="0"/>
        <pt x="250" y="500" on="1"/>
      </contour>
    </TTGlyph>
    <TTGlyph name="uni1791" xMin="250" yMin="0" xMax="1250" yMax="1500">
      <contour>
        <pt x="1110" y="591" on="1"/>
        <pt x="1121" y="589" on="0"/>
        <pt x="1131" y="589" on="1"/>
        <pt x="1170" y="589" on="0"/>
        <pt x="1170" y="630" on="1"/>
        <pt x="1170" y="670" on="0"/>
        <pt x="1140" y="670" on="1"/>
        <pt x="1110" y="670" on="0"/>
        <pt x="1110" y="631" on="1"/>
      </contour>
      <contour>
        <pt x="1110" y="501" on="1"/>
        <pt x="1110" y="400" on="1"/>
        <pt x="1110" y="0" on="0"/>
        <pt x="750" y="0" on="1"/>
        <pt x="390" y="0" on="0"/>
        <pt x="390" y="400" on="1"/>
        <pt x="390" y="600" on="1"/>
        <pt x="490" y="600" on="1"/>
        <pt x="490" y="400" on="1"/>
        <pt x="490" y="100" on="0"/>
        <pt x="750" y="100" on="1"/>
        <pt x="1010" y="100" on="0"/>
        <pt x="1010" y="400" on="1"/>
        <pt x="1010" y="525" on="1"/>
        <pt x="250" y="724" on="0"/>
        <pt x="250" y="1100" on="1"/>
        <pt x="250" y="1500" on="0"/>
        <pt x="750" y="1500" on="1"/>
        <pt x="1250" y="1500" on="0"/>
        <pt x="1250" y="1100" on="1"/>
        <pt x="1250" y="821" on="0"/>
        <pt x="1042" y="821" on="1"/>
        <pt x="979" y="821" on="0"/>
        <pt x="940" y="850" on="1"/>
        <pt x="940" y="950" on="1"/>
        <pt x="1011" y="929" on="0"/>
        <pt x="1056" y="929" on="1"/>
        <pt x="1150" y="929" on="0"/>
        <pt x="1150" y="1100" on="1"/>
        <pt x="1150" y="1400" on="0"/>
        <pt x="750" y="1400" on="1"/>
        <pt x="350" y="1400" on="0"/>
        <pt x="350" y="1100" on="1"/>
        <pt x="350" y="791" on="0"/>
        <pt x="1010" y="615" on="1"/>
        <pt x="1010" y="640" on="1"/>
        <pt x="1010" y="760" on="0"/>
        <pt x="1130" y="760" on="1"/>
        <pt x="1250" y="760" on="0"/>
        <pt x="1250" y="635" on="1"/>
        <pt x="1250" y="560" on="0"/>
        <pt x="1182" y="498" on="0"/>
        <pt x="1143" y="498" on="1"/>
        <pt x="1127" y="498" on="0"/>
      </contour>
    </TTGlyph>
    <TTGlyph name="uni1792" xMin="200" yMin="0" xMax="1250" yMax="1500">
      <contour>
        <pt x="1100" y="1000" on="1"/>
        <pt x="1079" y="1000" on="0"/>
        <pt x="1050" y="961" on="0"/>
        <pt x="1050" y="925" on="1"/>
        <pt x="1050" y="889" on="0"/>
        <pt x="1079" y="850" on="0"/>
        <pt x="1100" y="850" on="1"/>
        <pt x="1121" y="850" on="0"/>
        <pt x="1150" y="889" on="0"/>
        <pt x="1150" y="925" on="1"/>
        <pt x="1150" y="961" on="0"/>
        <pt x="1121" y="1000" on="0"/>
      </contour>
      <contour>
        <pt x="1150" y="757" on="1"/>
        <pt x="1127" y="750" on="0"/>
        <pt x="1100" y="750" on="1"/>
        <pt x="1027" y="750" on="0"/>
        <pt x="950" y="847" on="0"/>
        <pt x="950" y="925" on="1"/>
        <pt x="950" y="1003" on="0"/>
        <pt x="1027" y="1100" on="0"/>
        <pt x="1100" y="1100" on="1"/>
        <pt x="1173" y="1100" on="0"/>
        <pt x="1250" y="1003" on="0"/>
        <pt x="1250" y="925" on="1"/>
        <pt x="1250" y="0" on="1"/>
        <pt x="1100" y="0" on="1"/>
        <pt x="750" y="300" on="1"/>
        <pt x="400" y="0" on="1"/>
        <pt x="250" y="0" on="1"/>
        <pt x="250" y="1100" on="1"/>
        <pt x="250" y="1170" on="0"/>
        <pt x="200" y="1250" on="1"/>
        <pt x="200" y="1300" on="1"/>
        <pt x="200" y="1500" on="0"/>
        <pt x="400" y="1500" on="1"/>
        <pt x="1250" y="1500" on="1"/>
        <pt x="1250" y="1400" on="1"/>
        <pt x="400" y="1400" on="1"/>
        <pt x="300" y="1400" on="0"/>
        <pt x="300" y="1300" on="1"/>
        <pt x="300" y="1290" on="1"/>
        <pt x="350" y="1210" on="0"/>
        <pt x="350" y="1100" on="1"/>
        <pt x="350" y="100" on="1"/>
        <pt x="750" y="450" on="1"/>
        <pt x="1150" y="100" on="1"/>
      </contour>
    </TTGlyph>
    <TTGlyph name="uni1793" xMin="250" yMin="0" xMax="1250" yMax="1500">
      <contour>
        <pt x="1250" y="560" on="1"/>
        <pt x="1250" y="400" on="1"/>
        <pt x="1250" y="0" on="0"/>
        <pt x="970" y="0" on="1"/>
        <pt x="764" y="0" on="0"/>
        <pt x="496" y="300" on="0"/>
        <pt x="350" y="300" on="1"/>
        <pt x="350" y="0" on="1"/>
        <pt x="250" y="0" on="1"/>
        <pt x="250" y="600" on="1"/>
        <pt x="350" y="600" on="1"/>
        <pt x="350" y="400" on="1"/>
        <pt x="525" y="400" on="0"/>
        <pt x="814" y="100" on="0"/>
        <pt x="970" y="100" on="1"/>
        <pt x="1150" y="100" on="0"/>
        <pt x="1150" y="400" on="1"/>
        <pt x="1150" y="500" on="1"/>
        <pt x="250" y="680" on="0"/>
        <pt x="250" y="1100" on="1"/>
        <pt x="250" y="1500" on="0"/>
        <pt x="750" y="1500" on="1"/>
        <pt x="1250" y="1500" on="0"/>
        <pt x="1250" y="1100" on="1"/>
        <pt x="1250" y="821" on="0"/>
        <pt x="1042" y="821" on="1"/>
        <pt x="979" y="821" on="0"/>
        <pt x="940" y="850" on="1"/>
        <pt x="940" y="950" on="1"/>
        <pt x="1011" y="929" on="0"/>
        <pt x="1056" y="929" on="1"/>
        <pt x="1150" y="929" on="0"/>
        <pt x="1150" y="1100" on="1"/>
        <pt x="1150" y="1400" on="0"/>
        <pt x="750" y="1400" on="1"/>
        <pt x="350" y="1400" on="0"/>
        <pt x="350" y="1100" on="1"/>
        <pt x="350" y="750" on="0"/>
      </contour>
    </TTGlyph>
    <TTGlyph name="uni1794" xMin="100" yMin="0" xMax="1300" yMax="1500">
      <contour>
        <pt x="1150" y="1100" on="1"/>
        <pt x="1150" y="1170" on="0"/>
        <pt x="1000" y="1250" on="1"/>
        <pt x="1000" y="1350" on="1"/>
        <pt x="1000" y="1500" on="0"/>
        <pt x="1150" y="1500" on="1"/>
        <pt x="1300" y="1500" on="1"/>
        <pt x="1300" y="1400" on="1"/>
        <pt x="1150" y="1400" on="1"/>
        <pt x="1100" y="1400" on="0"/>
        <pt x="1100" y="1350" on="1"/>
        <pt x="1100" y="1300" on="1"/>
        <pt x="1250" y="1220" on="0"/>
        <pt x="1250" y="1100" on="1"/>
        <pt x="1250" y="500" on="1"/>
        <pt x="1250" y="0" on="0"/>
        <pt x="750" y="0" on="1"/>
        <pt x="250" y="0" on="0"/>
        <pt x="250" y="500" on="1"/>
        <pt x="250" y="1100" on="1"/>
        <pt x="250" y="1170" on="0"/>
        <pt x="100" y="1250" on="1"/>
        <pt x="100" y="1350" on="1"/>
        <pt x="100" y="1500" on="0"/>
        <pt x="250" y="1500" on="1"/>
        <pt x="400" y="1500" on="1"/>
        <pt x="400" y="1400" on="1"/>
        <pt x="250" y="1400" on="1"/>
        <pt x="200" y="1400" on="0"/>
        <pt x="200" y="1350" on="1"/>
        <pt x="200" y="1300" on="1"/>
        <pt x="350" y="1220" on="0"/>
        <pt x="350" y="1100" on="1"/>
        <pt x="350" y="500" on="1"/>
        <pt x="350" y="100" on="0"/>
        <pt x="750" y="100" on="1"/>
        <pt x="1150" y="100" on="0"/>
        <pt x="1150" y="500" on="1"/>
      </contour>
    </TTGlyph>
    <TTGlyph name="uni1794.a" xMin="200" yMin="-100" xMax="1250" yMax="1500">
      <contour>
        <pt x="1250" y="-100" on="1"/>
        <pt x="1150" y="-100" on="1"/>
        <pt x="1150" y="153" on="1"/>
        <pt x="1026" y="0" on="0"/>
        <pt x="750" y="0" on="1"/>
        <pt x="250" y="0" on="0"/>
        <pt x="250" y="500" on="1"/>
        <pt x="250" y="1100" on="1"/>
        <pt x="250" y="1170" on="0"/>
        <pt x="200" y="1250" on="1"/>
        <pt x="200" y="1300" on="1"/>
        <pt x="200" y="1500" on="0"/>
        <pt x="400" y="1500" on="1"/>
        <pt x="1250" y="1500" on="1"/>
        <pt x="1250" y="1400" on="1"/>
        <pt x="400" y="1400" on="1"/>
        <pt x="300" y="1400" on="0"/>
        <pt x="300" y="1300" on="1"/>
        <pt x="300" y="1290" on="1"/>
        <pt x="350" y="1210" on="0"/>
        <pt x="350" y="1100" on="1"/>
        <pt x="350" y="500" on="1"/>
        <pt x="350" y="100" on="0"/>
        <pt x="750" y="100" on="1"/>
        <pt x="1149" y="100" on="0"/>
        <pt x="1150" y="499" on="1"/>
        <pt x="1150" y="1100" on="1"/>
        <pt x="1250" y="1100" on="1"/>
      </contour>
    </TTGlyph>
    <TTGlyph name="uni179417C917B6" xMin="200" yMin="-100" xMax="1950" yMax="2250">
      <contour>
        <pt x="1250" y="-100" on="1"/>
        <pt x="1150" y="-100" on="1"/>
        <pt x="1150" y="153" on="1"/>
        <pt x="1026" y="0" on="0"/>
        <pt x="750" y="0" on="1"/>
        <pt x="250" y="0" on="0"/>
        <pt x="250" y="500" on="1"/>
        <pt x="250" y="1100" on="1"/>
        <pt x="250" y="1170" on="0"/>
        <pt x="200" y="1250" on="1"/>
        <pt x="200" y="1300" on="1"/>
        <pt x="200" y="1500" on="0"/>
        <pt x="400" y="1500" on="1"/>
        <pt x="1550" y="1500" on="1"/>
        <pt x="1950" y="1500" on="0"/>
        <pt x="1950" y="1100" on="1"/>
        <pt x="1950" y="0" on="1"/>
        <pt x="1850" y="0" on="1"/>
        <pt x="1850" y="1100" on="1"/>
        <pt x="1850" y="1400" on="0"/>
        <pt x="1550" y="1400" on="1"/>
        <pt x="400" y="1400" on="1"/>
        <pt x="300" y="1400" on="0"/>
        <pt x="300" y="1300" on="1"/>
        <pt x="300" y="1290" on="1"/>
        <pt x="350" y="1210" on="0"/>
        <pt x="350" y="1100" on="1"/>
        <pt x="350" y="500" on="1"/>
        <pt x="350" y="100" on="0"/>
        <pt x="750" y="100" on="1"/>
        <pt x="1149" y="100" on="0"/>
        <pt x="1150" y="499" on="1"/>
        <pt x="1150" y="1100" on="1"/>
        <pt x="1250" y="1100" on="1"/>
      </contour>
      <contour>
        <pt x="750" y="2250" on="1"/>
        <pt x="750" y="1800" on="1"/>
        <pt x="650" y="1800" on="1"/>
        <pt x="650" y="2250" on="1"/>
      </contour>
      <contour>
        <pt x="1050" y="2250" on="1"/>
        <pt x="1050" y="1800" on="1"/>
        <pt x="950" y="1800" on="1"/>
        <pt x="950" y="2250" on="1"/>
      </contour>
    </TTGlyph>
    <TTGlyph name="uni179417C917C5" xMin="200" yMin="-100" xMax="1950" yMax="2250">
      <contour>
        <pt x="1850" y="1101" on="1"/>
        <pt x="1849" y="1400" on="0"/>
        <pt x="1550" y="1400" on="1"/>
        <pt x="400" y="1400" on="1"/>
        <pt x="300" y="1400" on="0"/>
        <pt x="300" y="1300" on="1"/>
        <pt x="300" y="1290" on="1"/>
        <pt x="350" y="1210" on="0"/>
        <pt x="350" y="1100" on="1"/>
        <pt x="350" y="500" on="1"/>
        <pt x="350" y="100" on="0"/>
        <pt x="750" y="100" on="1"/>
        <pt x="1149" y="100" on="0"/>
        <pt x="1150" y="499" on="1"/>
        <pt x="1150" y="1100" on="1"/>
        <pt x="1250" y="1100" on="1"/>
        <pt x="1250" y="-100" on="1"/>
        <pt x="1150" y="-100" on="1"/>
        <pt x="1150" y="153" on="1"/>
        <pt x="1026" y="0" on="0"/>
        <pt x="750" y="0" on="1"/>
        <pt x="250" y="0" on="0"/>
        <pt x="250" y="500" on="1"/>
        <pt x="250" y="1100" on="1"/>
        <pt x="250" y="1170" on="0"/>
        <pt x="200" y="1250" on="1"/>
        <pt x="200" y="1300" on="1"/>
        <pt x="200" y="1500" on="0"/>
        <pt x="400" y="1500" on="1"/>
        <pt x="1550" y="1500" on="1"/>
        <pt x="1750" y="1500" on="0"/>
        <pt x="1850" y="1400" on="1"/>
        <pt x="1850" y="1700" on="1"/>
        <pt x="1850" y="1800" on="0"/>
        <pt x="1750" y="1800" on="1"/>
        <pt x="1700" y="1800" on="1"/>
        <pt x="1700" y="1900" on="1"/>
        <pt x="1750" y="1900" on="1"/>
        <pt x="1950" y="1900" on="0"/>
        <pt x="1950" y="1700" on="1"/>
        <pt x="1950" y="0" on="1"/>
        <pt x="1850" y="0" on="1"/>
      </contour>
      <contour>
        <pt x="750" y="2250" on="1"/>
        <pt x="750" y="1800" on="1"/>
        <pt x="650" y="1800" on="1"/>
        <pt x="650" y="2250" on="1"/>
      </contour>
      <contour>
        <pt x="1050" y="2250" on="1"/>
        <pt x="1050" y="1800" on="1"/>
        <pt x="950" y="1800" on="1"/>
        <pt x="950" y="2250" on="1"/>
      </contour>
    </TTGlyph>
    <TTGlyph name="uni179417D2178A17B6" xMin="200" yMin="-650" xMax="1950" yMax="1500">
      <contour>
        <pt x="1250" y="-100" on="1"/>
        <pt x="1150" y="-100" on="1"/>
        <pt x="1150" y="153" on="1"/>
        <pt x="1026" y="0" on="0"/>
        <pt x="750" y="0" on="1"/>
        <pt x="250" y="0" on="0"/>
        <pt x="250" y="500" on="1"/>
        <pt x="250" y="1100" on="1"/>
        <pt x="250" y="1170" on="0"/>
        <pt x="200" y="1250" on="1"/>
        <pt x="200" y="1300" on="1"/>
        <pt x="200" y="1500" on="0"/>
        <pt x="400" y="1500" on="1"/>
        <pt x="1550" y="1500" on="1"/>
        <pt x="1950" y="1500" on="0"/>
        <pt x="1950" y="1100" on="1"/>
        <pt x="1950" y="0" on="1"/>
        <pt x="1850" y="0" on="1"/>
        <pt x="1850" y="1100" on="1"/>
        <pt x="1850" y="1400" on="0"/>
        <pt x="1550" y="1400" on="1"/>
        <pt x="400" y="1400" on="1"/>
        <pt x="300" y="1400" on="0"/>
        <pt x="300" y="1300" on="1"/>
        <pt x="300" y="1290" on="1"/>
        <pt x="350" y="1210" on="0"/>
        <pt x="350" y="1100" on="1"/>
        <pt x="350" y="500" on="1"/>
        <pt x="350" y="100" on="0"/>
        <pt x="750" y="100" on="1"/>
        <pt x="1149" y="100" on="0"/>
        <pt x="1150" y="499" on="1"/>
        <pt x="1150" y="1100" on="1"/>
        <pt x="1250" y="1100" on="1"/>
      </contour>
      <contour>
        <pt x="430" y="-550" on="1"/>
        <pt x="451" y="-550" on="0"/>
        <pt x="460" y="-531" on="0"/>
        <pt x="460" y="-515" on="1"/>
        <pt x="460" y="-499" on="0"/>
        <pt x="451" y="-480" on="0"/>
        <pt x="430" y="-480" on="1"/>
        <pt x="409" y="-480" on="0"/>
        <pt x="400" y="-499" on="0"/>
        <pt x="400" y="-515" on="1"/>
        <pt x="400" y="-531" on="0"/>
        <pt x="409" y="-550" on="0"/>
      </contour>
      <contour>
        <pt x="300" y="-400" on="1"/>
        <pt x="300" y="-100" on="0"/>
        <pt x="750" y="-100" on="1"/>
        <pt x="1200" y="-100" on="0"/>
        <pt x="1200" y="-400" on="1"/>
        <pt x="1200" y="-650" on="1"/>
        <pt x="1100" y="-650" on="1"/>
        <pt x="1100" y="-400" on="1"/>
        <pt x="1100" y="-200" on="0"/>
        <pt x="750" y="-200" on="1"/>
        <pt x="400" y="-200" on="0"/>
        <pt x="400" y="-383" on="1"/>
        <pt x="414" y="-380" on="0"/>
        <pt x="425" y="-380" on="1"/>
        <pt x="473" y="-380" on="0"/>
        <pt x="550" y="-447" on="0"/>
        <pt x="550" y="-515" on="1"/>
        <pt x="550" y="-583" on="0"/>
        <pt x="473" y="-650" on="0"/>
        <pt x="425" y="-650" on="1"/>
        <pt x="377" y="-650" on="0"/>
        <pt x="300" y="-583" on="0"/>
        <pt x="300" y="-515" on="1"/>
      </contour>
    </TTGlyph>
    <TTGlyph name="uni1795" xMin="200" yMin="0" xMax="1250" yMax="1650">
      <contour>
        <pt x="1100" y="1000" on="1"/>
        <pt x="1079" y="1000" on="0"/>
        <pt x="1050" y="961" on="0"/>
        <pt x="1050" y="925" on="1"/>
        <pt x="1050" y="889" on="0"/>
        <pt x="1079" y="850" on="0"/>
        <pt x="1100" y="850" on="1"/>
        <pt x="1121" y="850" on="0"/>
        <pt x="1150" y="889" on="0"/>
        <pt x="1150" y="925" on="1"/>
        <pt x="1150" y="961" on="0"/>
        <pt x="1121" y="1000" on="0"/>
      </contour>
      <contour>
        <pt x="1150" y="100" on="1"/>
        <pt x="1150" y="757" on="1"/>
        <pt x="1127" y="750" on="0"/>
        <pt x="1100" y="750" on="1"/>
        <pt x="1027" y="750" on="0"/>
        <pt x="950" y="847" on="0"/>
        <pt x="950" y="925" on="1"/>
        <pt x="950" y="1003" on="0"/>
        <pt x="1027" y="1100" on="0"/>
        <pt x="1100" y="1100" on="1"/>
        <pt x="1173" y="1100" on="0"/>
        <pt x="1250" y="1003" on="0"/>
        <pt x="1250" y="925" on="1"/>
        <pt x="1250" y="0" on="1"/>
        <pt x="1100" y="0" on="1"/>
        <pt x="750" y="300" on="1"/>
        <pt x="400" y="0" on="1"/>
        <pt x="250" y="0" on="1"/>
        <pt x="250" y="1100" on="1"/>
        <pt x="250" y="1170" on="0"/>
        <pt x="200" y="1250" on="1"/>
        <pt x="200" y="1300" on="1"/>
        <pt x="200" y="1500" on="0"/>
        <pt x="400" y="1500" on="1"/>
        <pt x="700" y="1500" on="1"/>
        <pt x="930" y="1350" on="1"/>
        <pt x="1080" y="1350" on="1"/>
        <pt x="1150" y="1350" on="0"/>
        <pt x="1150" y="1420" on="1"/>
        <pt x="1150" y="1650" on="1"/>
        <pt x="1250" y="1650" on="1"/>
        <pt x="1250" y="1420" on="1"/>
        <pt x="1250" y="1250" on="0"/>
        <pt x="1080" y="1250" on="1"/>
        <pt x="900" y="1250" on="1"/>
        <pt x="670" y="1400" on="1"/>
        <pt x="400" y="1400" on="1"/>
        <pt x="300" y="1400" on="0"/>
        <pt x="300" y="1300" on="1"/>
        <pt x="300" y="1290" on="1"/>
        <pt x="350" y="1210" on="0"/>
        <pt x="350" y="1100" on="1"/>
        <pt x="350" y="100" on="1"/>
        <pt x="750" y="450" on="1"/>
      </contour>
    </TTGlyph>
    <TTGlyph name="uni1796" xMin="250" yMin="0" xMax="1250" yMax="1500">
      <contour>
        <pt x="400" y="350" on="1"/>
        <pt x="379" y="350" on="0"/>
        <pt x="350" y="311" on="0"/>
        <pt x="350" y="225" on="1"/>
        <pt x="350" y="139" on="0"/>
        <pt x="379" y="100" on="0"/>
        <pt x="400" y="100" on="1"/>
        <pt x="421" y="100" on="0"/>
        <pt x="450" y="139" on="0"/>
        <pt x="450" y="225" on="1"/>
        <pt x="450" y="311" on="0"/>
        <pt x="421" y="350" on="0"/>
      </contour>
      <contour>
        <pt x="350" y="1150" on="1"/>
        <pt x="350" y="440" on="1"/>
        <pt x="373" y="450" on="0"/>
        <pt x="400" y="450" on="1"/>
        <pt x="463" y="450" on="0"/>
        <pt x="550" y="343" on="0"/>
        <pt x="550" y="225" on="1"/>
        <pt x="550" y="107" on="0"/>
        <pt x="463" y="0" on="0"/>
        <pt x="400" y="0" on="1"/>
        <pt x="337" y="0" on="0"/>
        <pt x="294" y="54" on="1"/>
        <pt x="260" y="95" on="0"/>
        <pt x="252" y="175" on="1"/>
        <pt x="250" y="175" on="1"/>
        <pt x="250" y="1190" on="1"/>
        <pt x="510" y="1500" on="1"/>
        <pt x="750" y="1300" on="1"/>
        <pt x="990" y="1500" on="1"/>
        <pt x="1250" y="1190" on="1"/>
        <pt x="1250" y="0" on="1"/>
        <pt x="1150" y="0" on="1"/>
        <pt x="1150" y="1150" on="1"/>
        <pt x="980" y="1355" on="1"/>
        <pt x="750" y="1170" on="1"/>
        <pt x="520" y="1355" on="1"/>
      </contour>
    </TTGlyph>
    <TTGlyph name="uni1797" xMin="140" yMin="0" xMax="1250" yMax="1500">
      <contour>
        <pt x="1250" y="1500" on="1"/>
        <pt x="1250" y="1400" on="1"/>
        <pt x="250" y="1400" on="1"/>
        <pt x="250" y="1500" on="1"/>
      </contour>
      <contour>
        <pt x="350" y="175" on="1"/>
        <pt x="250" y="463" on="0"/>
        <pt x="250" y="700" on="1"/>
        <pt x="250" y="1200" on="0"/>
        <pt x="750" y="1200" on="1"/>
        <pt x="1250" y="1200" on="0"/>
        <pt x="1250" y="700" on="1"/>
        <pt x="1250" y="0" on="1"/>
        <pt x="1150" y="0" on="1"/>
        <pt x="1150" y="700" on="1"/>
        <pt x="1150" y="1100" on="0"/>
        <pt x="750" y="1100" on="1"/>
        <pt x="350" y="1100" on="0"/>
        <pt x="350" y="700" on="1"/>
        <pt x="350" y="463" on="0"/>
        <pt x="450" y="175" on="1"/>
        <pt x="450" y="97" on="0"/>
        <pt x="383" y="0" on="0"/>
        <pt x="325" y="0" on="1"/>
        <pt x="267" y="0" on="0"/>
        <pt x="200" y="97" on="0"/>
        <pt x="140" y="360" on="1"/>
        <pt x="230" y="400" on="1"/>
        <pt x="295" y="140" on="0"/>
        <pt x="324" y="100" on="0"/>
        <pt x="330" y="100" on="1"/>
        <pt x="336" y="100" on="0"/>
        <pt x="350" y="139" on="0"/>
      </contour>
    </TTGlyph>
    <TTGlyph name="uni1798" xMin="100" yMin="0" xMax="1300" yMax="1500">
      <contour>
        <pt x="1150" y="700" on="1"/>
        <pt x="350" y="700" on="1"/>
        <pt x="350" y="500" on="1"/>
        <pt x="350" y="100" on="0"/>
        <pt x="750" y="100" on="1"/>
        <pt x="1150" y="100" on="0"/>
        <pt x="1150" y="500" on="1"/>
      </contour>
      <contour>
        <pt x="350" y="800" on="1"/>
        <pt x="1150" y="800" on="1"/>
        <pt x="1150" y="1100" on="1"/>
        <pt x="1150" y="1170" on="0"/>
        <pt x="1000" y="1250" on="1"/>
        <pt x="1000" y="1350" on="1"/>
        <pt x="1000" y="1500" on="0"/>
        <pt x="1150" y="1500" on="1"/>
        <pt x="1300" y="1500" on="1"/>
        <pt x="1300" y="1400" on="1"/>
        <pt x="1150" y="1400" on="1"/>
        <pt x="1100" y="1400" on="0"/>
        <pt x="1100" y="1350" on="1"/>
        <pt x="1100" y="1300" on="1"/>
        <pt x="1250" y="1220" on="0"/>
        <pt x="1250" y="1100" on="1"/>
        <pt x="1250" y="500" on="1"/>
        <pt x="1250" y="0" on="0"/>
        <pt x="750" y="0" on="1"/>
        <pt x="250" y="0" on="0"/>
        <pt x="250" y="500" on="1"/>
        <pt x="250" y="1100" on="1"/>
        <pt x="250" y="1170" on="0"/>
        <pt x="100" y="1250" on="1"/>
        <pt x="100" y="1350" on="1"/>
        <pt x="100" y="1500" on="0"/>
        <pt x="250" y="1500" on="1"/>
        <pt x="400" y="1500" on="1"/>
        <pt x="400" y="1400" on="1"/>
        <pt x="250" y="1400" on="1"/>
        <pt x="200" y="1400" on="0"/>
        <pt x="200" y="1350" on="1"/>
        <pt x="200" y="1300" on="1"/>
        <pt x="350" y="1220" on="0"/>
        <pt x="350" y="1100" on="1"/>
      </contour>
    </TTGlyph>
    <TTGlyph name="uni1799" xMin="250" yMin="0" xMax="2000" yMax="1500">
      <contour>
        <pt x="400" y="1400" on="1"/>
        <pt x="379" y="1400" on="0"/>
        <pt x="350" y="1361" on="0"/>
        <pt x="350" y="1325" on="1"/>
        <pt x="350" y="1289" on="0"/>
        <pt x="379" y="1250" on="0"/>
        <pt x="400" y="1250" on="1"/>
        <pt x="421" y="1250" on="0"/>
        <pt x="450" y="1289" on="0"/>
        <pt x="450" y="1325" on="1"/>
        <pt x="450" y="1361" on="0"/>
        <pt x="421" y="1400" on="0"/>
      </contour>
      <contour>
        <pt x="250" y="1325" on="1"/>
        <pt x="250" y="1403" on="0"/>
        <pt x="327" y="1500" on="0"/>
        <pt x="400" y="1500" on="1"/>
        <pt x="473" y="1500" on="0"/>
        <pt x="550" y="1403" on="0"/>
        <pt x="550" y="1325" on="1"/>
        <pt x="550" y="1247" on="0"/>
        <pt x="473" y="1150" on="0"/>
        <pt x="400" y="1150" on="1"/>
        <pt x="373" y="1150" on="0"/>
        <pt x="350" y="1157" on="1"/>
        <pt x="350" y="500" on="1"/>
        <pt x="350" y="100" on="0"/>
        <pt x="700" y="100" on="1"/>
        <pt x="1050" y="100" on="0"/>
        <pt x="1050" y="500" on="1"/>
        <pt x="1050" y="1100" on="1"/>
        <pt x="1050" y="1170" on="0"/>
        <pt x="900" y="1250" on="1"/>
        <pt x="900" y="1350" on="1"/>
        <pt x="900" y="1500" on="0"/>
        <pt x="1050" y="1500" on="1"/>
        <pt x="1200" y="1500" on="1"/>
        <pt x="1200" y="1400" on="1"/>
        <pt x="1050" y="1400" on="1"/>
        <pt x="1000" y="1400" on="0"/>
        <pt x="1000" y="1350" on="1"/>
        <pt x="1000" y="1300" on="1"/>
        <pt x="1150" y="1220" on="0"/>
        <pt x="1150" y="1100" on="1"/>
        <pt x="1150" y="500" on="1"/>
        <pt x="1150" y="100" on="0"/>
        <pt x="1500" y="100" on="1"/>
        <pt x="1850" y="100" on="0"/>
        <pt x="1850" y="500" on="1"/>
        <pt x="1850" y="1100" on="1"/>
        <pt x="1850" y="1170" on="0"/>
        <pt x="1700" y="1250" on="1"/>
        <pt x="1700" y="1350" on="1"/>
        <pt x="1700" y="1500" on="0"/>
        <pt x="1850" y="1500" on="1"/>
        <pt x="2000" y="1500" on="1"/>
        <pt x="2000" y="1400" on="1"/>
        <pt x="1850" y="1400" on="1"/>
        <pt x="1800" y="1400" on="0"/>
        <pt x="1800" y="1350" on="1"/>
        <pt x="1800" y="1300" on="1"/>
        <pt x="1950" y="1220" on="0"/>
        <pt x="1950" y="1100" on="1"/>
        <pt x="1950" y="500" on="1"/>
        <pt x="1950" y="0" on="0"/>
        <pt x="1500" y="0" on="1"/>
        <pt x="1200" y="0" on="0"/>
        <pt x="1100" y="222" on="1"/>
        <pt x="1000" y="0" on="0"/>
        <pt x="700" y="0" on="1"/>
        <pt x="250" y="0" on="0"/>
        <pt x="250" y="500" on="1"/>
      </contour>
    </TTGlyph>
    <TTGlyph name="uni179A" xMin="100" yMin="0" xMax="400" yMax="1500">
      <contour>
        <pt x="225" y="350" on="1"/>
        <pt x="214" y="350" on="0"/>
        <pt x="200" y="331" on="0"/>
        <pt x="200" y="225" on="1"/>
        <pt x="200" y="119" on="0"/>
        <pt x="214" y="100" on="0"/>
        <pt x="225" y="100" on="1"/>
        <pt x="236" y="100" on="0"/>
        <pt x="250" y="119" on="0"/>
        <pt x="250" y="225" on="1"/>
        <pt x="250" y="331" on="0"/>
        <pt x="236" y="350" on="0"/>
      </contour>
      <contour>
        <pt x="250" y="1100" on="1"/>
        <pt x="250" y="1170" on="0"/>
        <pt x="100" y="1250" on="1"/>
        <pt x="100" y="1350" on="1"/>
        <pt x="100" y="1500" on="0"/>
        <pt x="250" y="1500" on="1"/>
        <pt x="400" y="1500" on="1"/>
        <pt x="400" y="1400" on="1"/>
        <pt x="250" y="1400" on="1"/>
        <pt x="200" y="1400" on="0"/>
        <pt x="200" y="1350" on="1"/>
        <pt x="200" y="1300" on="1"/>
        <pt x="350" y="1220" on="0"/>
        <pt x="350" y="1100" on="1"/>
        <pt x="350" y="225" on="1"/>
        <pt x="350" y="97" on="0"/>
        <pt x="283" y="0" on="0"/>
        <pt x="225" y="0" on="1"/>
        <pt x="167" y="0" on="0"/>
        <pt x="100" y="97" on="0"/>
        <pt x="100" y="225" on="1"/>
        <pt x="100" y="353" on="0"/>
        <pt x="167" y="450" on="0"/>
        <pt x="225" y="450" on="1"/>
        <pt x="238" y="450" on="0"/>
        <pt x="250" y="448" on="1"/>
      </contour>
    </TTGlyph>
    <TTGlyph name="uni179A17C917B617C6" xMin="100" yMin="-650" xMax="1050" yMax="2250">
      <contour>
        <pt x="225" y="350" on="1"/>
        <pt x="214" y="350" on="0"/>
        <pt x="200" y="331" on="0"/>
        <pt x="200" y="225" on="1"/>
        <pt x="200" y="119" on="0"/>
        <pt x="214" y="100" on="0"/>
        <pt x="225" y="100" on="1"/>
        <pt x="236" y="100" on="0"/>
        <pt x="250" y="119" on="0"/>
        <pt x="250" y="225" on="1"/>
        <pt x="250" y="331" on="0"/>
        <pt x="236" y="350" on="0"/>
      </contour>
      <contour>
        <pt x="250" y="1400" on="1"/>
        <pt x="200" y="1400" on="0"/>
        <pt x="200" y="1350" on="1"/>
        <pt x="200" y="1300" on="1"/>
        <pt x="350" y="1220" on="0"/>
        <pt x="350" y="1100" on="1"/>
        <pt x="350" y="225" on="1"/>
        <pt x="350" y="97" on="0"/>
        <pt x="283" y="0" on="0"/>
        <pt x="225" y="0" on="1"/>
        <pt x="167" y="0" on="0"/>
        <pt x="100" y="97" on="0"/>
        <pt x="100" y="225" on="1"/>
        <pt x="100" y="353" on="0"/>
        <pt x="167" y="450" on="0"/>
        <pt x="225" y="450" on="1"/>
        <pt x="238" y="450" on="0"/>
        <pt x="250" y="448" on="1"/>
        <pt x="250" y="1100" on="1"/>
        <pt x="250" y="1170" on="0"/>
        <pt x="100" y="1250" on="1"/>
        <pt x="100" y="1350" on="1"/>
        <pt x="100" y="1500" on="0"/>
        <pt x="250" y="1500" on="1"/>
        <pt x="650" y="1500" on="1"/>
        <pt x="1050" y="1500" on="0"/>
        <pt x="1050" y="1100" on="1"/>
        <pt x="1050" y="0" on="1"/>
        <pt x="950" y="0" on="1"/>
        <pt x="950" y="1100" on="1"/>
        <pt x="950" y="1400" on="0"/>
        <pt x="650" y="1400" on="1"/>
      </contour>
      <contour>
        <pt x="450" y="2025" on="1"/>
        <pt x="450" y="1963" on="0"/>
        <pt x="482" y="1932" on="1"/>
        <pt x="513" y="1900" on="0"/>
        <pt x="575" y="1900" on="1"/>
        <pt x="638" y="1900" on="0"/>
        <pt x="670" y="1932" on="1"/>
        <pt x="700" y="1963" on="0"/>
        <pt x="700" y="2025" on="1"/>
        <pt x="700" y="2088" on="0"/>
        <pt x="670" y="2118" on="1"/>
        <pt x="638" y="2150" on="0"/>
        <pt x="575" y="2150" on="1"/>
        <pt x="513" y="2150" on="0"/>
        <pt x="482" y="2118" on="1"/>
        <pt x="450" y="2088" on="0"/>
      </contour>
      <contour>
        <pt x="800" y="2025" on="1"/>
        <pt x="800" y="1912" on="0"/>
        <pt x="744" y="1856" on="1"/>
        <pt x="688" y="1800" on="0"/>
        <pt x="575" y="1800" on="1"/>
        <pt x="462" y="1800" on="0"/>
        <pt x="406" y="1856" on="1"/>
        <pt x="350" y="1912" on="0"/>
        <pt x="350" y="2025" on="1"/>
        <pt x="350" y="2138" on="0"/>
        <pt x="406" y="2194" on="1"/>
        <pt x="462" y="2250" on="0"/>
        <pt x="575" y="2250" on="1"/>
        <pt x="688" y="2250" on="0"/>
        <pt x="744" y="2194" on="1"/>
        <pt x="800" y="2138" on="0"/>
      </contour>
      <contour>
        <pt x="350" y="-100" on="1"/>
        <pt x="350" y="-650" on="1"/>
        <pt x="250" y="-650" on="1"/>
        <pt x="250" y="-100" on="1"/>
      </contour>
    </TTGlyph>
    <TTGlyph name="uni179B" xMin="250" yMin="0" xMax="2000" yMax="1500">
      <contour>
        <pt x="400" y="350" on="1"/>
        <pt x="379" y="350" on="0"/>
        <pt x="350" y="311" on="0"/>
        <pt x="350" y="225" on="1"/>
        <pt x="350" y="139" on="0"/>
        <pt x="379" y="100" on="0"/>
        <pt x="400" y="100" on="1"/>
        <pt x="421" y="100" on="0"/>
        <pt x="450" y="139" on="0"/>
        <pt x="450" y="225" on="1"/>
        <pt x="450" y="311" on="0"/>
        <pt x="421" y="350" on="0"/>
      </contour>
      <contour>
        <pt x="1850" y="1100" on="1"/>
        <pt x="1850" y="1170" on="0"/>
        <pt x="1700" y="1250" on="1"/>
        <pt x="1700" y="1350" on="1"/>
        <pt x="1700" y="1500" on="0"/>
        <pt x="1850" y="1500" on="1"/>
        <pt x="2000" y="1500" on="1"/>
        <pt x="2000" y="1400" on="1"/>
        <pt x="1850" y="1400" on="1"/>
        <pt x="1800" y="1400" on="0"/>
        <pt x="1800" y="1350" on="1"/>
        <pt x="1800" y="1300" on="1"/>
        <pt x="1950" y="1220" on="0"/>
        <pt x="1950" y="1100" on="1"/>
        <pt x="1950" y="500" on="1"/>
        <pt x="1950" y="0" on="0"/>
        <pt x="1500" y="0" on="1"/>
        <pt x="1050" y="0" on="0"/>
        <pt x="1050" y="500" on="1"/>
        <pt x="1050" y="1000" on="1"/>
        <pt x="1050" y="1400" on="0"/>
        <pt x="700" y="1400" on="1"/>
        <pt x="350" y="1400" on="0"/>
        <pt x="350" y="1000" on="1"/>
        <pt x="350" y="440" on="1"/>
        <pt x="373" y="450" on="0"/>
        <pt x="400" y="450" on="1"/>
        <pt x="463" y="450" on="0"/>
        <pt x="550" y="343" on="0"/>
        <pt x="550" y="225" on="1"/>
        <pt x="550" y="107" on="0"/>
        <pt x="463" y="0" on="0"/>
        <pt x="400" y="0" on="1"/>
        <pt x="337" y="0" on="0"/>
        <pt x="250" y="107" on="0"/>
        <pt x="250" y="225" on="1"/>
        <pt x="250" y="1000" on="1"/>
        <pt x="250" y="1500" on="0"/>
        <pt x="700" y="1500" on="1"/>
        <pt x="1150" y="1500" on="0"/>
        <pt x="1150" y="1000" on="1"/>
        <pt x="1150" y="500" on="1"/>
        <pt x="1150" y="100" on="0"/>
        <pt x="1500" y="100" on="1"/>
        <pt x="1850" y="100" on="0"/>
        <pt x="1850" y="500" on="1"/>
      </contour>
    </TTGlyph>
    <TTGlyph name="uni179C" xMin="100" yMin="0" xMax="500" yMax="1650">
      <contour>
        <pt x="225" y="350" on="1"/>
        <pt x="214" y="350" on="0"/>
        <pt x="200" y="331" on="0"/>
        <pt x="200" y="225" on="1"/>
        <pt x="200" y="119" on="0"/>
        <pt x="214" y="100" on="0"/>
        <pt x="225" y="100" on="1"/>
        <pt x="236" y="100" on="0"/>
        <pt x="250" y="119" on="0"/>
        <pt x="250" y="225" on="1"/>
        <pt x="250" y="331" on="0"/>
        <pt x="236" y="350" on="0"/>
      </contour>
      <contour>
        <pt x="330" y="1300" on="1"/>
        <pt x="250" y="1400" on="1"/>
        <pt x="200" y="1400" on="0"/>
        <pt x="200" y="1350" on="1"/>
        <pt x="200" y="1300" on="1"/>
        <pt x="350" y="1220" on="0"/>
        <pt x="350" y="1100" on="1"/>
        <pt x="350" y="225" on="1"/>
        <pt x="350" y="97" on="0"/>
        <pt x="283" y="0" on="0"/>
        <pt x="225" y="0" on="1"/>
        <pt x="167" y="0" on="0"/>
        <pt x="100" y="97" on="0"/>
        <pt x="100" y="225" on="1"/>
        <pt x="100" y="353" on="0"/>
        <pt x="167" y="450" on="0"/>
        <pt x="225" y="450" on="1"/>
        <pt x="238" y="450" on="0"/>
        <pt x="250" y="448" on="1"/>
        <pt x="250" y="1100" on="1"/>
        <pt x="250" y="1170" on="0"/>
        <pt x="100" y="1250" on="1"/>
        <pt x="100" y="1350" on="1"/>
        <pt x="100" y="1500" on="0"/>
        <pt x="250" y="1500" on="1"/>
        <pt x="280" y="1500" on="1"/>
        <pt x="360" y="1400" on="1"/>
        <pt x="400" y="1400" on="0"/>
        <pt x="400" y="1470" on="1"/>
        <pt x="400" y="1650" on="1"/>
        <pt x="500" y="1650" on="1"/>
        <pt x="500" y="1470" on="1"/>
        <pt x="500" y="1300" on="0"/>
      </contour>
    </TTGlyph>
    <TTGlyph name="uni179D" xMin="250" yMin="0" xMax="1450" yMax="1500">
      <contour>
        <pt x="1250" y="1500" on="1"/>
        <pt x="1250" y="1400" on="1"/>
        <pt x="250" y="1400" on="1"/>
        <pt x="250" y="1500" on="1"/>
      </contour>
      <contour>
        <pt x="1150" y="500" on="1"/>
        <pt x="1150" y="700" on="1"/>
        <pt x="1150" y="1100" on="0"/>
        <pt x="750" y="1100" on="1"/>
        <pt x="350" y="1100" on="0"/>
        <pt x="350" y="700" on="1"/>
        <pt x="350" y="300" on="1"/>
        <pt x="495" y="500" on="0"/>
        <pt x="660" y="500" on="1"/>
        <pt x="750" y="500" on="1"/>
        <pt x="750" y="390" on="1"/>
        <pt x="660" y="390" on="1"/>
        <pt x="495" y="390" on="0"/>
        <pt x="350" y="190" on="1"/>
        <pt x="350" y="0" on="1"/>
        <pt x="250" y="0" on="1"/>
        <pt x="250" y="700" on="1"/>
        <pt x="250" y="1200" on="0"/>
        <pt x="750" y="1200" on="1"/>
        <pt x="1250" y="1200" on="0"/>
        <pt x="1250" y="700" on="1"/>
        <pt x="1250" y="500" on="1"/>
        <pt x="1450" y="500" on="1"/>
        <pt x="1450" y="400" on="1"/>
        <pt x="1250" y="400" on="1"/>
        <pt x="1250" y="0" on="1"/>
        <pt x="1150" y="0" on="1"/>
        <pt x="1150" y="400" on="1"/>
        <pt x="950" y="400" on="1"/>
        <pt x="950" y="500" on="1"/>
      </contour>
    </TTGlyph>
    <TTGlyph name="uni179E" xMin="100" yMin="0" xMax="1450" yMax="1500">
      <contour>
        <pt x="250" y="1100" on="1"/>
        <pt x="250" y="1170" on="0"/>
        <pt x="100" y="1250" on="1"/>
        <pt x="100" y="1350" on="1"/>
        <pt x="100" y="1500" on="0"/>
        <pt x="250" y="1500" on="1"/>
        <pt x="400" y="1500" on="1"/>
        <pt x="400" y="1400" on="1"/>
        <pt x="250" y="1400" on="1"/>
        <pt x="200" y="1400" on="0"/>
        <pt x="200" y="1350" on="1"/>
        <pt x="200" y="1300" on="1"/>
        <pt x="350" y="1220" on="0"/>
        <pt x="350" y="1100" on="1"/>
        <pt x="350" y="500" on="1"/>
        <pt x="350" y="100" on="0"/>
        <pt x="750" y="100" on="1"/>
        <pt x="1150" y="100" on="0"/>
        <pt x="1150" y="500" on="1"/>
        <pt x="1150" y="700" on="1"/>
        <pt x="950" y="700" on="1"/>
        <pt x="950" y="800" on="1"/>
        <pt x="1150" y="800" on="1"/>
        <pt x="1150" y="1100" on="1"/>
        <pt x="1150" y="1170" on="0"/>
        <pt x="1000" y="1250" on="1"/>
        <pt x="1000" y="1350" on="1"/>
        <pt x="1000" y="1500" on="0"/>
        <pt x="1150" y="1500" on="1"/>
        <pt x="1300" y="1500" on="1"/>
        <pt x="1300" y="1400" on="1"/>
        <pt x="1150" y="1400" on="1"/>
        <pt x="1100" y="1400" on="0"/>
        <pt x="1100" y="1350" on="1"/>
        <pt x="1100" y="1300" on="1"/>
        <pt x="1250" y="1220" on="0"/>
        <pt x="1250" y="1100" on="1"/>
        <pt x="1250" y="800" on="1"/>
        <pt x="1450" y="800" on="1"/>
        <pt x="1450" y="700" on="1"/>
        <pt x="1250" y="700" on="1"/>
        <pt x="1250" y="500" on="1"/>
        <pt x="1250" y="0" on="0"/>
        <pt x="750" y="0" on="1"/>
        <pt x="250" y="0" on="0"/>
        <pt x="250" y="500" on="1"/>
      </contour>
    </TTGlyph>
    <TTGlyph name="uni179F" xMin="250" yMin="0" xMax="2000" yMax="1500">
      <contour>
        <pt x="400" y="350" on="1"/>
        <pt x="379" y="350" on="0"/>
        <pt x="350" y="311" on="0"/>
        <pt x="350" y="225" on="1"/>
        <pt x="350" y="139" on="0"/>
        <pt x="379" y="100" on="0"/>
        <pt x="400" y="100" on="1"/>
        <pt x="421" y="100" on="0"/>
        <pt x="450" y="139" on="0"/>
        <pt x="450" y="225" on="1"/>
        <pt x="450" y="311" on="0"/>
        <pt x="421" y="350" on="0"/>
      </contour>
      <contour>
        <pt x="1850" y="1100" on="1"/>
        <pt x="1850" y="1170" on="0"/>
        <pt x="1700" y="1250" on="1"/>
        <pt x="1700" y="1350" on="1"/>
        <pt x="1700" y="1500" on="0"/>
        <pt x="1850" y="1500" on="1"/>
        <pt x="2000" y="1500" on="1"/>
        <pt x="2000" y="1400" on="1"/>
        <pt x="1850" y="1400" on="1"/>
        <pt x="1800" y="1400" on="0"/>
        <pt x="1800" y="1350" on="1"/>
        <pt x="1800" y="1300" on="1"/>
        <pt x="1950" y="1220" on="0"/>
        <pt x="1950" y="1100" on="1"/>
        <pt x="1950" y="500" on="1"/>
        <pt x="1950" y="0" on="0"/>
        <pt x="1500" y="0" on="1"/>
        <pt x="1050" y="0" on="0"/>
        <pt x="1050" y="500" on="1"/>
        <pt x="1050" y="700" on="1"/>
        <pt x="1050" y="1100" on="0"/>
        <pt x="700" y="1100" on="1"/>
        <pt x="350" y="1100" on="0"/>
        <pt x="350" y="700" on="1"/>
        <pt x="350" y="440" on="1"/>
        <pt x="373" y="450" on="0"/>
        <pt x="400" y="450" on="1"/>
        <pt x="463" y="450" on="0"/>
        <pt x="550" y="343" on="0"/>
        <pt x="550" y="225" on="1"/>
        <pt x="550" y="107" on="0"/>
        <pt x="463" y="0" on="0"/>
        <pt x="400" y="0" on="1"/>
        <pt x="337" y="0" on="0"/>
        <pt x="250" y="107" on="0"/>
        <pt x="250" y="225" on="1"/>
        <pt x="250" y="700" on="1"/>
        <pt x="250" y="1038" on="0"/>
        <pt x="433" y="1148" on="1"/>
        <pt x="400" y="1197" on="0"/>
        <pt x="300" y="1250" on="1"/>
        <pt x="300" y="1350" on="1"/>
        <pt x="300" y="1500" on="0"/>
        <pt x="450" y="1500" on="1"/>
        <pt x="1000" y="1500" on="1"/>
        <pt x="1000" y="1400" on="1"/>
        <pt x="450" y="1400" on="1"/>
        <pt x="400" y="1400" on="0"/>
        <pt x="400" y="1350" on="1"/>
        <pt x="400" y="1300" on="1"/>
        <pt x="492" y="1251" on="0"/>
        <pt x="528" y="1186" on="1"/>
        <pt x="583" y="1200" on="0"/>
        <pt x="700" y="1200" on="1"/>
        <pt x="1150" y="1200" on="0"/>
        <pt x="1150" y="700" on="1"/>
        <pt x="1150" y="500" on="1"/>
        <pt x="1150" y="100" on="0"/>
        <pt x="1500" y="100" on="1"/>
        <pt x="1850" y="100" on="0"/>
        <pt x="1850" y="500" on="1"/>
      </contour>
    </TTGlyph>
    <TTGlyph name="uni17A0" xMin="100" yMin="0" xMax="1950" yMax="1500">
      <contour>
        <pt x="250" y="1100" on="1"/>
        <pt x="250" y="1170" on="0"/>
        <pt x="100" y="1250" on="1"/>
        <pt x="100" y="1350" on="1"/>
        <pt x="100" y="1500" on="0"/>
        <pt x="250" y="1500" on="1"/>
        <pt x="400" y="1500" on="1"/>
        <pt x="400" y="1400" on="1"/>
        <pt x="250" y="1400" on="1"/>
        <pt x="200" y="1400" on="0"/>
        <pt x="200" y="1350" on="1"/>
        <pt x="200" y="1300" on="1"/>
        <pt x="350" y="1220" on="0"/>
        <pt x="350" y="1100" on="1"/>
        <pt x="350" y="500" on="1"/>
        <pt x="350" y="100" on="0"/>
        <pt x="700" y="100" on="1"/>
        <pt x="1050" y="100" on="0"/>
        <pt x="1050" y="500" on="1"/>
        <pt x="1050" y="1000" on="1"/>
        <pt x="1050" y="1500" on="0"/>
        <pt x="1500" y="1500" on="1"/>
        <pt x="1950" y="1500" on="0"/>
        <pt x="1950" y="1000" on="1"/>
        <pt x="1950" y="0" on="1"/>
        <pt x="1850" y="0" on="1"/>
        <pt x="1850" y="1000" on="1"/>
        <pt x="1850" y="1400" on="0"/>
        <pt x="1500" y="1400" on="1"/>
        <pt x="1150" y="1400" on="0"/>
        <pt x="1150" y="1000" on="1"/>
        <pt x="1150" y="500" on="1"/>
        <pt x="1150" y="0" on="0"/>
        <pt x="700" y="0" on="1"/>
        <pt x="250" y="0" on="0"/>
        <pt x="250" y="500" on="1"/>
      </contour>
    </TTGlyph>
    <TTGlyph name="uni17A1" xMin="250" yMin="-650" xMax="1900" yMax="1500">
      <contour>
        <pt x="1110" y="501" on="1"/>
        <pt x="1110" y="400" on="1"/>
        <pt x="1110" y="0" on="0"/>
        <pt x="750" y="0" on="1"/>
        <pt x="390" y="0" on="0"/>
        <pt x="390" y="400" on="1"/>
        <pt x="390" y="600" on="1"/>
        <pt x="490" y="600" on="1"/>
        <pt x="490" y="400" on="1"/>
        <pt x="490" y="100" on="0"/>
        <pt x="750" y="100" on="1"/>
        <pt x="1010" y="100" on="0"/>
        <pt x="1010" y="400" on="1"/>
        <pt x="1010" y="525" on="1"/>
        <pt x="250" y="724" on="0"/>
        <pt x="250" y="1100" on="1"/>
        <pt x="250" y="1500" on="0"/>
        <pt x="750" y="1500" on="1"/>
        <pt x="1250" y="1500" on="0"/>
        <pt x="1250" y="1100" on="1"/>
        <pt x="1250" y="821" on="0"/>
        <pt x="1042" y="821" on="1"/>
        <pt x="979" y="821" on="0"/>
        <pt x="940" y="850" on="1"/>
        <pt x="940" y="950" on="1"/>
        <pt x="1011" y="929" on="0"/>
        <pt x="1056" y="929" on="1"/>
        <pt x="1150" y="929" on="0"/>
        <pt x="1150" y="1100" on="1"/>
        <pt x="1150" y="1400" on="0"/>
        <pt x="750" y="1400" on="1"/>
        <pt x="350" y="1400" on="0"/>
        <pt x="350" y="1100" on="1"/>
        <pt x="350" y="791" on="0"/>
        <pt x="1010" y="615" on="1"/>
        <pt x="1010" y="640" on="1"/>
        <pt x="1010" y="760" on="0"/>
        <pt x="1130" y="760" on="1"/>
        <pt x="1250" y="760" on="0"/>
        <pt x="1250" y="635" on="1"/>
        <pt x="1250" y="560" on="0"/>
        <pt x="1182" y="498" on="0"/>
        <pt x="1143" y="498" on="1"/>
        <pt x="1127" y="498" on="0"/>
      </contour>
      <contour>
        <pt x="1110" y="591" on="1"/>
        <pt x="1121" y="589" on="0"/>
        <pt x="1131" y="589" on="1"/>
        <pt x="1170" y="589" on="0"/>
        <pt x="1170" y="630" on="1"/>
        <pt x="1170" y="670" on="0"/>
        <pt x="1140" y="670" on="1"/>
        <pt x="1110" y="670" on="0"/>
        <pt x="1110" y="631" on="1"/>
      </contour>
      <contour>
        <pt x="1250" y="-250" on="1"/>
        <pt x="1250" y="-550" on="1"/>
        <pt x="1500" y="-300" on="1"/>
        <pt x="1750" y="-550" on="1"/>
        <pt x="1750" y="1100" on="1"/>
        <pt x="1750" y="1170" on="0"/>
        <pt x="1600" y="1250" on="1"/>
        <pt x="1600" y="1350" on="1"/>
        <pt x="1600" y="1500" on="0"/>
        <pt x="1750" y="1500" on="1"/>
        <pt x="1900" y="1500" on="1"/>
        <pt x="1900" y="1400" on="1"/>
        <pt x="1750" y="1400" on="1"/>
        <pt x="1700" y="1400" on="0"/>
        <pt x="1700" y="1350" on="1"/>
        <pt x="1700" y="1300" on="1"/>
        <pt x="1850" y="1220" on="0"/>
        <pt x="1850" y="1100" on="1"/>
        <pt x="1850" y="-650" on="1"/>
        <pt x="1700" y="-650" on="1"/>
        <pt x="1500" y="-450" on="1"/>
        <pt x="1300" y="-650" on="1"/>
        <pt x="1150" y="-650" on="1"/>
        <pt x="1150" y="-250" on="1"/>
        <pt x="1150" y="-219" on="0"/>
        <pt x="1136" y="-200" on="0"/>
        <pt x="1125" y="-200" on="1"/>
        <pt x="1114" y="-200" on="0"/>
        <pt x="1100" y="-219" on="0"/>
        <pt x="1100" y="-250" on="1"/>
        <pt x="1100" y="-300" on="1"/>
        <pt x="1000" y="-300" on="1"/>
        <pt x="1000" y="-250" on="1"/>
        <pt x="1000" y="-177" on="0"/>
        <pt x="1067" y="-100" on="0"/>
        <pt x="1125" y="-100" on="1"/>
        <pt x="1183" y="-100" on="0"/>
        <pt x="1250" y="-177" on="0"/>
      </contour>
    </TTGlyph>
    <TTGlyph name="uni17A2" xMin="100" yMin="0" xMax="1300" yMax="1500">
      <contour>
        <pt x="225" y="350" on="1"/>
        <pt x="214" y="350" on="0"/>
        <pt x="200" y="331" on="0"/>
        <pt x="200" y="225" on="1"/>
        <pt x="200" y="119" on="0"/>
        <pt x="214" y="100" on="0"/>
        <pt x="225" y="100" on="1"/>
        <pt x="236" y="100" on="0"/>
        <pt x="250" y="119" on="0"/>
        <pt x="250" y="225" on="1"/>
        <pt x="250" y="331" on="0"/>
        <pt x="236" y="350" on="0"/>
      </contour>
      <contour>
        <pt x="1125" y="350" on="1"/>
        <pt x="1114" y="350" on="0"/>
        <pt x="1100" y="331" on="0"/>
        <pt x="1100" y="225" on="1"/>
        <pt x="1100" y="119" on="0"/>
        <pt x="1114" y="100" on="0"/>
        <pt x="1125" y="100" on="1"/>
        <pt x="1136" y="100" on="0"/>
        <pt x="1150" y="119" on="0"/>
        <pt x="1150" y="225" on="1"/>
        <pt x="1150" y="331" on="0"/>
        <pt x="1136" y="350" on="0"/>
      </contour>
      <contour>
        <pt x="350" y="700" on="1"/>
        <pt x="350" y="225" on="1"/>
        <pt x="350" y="97" on="0"/>
        <pt x="283" y="0" on="0"/>
        <pt x="225" y="0" on="1"/>
        <pt x="167" y="0" on="0"/>
        <pt x="100" y="97" on="0"/>
        <pt x="100" y="225" on="1"/>
        <pt x="100" y="353" on="0"/>
        <pt x="167" y="450" on="0"/>
        <pt x="225" y="450" on="1"/>
        <pt x="238" y="450" on="0"/>
        <pt x="250" y="448" on="1"/>
        <pt x="250" y="1100" on="1"/>
        <pt x="250" y="1170" on="0"/>
        <pt x="100" y="1250" on="1"/>
        <pt x="100" y="1350" on="1"/>
        <pt x="100" y="1500" on="0"/>
        <pt x="250" y="1500" on="1"/>
        <pt x="400" y="1500" on="1"/>
        <pt x="400" y="1400" on="1"/>
        <pt x="250" y="1400" on="1"/>
        <pt x="200" y="1400" on="0"/>
        <pt x="200" y="1350" on="1"/>
        <pt x="200" y="1300" on="1"/>
        <pt x="350" y="1220" on="0"/>
        <pt x="350" y="1100" on="1"/>
        <pt x="350" y="800" on="1"/>
        <pt x="1150" y="800" on="1"/>
        <pt x="1150" y="1100" on="1"/>
        <pt x="1150" y="1170" on="0"/>
        <pt x="1000" y="1250" on="1"/>
        <pt x="1000" y="1350" on="1"/>
        <pt x="1000" y="1500" on="0"/>
        <pt x="1150" y="1500" on="1"/>
        <pt x="1300" y="1500" on="1"/>
        <pt x="1300" y="1400" on="1"/>
        <pt x="1150" y="1400" on="1"/>
        <pt x="1100" y="1400" on="0"/>
        <pt x="1100" y="1350" on="1"/>
        <pt x="1100" y="1300" on="1"/>
        <pt x="1250" y="1220" on="0"/>
        <pt x="1250" y="1100" on="1"/>
        <pt x="1250" y="225" on="1"/>
        <pt x="1250" y="97" on="0"/>
        <pt x="1183" y="0" on="0"/>
        <pt x="1125" y="0" on="1"/>
        <pt x="1067" y="0" on="0"/>
        <pt x="1000" y="97" on="0"/>
        <pt x="1000" y="225" on="1"/>
        <pt x="1000" y="353" on="0"/>
        <pt x="1067" y="450" on="0"/>
        <pt x="1125" y="450" on="1"/>
        <pt x="1138" y="450" on="0"/>
        <pt x="1150" y="448" on="1"/>
        <pt x="1150" y="700" on="1"/>
      </contour>
    </TTGlyph>
    <TTGlyph name="uni17A3" xMin="100" yMin="0" xMax="1300" yMax="1500">
      <contour>
        <pt x="225" y="350" on="1"/>
        <pt x="214" y="350" on="0"/>
        <pt x="200" y="331" on="0"/>
        <pt x="200" y="225" on="1"/>
        <pt x="200" y="119" on="0"/>
        <pt x="214" y="100" on="0"/>
        <pt x="225" y="100" on="1"/>
        <pt x="236" y="100" on="0"/>
        <pt x="250" y="119" on="0"/>
        <pt x="250" y="225" on="1"/>
        <pt x="250" y="331" on="0"/>
        <pt x="236" y="350" on="0"/>
      </contour>
      <contour>
        <pt x="1125" y="350" on="1"/>
        <pt x="1114" y="350" on="0"/>
        <pt x="1100" y="331" on="0"/>
        <pt x="1100" y="225" on="1"/>
        <pt x="1100" y="119" on="0"/>
        <pt x="1114" y="100" on="0"/>
        <pt x="1125" y="100" on="1"/>
        <pt x="1136" y="100" on="0"/>
        <pt x="1150" y="119" on="0"/>
        <pt x="1150" y="225" on="1"/>
        <pt x="1150" y="331" on="0"/>
        <pt x="1136" y="350" on="0"/>
      </contour>
      <contour>
        <pt x="350" y="700" on="1"/>
        <pt x="350" y="225" on="1"/>
        <pt x="350" y="97" on="0"/>
        <pt x="283" y="0" on="0"/>
        <pt x="225" y="0" on="1"/>
        <pt x="167" y="0" on="0"/>
        <pt x="100" y="97" on="0"/>
        <pt x="100" y="225" on="1"/>
        <pt x="100" y="353" on="0"/>
        <pt x="167" y="450" on="0"/>
        <pt x="225" y="450" on="1"/>
        <pt x="238" y="450" on="0"/>
        <pt x="250" y="448" on="1"/>
        <pt x="250" y="1100" on="1"/>
        <pt x="250" y="1170" on="0"/>
        <pt x="100" y="1250" on="1"/>
        <pt x="100" y="1350" on="1"/>
        <pt x="100" y="1500" on="0"/>
        <pt x="250" y="1500" on="1"/>
        <pt x="400" y="1500" on="1"/>
        <pt x="400" y="1400" on="1"/>
        <pt x="250" y="1400" on="1"/>
        <pt x="200" y="1400" on="0"/>
        <pt x="200" y="1350" on="1"/>
        <pt x="200" y="1300" on="1"/>
        <pt x="350" y="1220" on="0"/>
        <pt x="350" y="1100" on="1"/>
        <pt x="350" y="800" on="1"/>
        <pt x="1150" y="800" on="1"/>
        <pt x="1150" y="1100" on="1"/>
        <pt x="1150" y="1170" on="0"/>
        <pt x="1000" y="1250" on="1"/>
        <pt x="1000" y="1350" on="1"/>
        <pt x="1000" y="1500" on="0"/>
        <pt x="1150" y="1500" on="1"/>
        <pt x="1300" y="1500" on="1"/>
        <pt x="1300" y="1400" on="1"/>
        <pt x="1150" y="1400" on="1"/>
        <pt x="1100" y="1400" on="0"/>
        <pt x="1100" y="1350" on="1"/>
        <pt x="1100" y="1300" on="1"/>
        <pt x="1250" y="1220" on="0"/>
        <pt x="1250" y="1100" on="1"/>
        <pt x="1250" y="225" on="1"/>
        <pt x="1250" y="97" on="0"/>
        <pt x="1183" y="0" on="0"/>
        <pt x="1125" y="0" on="1"/>
        <pt x="1067" y="0" on="0"/>
        <pt x="1000" y="97" on="0"/>
        <pt x="1000" y="225" on="1"/>
        <pt x="1000" y="353" on="0"/>
        <pt x="1067" y="450" on="0"/>
        <pt x="1125" y="450" on="1"/>
        <pt x="1138" y="450" on="0"/>
        <pt x="1150" y="448" on="1"/>
        <pt x="1150" y="700" on="1"/>
      </contour>
    </TTGlyph>
    <TTGlyph name="uni17A4" xMin="100" yMin="0" xMax="1950" yMax="1500">
      <contour>
        <pt x="225" y="350" on="1"/>
        <pt x="214" y="350" on="0"/>
        <pt x="200" y="331" on="0"/>
        <pt x="200" y="225" on="1"/>
        <pt x="200" y="119" on="0"/>
        <pt x="214" y="100" on="0"/>
        <pt x="225" y="100" on="1"/>
        <pt x="236" y="100" on="0"/>
        <pt x="250" y="119" on="0"/>
        <pt x="250" y="225" on="1"/>
        <pt x="250" y="331" on="0"/>
        <pt x="236" y="350" on="0"/>
      </contour>
      <contour>
        <pt x="1125" y="350" on="1"/>
        <pt x="1114" y="350" on="0"/>
        <pt x="1100" y="331" on="0"/>
        <pt x="1100" y="225" on="1"/>
        <pt x="1100" y="119" on="0"/>
        <pt x="1114" y="100" on="0"/>
        <pt x="1125" y="100" on="1"/>
        <pt x="1136" y="100" on="0"/>
        <pt x="1150" y="119" on="0"/>
        <pt x="1150" y="225" on="1"/>
        <pt x="1150" y="331" on="0"/>
        <pt x="1136" y="350" on="0"/>
      </contour>
      <contour>
        <pt x="1150" y="1400" on="1"/>
        <pt x="1100" y="1400" on="0"/>
        <pt x="1100" y="1350" on="1"/>
        <pt x="1100" y="1300" on="1"/>
        <pt x="1250" y="1220" on="0"/>
        <pt x="1250" y="1100" on="1"/>
        <pt x="1250" y="225" on="1"/>
        <pt x="1250" y="97" on="0"/>
        <pt x="1183" y="0" on="0"/>
        <pt x="1125" y="0" on="1"/>
        <pt x="1067" y="0" on="0"/>
        <pt x="1000" y="97" on="0"/>
        <pt x="1000" y="225" on="1"/>
        <pt x="1000" y="353" on="0"/>
        <pt x="1067" y="450" on="0"/>
        <pt x="1125" y="450" on="1"/>
        <pt x="1138" y="450" on="0"/>
        <pt x="1150" y="448" on="1"/>
        <pt x="1150" y="700" on="1"/>
        <pt x="350" y="700" on="1"/>
        <pt x="350" y="225" on="1"/>
        <pt x="350" y="97" on="0"/>
        <pt x="283" y="0" on="0"/>
        <pt x="225" y="0" on="1"/>
        <pt x="167" y="0" on="0"/>
        <pt x="100" y="97" on="0"/>
        <pt x="100" y="225" on="1"/>
        <pt x="100" y="353" on="0"/>
        <pt x="167" y="450" on="0"/>
        <pt x="225" y="450" on="1"/>
        <pt x="238" y="450" on="0"/>
        <pt x="250" y="448" on="1"/>
        <pt x="250" y="1100" on="1"/>
        <pt x="250" y="1170" on="0"/>
        <pt x="100" y="1250" on="1"/>
        <pt x="100" y="1350" on="1"/>
        <pt x="100" y="1500" on="0"/>
        <pt x="250" y="1500" on="1"/>
        <pt x="400" y="1500" on="1"/>
        <pt x="400" y="1400" on="1"/>
        <pt x="250" y="1400" on="1"/>
        <pt x="200" y="1400" on="0"/>
        <pt x="200" y="1350" on="1"/>
        <pt x="200" y="1300" on="1"/>
        <pt x="350" y="1220" on="0"/>
        <pt x="350" y="1100" on="1"/>
        <pt x="350" y="800" on="1"/>
        <pt x="1150" y="800" on="1"/>
        <pt x="1150" y="1100" on="1"/>
        <pt x="1150" y="1170" on="0"/>
        <pt x="1000" y="1250" on="1"/>
        <pt x="1000" y="1350" on="1"/>
        <pt x="1000" y="1500" on="0"/>
        <pt x="1150" y="1500" on="1"/>
        <pt x="1550" y="1500" on="1"/>
        <pt x="1950" y="1500" on="0"/>
        <pt x="1950" y="1100" on="1"/>
        <pt x="1950" y="0" on="1"/>
        <pt x="1850" y="0" on="1"/>
        <pt x="1850" y="1100" on="1"/>
        <pt x="1850" y="1400" on="0"/>
        <pt x="1550" y="1400" on="1"/>
      </contour>
    </TTGlyph>
    <TTGlyph name="uni17A5" xMin="200" yMin="0" xMax="1250" yMax="1650">
      <contour>
        <pt x="400" y="350" on="1"/>
        <pt x="379" y="350" on="0"/>
        <pt x="350" y="311" on="0"/>
        <pt x="350" y="225" on="1"/>
        <pt x="350" y="139" on="0"/>
        <pt x="379" y="100" on="0"/>
        <pt x="400" y="100" on="1"/>
        <pt x="421" y="100" on="0"/>
        <pt x="450" y="139" on="0"/>
        <pt x="450" y="225" on="1"/>
        <pt x="450" y="311" on="0"/>
        <pt x="421" y="350" on="0"/>
      </contour>
      <contour>
        <pt x="250" y="700" on="1"/>
        <pt x="250" y="1200" on="0"/>
        <pt x="750" y="1200" on="1"/>
        <pt x="1250" y="1200" on="0"/>
        <pt x="1250" y="700" on="1"/>
        <pt x="1250" y="0" on="1"/>
        <pt x="1150" y="0" on="1"/>
        <pt x="1150" y="700" on="1"/>
        <pt x="1150" y="1100" on="0"/>
        <pt x="750" y="1100" on="1"/>
        <pt x="350" y="1100" on="0"/>
        <pt x="350" y="700" on="1"/>
        <pt x="350" y="440" on="1"/>
        <pt x="373" y="450" on="0"/>
        <pt x="400" y="450" on="1"/>
        <pt x="463" y="450" on="0"/>
        <pt x="550" y="343" on="0"/>
        <pt x="550" y="225" on="1"/>
        <pt x="550" y="107" on="0"/>
        <pt x="463" y="0" on="0"/>
        <pt x="400" y="0" on="1"/>
        <pt x="337" y="0" on="0"/>
        <pt x="294" y="54" on="1"/>
        <pt x="260" y="95" on="0"/>
        <pt x="252" y="175" on="1"/>
        <pt x="250" y="175" on="1"/>
      </contour>
      <contour>
        <pt x="250" y="1100" on="1"/>
        <pt x="250" y="1170" on="0"/>
        <pt x="200" y="1250" on="1"/>
        <pt x="200" y="1300" on="1"/>
        <pt x="200" y="1500" on="0"/>
        <pt x="400" y="1500" on="1"/>
        <pt x="700" y="1500" on="1"/>
        <pt x="930" y="1350" on="1"/>
        <pt x="1080" y="1350" on="1"/>
        <pt x="1150" y="1350" on="0"/>
        <pt x="1150" y="1420" on="1"/>
        <pt x="1150" y="1650" on="1"/>
        <pt x="1250" y="1650" on="1"/>
        <pt x="1250" y="1420" on="1"/>
        <pt x="1250" y="1250" on="0"/>
        <pt x="1080" y="1250" on="1"/>
        <pt x="900" y="1250" on="1"/>
        <pt x="670" y="1400" on="1"/>
        <pt x="400" y="1400" on="1"/>
        <pt x="300" y="1400" on="0"/>
        <pt x="300" y="1300" on="1"/>
        <pt x="300" y="1290" on="1"/>
        <pt x="350" y="1210" on="0"/>
        <pt x="350" y="1100" on="1"/>
      </contour>
    </TTGlyph>
    <TTGlyph name="uni17A6" xMin="250" yMin="-650" xMax="1850" yMax="2400">
      <contour>
        <pt x="400" y="350" on="1"/>
        <pt x="379" y="350" on="0"/>
        <pt x="350" y="311" on="0"/>
        <pt x="350" y="225" on="1"/>
        <pt x="350" y="139" on="0"/>
        <pt x="379" y="100" on="0"/>
        <pt x="400" y="100" on="1"/>
        <pt x="421" y="100" on="0"/>
        <pt x="450" y="139" on="0"/>
        <pt x="450" y="225" on="1"/>
        <pt x="450" y="311" on="0"/>
        <pt x="421" y="350" on="0"/>
      </contour>
      <contour>
        <pt x="250" y="1000" on="1"/>
        <pt x="250" y="1500" on="0"/>
        <pt x="750" y="1500" on="1"/>
        <pt x="1250" y="1500" on="0"/>
        <pt x="1250" y="1000" on="1"/>
        <pt x="1250" y="0" on="1"/>
        <pt x="1150" y="0" on="1"/>
        <pt x="1150" y="1000" on="1"/>
        <pt x="1150" y="1400" on="0"/>
        <pt x="750" y="1400" on="1"/>
        <pt x="350" y="1400" on="0"/>
        <pt x="350" y="1000" on="1"/>
        <pt x="350" y="440" on="1"/>
        <pt x="373" y="450" on="0"/>
        <pt x="400" y="450" on="1"/>
        <pt x="463" y="450" on="0"/>
        <pt x="550" y="343" on="0"/>
        <pt x="550" y="225" on="1"/>
        <pt x="550" y="107" on="0"/>
        <pt x="463" y="0" on="0"/>
        <pt x="400" y="0" on="1"/>
        <pt x="337" y="0" on="0"/>
        <pt x="294" y="54" on="1"/>
        <pt x="260" y="95" on="0"/>
        <pt x="252" y="175" on="1"/>
        <pt x="250" y="175" on="1"/>
      </contour>
      <contour>
        <pt x="430" y="-550" on="1"/>
        <pt x="451" y="-550" on="0"/>
        <pt x="460" y="-531" on="0"/>
        <pt x="460" y="-515" on="1"/>
        <pt x="460" y="-499" on="0"/>
        <pt x="451" y="-480" on="0"/>
        <pt x="430" y="-480" on="1"/>
        <pt x="409" y="-480" on="0"/>
        <pt x="400" y="-499" on="0"/>
        <pt x="400" y="-515" on="1"/>
        <pt x="400" y="-531" on="0"/>
        <pt x="409" y="-550" on="0"/>
      </contour>
      <contour>
        <pt x="1200" y="-350" on="1"/>
        <pt x="1200" y="-550" on="0"/>
        <pt x="1475" y="-550" on="1"/>
        <pt x="1750" y="-550" on="0"/>
        <pt x="1750" y="-250" on="1"/>
        <pt x="1750" y="1600" on="1"/>
        <pt x="1750" y="1900" on="0"/>
        <pt x="1450" y="1900" on="1"/>
        <pt x="1150" y="1900" on="1"/>
        <pt x="1150" y="2200" on="1"/>
        <pt x="1150" y="2300" on="0"/>
        <pt x="1050" y="2300" on="1"/>
        <pt x="1000" y="2300" on="1"/>
        <pt x="1000" y="2400" on="1"/>
        <pt x="1050" y="2400" on="1"/>
        <pt x="1250" y="2400" on="0"/>
        <pt x="1250" y="2200" on="1"/>
        <pt x="1250" y="2000" on="1"/>
        <pt x="1450" y="2000" on="1"/>
        <pt x="1850" y="2000" on="0"/>
        <pt x="1850" y="1600" on="1"/>
        <pt x="1850" y="-250" on="1"/>
        <pt x="1850" y="-650" on="0"/>
        <pt x="1475" y="-650" on="1"/>
        <pt x="1100" y="-650" on="0"/>
        <pt x="1100" y="-350" on="1"/>
        <pt x="1100" y="-200" on="0"/>
        <pt x="750" y="-200" on="1"/>
        <pt x="400" y="-200" on="0"/>
        <pt x="400" y="-383" on="1"/>
        <pt x="414" y="-380" on="0"/>
        <pt x="425" y="-380" on="1"/>
        <pt x="473" y="-380" on="0"/>
        <pt x="550" y="-447" on="0"/>
        <pt x="550" y="-515" on="1"/>
        <pt x="550" y="-583" on="0"/>
        <pt x="473" y="-650" on="0"/>
        <pt x="425" y="-650" on="1"/>
        <pt x="377" y="-650" on="0"/>
        <pt x="300" y="-583" on="0"/>
        <pt x="300" y="-515" on="1"/>
        <pt x="300" y="-400" on="1"/>
        <pt x="300" y="-100" on="0"/>
        <pt x="750" y="-100" on="1"/>
        <pt x="1200" y="-100" on="0"/>
      </contour>
    </TTGlyph>
    <TTGlyph name="uni17A7" xMin="250" yMin="0" xMax="1250" yMax="1500">
      <contour>
        <pt x="1150" y="750" on="0"/>
        <pt x="1150" y="1100" on="1"/>
        <pt x="1150" y="1400" on="0"/>
        <pt x="750" y="1400" on="1"/>
        <pt x="350" y="1400" on="0"/>
        <pt x="350" y="1100" on="1"/>
        <pt x="350" y="929" on="0"/>
        <pt x="444" y="929" on="1"/>
        <pt x="489" y="929" on="0"/>
        <pt x="560" y="950" on="1"/>
        <pt x="560" y="850" on="1"/>
        <pt x="521" y="821" on="0"/>
        <pt x="458" y="821" on="1"/>
        <pt x="250" y="821" on="0"/>
        <pt x="250" y="1100" on="1"/>
        <pt x="250" y="1500" on="0"/>
        <pt x="750" y="1500" on="1"/>
        <pt x="1250" y="1500" on="0"/>
        <pt x="1250" y="1100" on="1"/>
        <pt x="1250" y="680" on="0"/>
        <pt x="350" y="500" on="1"/>
        <pt x="350" y="400" on="1"/>
        <pt x="350" y="100" on="0"/>
        <pt x="530" y="100" on="1"/>
        <pt x="686" y="100" on="0"/>
        <pt x="1150" y="400" on="1"/>
        <pt x="1150" y="600" on="1"/>
        <pt x="1250" y="600" on="1"/>
        <pt x="1250" y="0" on="1"/>
        <pt x="1150" y="0" on="1"/>
        <pt x="1150" y="300" on="1"/>
        <pt x="736" y="0" on="0"/>
        <pt x="530" y="0" on="1"/>
        <pt x="250" y="0" on="0"/>
        <pt x="250" y="400" on="1"/>
        <pt x="250" y="560" on="1"/>
      </contour>
    </TTGlyph>
    <TTGlyph name="uni17A8" xMin="250" yMin="0" xMax="1250" yMax="1850">
      <contour>
        <pt x="1150" y="750" on="0"/>
        <pt x="1150" y="1100" on="1"/>
        <pt x="1150" y="1400" on="0"/>
        <pt x="750" y="1400" on="1"/>
        <pt x="350" y="1400" on="0"/>
        <pt x="350" y="1100" on="1"/>
        <pt x="350" y="929" on="0"/>
        <pt x="444" y="929" on="1"/>
        <pt x="489" y="929" on="0"/>
        <pt x="560" y="950" on="1"/>
        <pt x="560" y="850" on="1"/>
        <pt x="521" y="821" on="0"/>
        <pt x="458" y="821" on="1"/>
        <pt x="250" y="821" on="0"/>
        <pt x="250" y="1100" on="1"/>
        <pt x="250" y="1500" on="0"/>
        <pt x="750" y="1500" on="1"/>
        <pt x="1250" y="1500" on="0"/>
        <pt x="1250" y="1100" on="1"/>
        <pt x="1250" y="680" on="0"/>
        <pt x="350" y="500" on="1"/>
        <pt x="350" y="400" on="1"/>
        <pt x="350" y="100" on="0"/>
        <pt x="530" y="100" on="1"/>
        <pt x="686" y="100" on="0"/>
        <pt x="1150" y="400" on="1"/>
        <pt x="1150" y="600" on="1"/>
        <pt x="1250" y="600" on="1"/>
        <pt x="1250" y="0" on="1"/>
        <pt x="1150" y="0" on="1"/>
        <pt x="1150" y="300" on="1"/>
        <pt x="736" y="0" on="0"/>
        <pt x="530" y="0" on="1"/>
        <pt x="250" y="0" on="0"/>
        <pt x="250" y="400" on="1"/>
        <pt x="250" y="560" on="1"/>
      </contour>
      <contour>
        <pt x="750" y="1600" on="1"/>
        <pt x="500" y="1740" on="1"/>
        <pt x="290" y="1590" on="1"/>
        <pt x="250" y="1680" on="1"/>
        <pt x="500" y="1850" on="1"/>
        <pt x="750" y="1710" on="1"/>
        <pt x="1000" y="1850" on="1"/>
        <pt x="1250" y="1680" on="1"/>
        <pt x="1210" y="1590" on="1"/>
        <pt x="1000" y="1740" on="1"/>
      </contour>
    </TTGlyph>
    <TTGlyph name="uni17A9" xMin="250" yMin="0" xMax="1250" yMax="1500">
      <contour>
        <pt x="1000" y="420" on="1"/>
        <pt x="1000" y="600" on="1"/>
        <pt x="1100" y="600" on="1"/>
        <pt x="1100" y="0" on="1"/>
        <pt x="1000" y="0" on="1"/>
        <pt x="1000" y="300" on="1"/>
        <pt x="736" y="0" on="0"/>
        <pt x="530" y="0" on="1"/>
        <pt x="250" y="0" on="0"/>
        <pt x="250" y="400" on="1"/>
        <pt x="250" y="560" on="1"/>
        <pt x="1150" y="750" on="0"/>
        <pt x="1150" y="1100" on="1"/>
        <pt x="1150" y="1400" on="0"/>
        <pt x="750" y="1400" on="1"/>
        <pt x="350" y="1400" on="0"/>
        <pt x="350" y="1100" on="1"/>
        <pt x="350" y="929" on="0"/>
        <pt x="444" y="929" on="1"/>
        <pt x="489" y="929" on="0"/>
        <pt x="560" y="950" on="1"/>
        <pt x="560" y="850" on="1"/>
        <pt x="521" y="821" on="0"/>
        <pt x="458" y="821" on="1"/>
        <pt x="250" y="821" on="0"/>
        <pt x="250" y="1100" on="1"/>
        <pt x="250" y="1500" on="0"/>
        <pt x="750" y="1500" on="1"/>
        <pt x="1250" y="1500" on="0"/>
        <pt x="1250" y="1100" on="1"/>
        <pt x="1250" y="680" on="0"/>
        <pt x="350" y="500" on="1"/>
        <pt x="350" y="400" on="1"/>
        <pt x="350" y="100" on="0"/>
        <pt x="530" y="100" on="1"/>
        <pt x="686" y="100" on="0"/>
      </contour>
      <contour>
        <pt x="1150" y="600" on="1"/>
        <pt x="1250" y="600" on="1"/>
        <pt x="1250" y="0" on="1"/>
        <pt x="1150" y="0" on="1"/>
      </contour>
    </TTGlyph>
    <TTGlyph name="uni17AA" xMin="200" yMin="0" xMax="1250" yMax="1950">
      <contour>
        <pt x="1150" y="750" on="0"/>
        <pt x="1150" y="1100" on="1"/>
        <pt x="1150" y="1400" on="0"/>
        <pt x="750" y="1400" on="1"/>
        <pt x="350" y="1400" on="0"/>
        <pt x="350" y="1100" on="1"/>
        <pt x="350" y="929" on="0"/>
        <pt x="444" y="929" on="1"/>
        <pt x="489" y="929" on="0"/>
        <pt x="560" y="950" on="1"/>
        <pt x="560" y="850" on="1"/>
        <pt x="521" y="821" on="0"/>
        <pt x="458" y="821" on="1"/>
        <pt x="250" y="821" on="0"/>
        <pt x="250" y="1100" on="1"/>
        <pt x="250" y="1500" on="0"/>
        <pt x="750" y="1500" on="1"/>
        <pt x="1250" y="1500" on="0"/>
        <pt x="1250" y="1100" on="1"/>
        <pt x="1250" y="680" on="0"/>
        <pt x="350" y="500" on="1"/>
        <pt x="350" y="400" on="1"/>
        <pt x="350" y="100" on="0"/>
        <pt x="530" y="100" on="1"/>
        <pt x="686" y="100" on="0"/>
        <pt x="1150" y="400" on="1"/>
        <pt x="1150" y="600" on="1"/>
        <pt x="1250" y="600" on="1"/>
        <pt x="1250" y="0" on="1"/>
        <pt x="1150" y="0" on="1"/>
        <pt x="1150" y="300" on="1"/>
        <pt x="736" y="0" on="0"/>
        <pt x="530" y="0" on="1"/>
        <pt x="250" y="0" on="0"/>
        <pt x="250" y="400" on="1"/>
        <pt x="250" y="560" on="1"/>
      </contour>
      <contour>
        <pt x="250" y="1400" on="1"/>
        <pt x="250" y="1470" on="0"/>
        <pt x="200" y="1550" on="1"/>
        <pt x="200" y="1600" on="1"/>
        <pt x="200" y="1800" on="0"/>
        <pt x="400" y="1800" on="1"/>
        <pt x="700" y="1800" on="1"/>
        <pt x="930" y="1650" on="1"/>
        <pt x="1080" y="1650" on="1"/>
        <pt x="1150" y="1650" on="0"/>
        <pt x="1150" y="1720" on="1"/>
        <pt x="1150" y="1950" on="1"/>
        <pt x="1250" y="1950" on="1"/>
        <pt x="1250" y="1720" on="1"/>
        <pt x="1250" y="1550" on="0"/>
        <pt x="1080" y="1550" on="1"/>
        <pt x="900" y="1550" on="1"/>
        <pt x="670" y="1700" on="1"/>
        <pt x="400" y="1700" on="1"/>
        <pt x="300" y="1700" on="0"/>
        <pt x="300" y="1600" on="1"/>
        <pt x="300" y="1590" on="1"/>
        <pt x="350" y="1510" on="0"/>
        <pt x="350" y="1400" on="1"/>
      </contour>
    </TTGlyph>
    <TTGlyph name="uni17AB" xMin="100" yMin="-500" xMax="1300" yMax="1500">
      <contour>
        <pt x="1250" y="-50" on="1"/>
        <pt x="1250" y="-187" on="1"/>
        <pt x="1250" y="-500" on="0"/>
        <pt x="723" y="-500" on="1"/>
        <pt x="444" y="-500" on="0"/>
        <pt x="207" y="-374" on="1"/>
        <pt x="261" y="-277" on="1"/>
        <pt x="467" y="-400" on="0"/>
        <pt x="723" y="-400" on="1"/>
        <pt x="1150" y="-400" on="0"/>
        <pt x="1150" y="-187" on="1"/>
        <pt x="1150" y="-50" on="1"/>
      </contour>
      <contour>
        <pt x="1150" y="1100" on="1"/>
        <pt x="1150" y="1170" on="0"/>
        <pt x="1000" y="1250" on="1"/>
        <pt x="1000" y="1350" on="1"/>
        <pt x="1000" y="1500" on="0"/>
        <pt x="1150" y="1500" on="1"/>
        <pt x="1300" y="1500" on="1"/>
        <pt x="1300" y="1400" on="1"/>
        <pt x="1150" y="1400" on="1"/>
        <pt x="1100" y="1400" on="0"/>
        <pt x="1100" y="1350" on="1"/>
        <pt x="1100" y="1300" on="1"/>
        <pt x="1250" y="1220" on="0"/>
        <pt x="1250" y="1100" on="1"/>
        <pt x="1250" y="500" on="1"/>
        <pt x="1250" y="0" on="0"/>
        <pt x="750" y="0" on="1"/>
        <pt x="250" y="0" on="0"/>
        <pt x="250" y="500" on="1"/>
        <pt x="250" y="1100" on="1"/>
        <pt x="250" y="1170" on="0"/>
        <pt x="100" y="1250" on="1"/>
        <pt x="100" y="1350" on="1"/>
        <pt x="100" y="1500" on="0"/>
        <pt x="250" y="1500" on="1"/>
        <pt x="400" y="1500" on="1"/>
        <pt x="400" y="1400" on="1"/>
        <pt x="250" y="1400" on="1"/>
        <pt x="200" y="1400" on="0"/>
        <pt x="200" y="1350" on="1"/>
        <pt x="200" y="1300" on="1"/>
        <pt x="350" y="1220" on="0"/>
        <pt x="350" y="1100" on="1"/>
        <pt x="350" y="500" on="1"/>
        <pt x="350" y="100" on="0"/>
        <pt x="750" y="100" on="1"/>
        <pt x="1150" y="100" on="0"/>
        <pt x="1150" y="500" on="1"/>
      </contour>
    </TTGlyph>
    <TTGlyph name="uni17AC" xMin="100" yMin="-600" xMax="1300" yMax="1500">
      <contour>
        <pt x="1150" y="1100" on="1"/>
        <pt x="1150" y="1170" on="0"/>
        <pt x="1000" y="1250" on="1"/>
        <pt x="1000" y="1350" on="1"/>
        <pt x="1000" y="1500" on="0"/>
        <pt x="1150" y="1500" on="1"/>
        <pt x="1300" y="1500" on="1"/>
        <pt x="1300" y="1400" on="1"/>
        <pt x="1150" y="1400" on="1"/>
        <pt x="1100" y="1400" on="0"/>
        <pt x="1100" y="1350" on="1"/>
        <pt x="1100" y="1300" on="1"/>
        <pt x="1250" y="1220" on="0"/>
        <pt x="1250" y="1100" on="1"/>
        <pt x="1250" y="500" on="1"/>
        <pt x="1250" y="0" on="0"/>
        <pt x="750" y="0" on="1"/>
        <pt x="250" y="0" on="0"/>
        <pt x="250" y="500" on="1"/>
        <pt x="250" y="1100" on="1"/>
        <pt x="250" y="1170" on="0"/>
        <pt x="100" y="1250" on="1"/>
        <pt x="100" y="1350" on="1"/>
        <pt x="100" y="1500" on="0"/>
        <pt x="250" y="1500" on="1"/>
        <pt x="400" y="1500" on="1"/>
        <pt x="400" y="1400" on="1"/>
        <pt x="250" y="1400" on="1"/>
        <pt x="200" y="1400" on="0"/>
        <pt x="200" y="1350" on="1"/>
        <pt x="200" y="1300" on="1"/>
        <pt x="350" y="1220" on="0"/>
        <pt x="350" y="1100" on="1"/>
        <pt x="350" y="500" on="1"/>
        <pt x="350" y="100" on="0"/>
        <pt x="750" y="100" on="1"/>
        <pt x="1150" y="100" on="0"/>
        <pt x="1150" y="500" on="1"/>
      </contour>
      <contour>
        <pt x="1135" y="-411" on="1"/>
        <pt x="1158" y="-458" on="0"/>
        <pt x="1183" y="-475" on="1"/>
        <pt x="1220" y="-500" on="0"/>
        <pt x="1300" y="-500" on="1"/>
        <pt x="1300" y="-600" on="1"/>
        <pt x="1180" y="-600" on="0"/>
        <pt x="1126" y="-560" on="1"/>
        <pt x="1082" y="-528" on="0"/>
        <pt x="1044" y="-456" on="1"/>
        <pt x="920" y="-500" on="0"/>
        <pt x="723" y="-500" on="1"/>
        <pt x="444" y="-500" on="0"/>
        <pt x="207" y="-374" on="1"/>
        <pt x="261" y="-277" on="1"/>
        <pt x="467" y="-400" on="0"/>
        <pt x="723" y="-400" on="1"/>
        <pt x="1150" y="-400" on="0"/>
        <pt x="1150" y="-187" on="1"/>
        <pt x="1150" y="-50" on="1"/>
        <pt x="1250" y="-50" on="1"/>
        <pt x="1250" y="-187" on="1"/>
        <pt x="1250" y="-333" on="0"/>
      </contour>
    </TTGlyph>
    <TTGlyph name="uni17AD" xMin="207" yMin="-500" xMax="1250" yMax="1500">
      <contour>
        <pt x="400" y="350" on="1"/>
        <pt x="379" y="350" on="0"/>
        <pt x="350" y="311" on="0"/>
        <pt x="350" y="225" on="1"/>
        <pt x="350" y="139" on="0"/>
        <pt x="379" y="100" on="0"/>
        <pt x="400" y="100" on="1"/>
        <pt x="421" y="100" on="0"/>
        <pt x="450" y="139" on="0"/>
        <pt x="450" y="225" on="1"/>
        <pt x="450" y="311" on="0"/>
        <pt x="421" y="350" on="0"/>
      </contour>
      <contour>
        <pt x="1150" y="1150" on="1"/>
        <pt x="980" y="1355" on="1"/>
        <pt x="750" y="1170" on="1"/>
        <pt x="520" y="1355" on="1"/>
        <pt x="350" y="1150" on="1"/>
        <pt x="350" y="440" on="1"/>
        <pt x="373" y="450" on="0"/>
        <pt x="400" y="450" on="1"/>
        <pt x="463" y="450" on="0"/>
        <pt x="550" y="343" on="0"/>
        <pt x="550" y="225" on="1"/>
        <pt x="550" y="107" on="0"/>
        <pt x="463" y="0" on="0"/>
        <pt x="400" y="0" on="1"/>
        <pt x="337" y="0" on="0"/>
        <pt x="294" y="54" on="1"/>
        <pt x="260" y="95" on="0"/>
        <pt x="252" y="175" on="1"/>
        <pt x="250" y="175" on="1"/>
        <pt x="250" y="1190" on="1"/>
        <pt x="510" y="1500" on="1"/>
        <pt x="750" y="1300" on="1"/>
        <pt x="990" y="1500" on="1"/>
        <pt x="1250" y="1190" on="1"/>
        <pt x="1250" y="-187" on="1"/>
        <pt x="1250" y="-500" on="0"/>
        <pt x="723" y="-500" on="1"/>
        <pt x="444" y="-500" on="0"/>
        <pt x="207" y="-374" on="1"/>
        <pt x="261" y="-277" on="1"/>
        <pt x="467" y="-400" on="0"/>
        <pt x="723" y="-400" on="1"/>
        <pt x="1150" y="-400" on="0"/>
        <pt x="1150" y="-187" on="1"/>
      </contour>
    </TTGlyph>
    <TTGlyph name="uni17AE" xMin="207" yMin="-600" xMax="1300" yMax="1500">
      <contour>
        <pt x="400" y="350" on="1"/>
        <pt x="379" y="350" on="0"/>
        <pt x="350" y="311" on="0"/>
        <pt x="350" y="225" on="1"/>
        <pt x="350" y="139" on="0"/>
        <pt x="379" y="100" on="0"/>
        <pt x="400" y="100" on="1"/>
        <pt x="421" y="100" on="0"/>
        <pt x="450" y="139" on="0"/>
        <pt x="450" y="225" on="1"/>
        <pt x="450" y="311" on="0"/>
        <pt x="421" y="350" on="0"/>
      </contour>
      <contour>
        <pt x="1150" y="1150" on="1"/>
        <pt x="980" y="1355" on="1"/>
        <pt x="750" y="1170" on="1"/>
        <pt x="520" y="1355" on="1"/>
        <pt x="350" y="1150" on="1"/>
        <pt x="350" y="440" on="1"/>
        <pt x="373" y="450" on="0"/>
        <pt x="400" y="450" on="1"/>
        <pt x="463" y="450" on="0"/>
        <pt x="550" y="343" on="0"/>
        <pt x="550" y="225" on="1"/>
        <pt x="550" y="107" on="0"/>
        <pt x="463" y="0" on="0"/>
        <pt x="400" y="0" on="1"/>
        <pt x="337" y="0" on="0"/>
        <pt x="294" y="54" on="1"/>
        <pt x="260" y="95" on="0"/>
        <pt x="252" y="175" on="1"/>
        <pt x="250" y="175" on="1"/>
        <pt x="250" y="1190" on="1"/>
        <pt x="510" y="1500" on="1"/>
        <pt x="750" y="1300" on="1"/>
        <pt x="990" y="1500" on="1"/>
        <pt x="1250" y="1190" on="1"/>
        <pt x="1250" y="-187" on="1"/>
        <pt x="1250" y="-333" on="0"/>
        <pt x="1135" y="-411" on="1"/>
        <pt x="1158" y="-458" on="0"/>
        <pt x="1183" y="-475" on="1"/>
        <pt x="1220" y="-500" on="0"/>
        <pt x="1300" y="-500" on="1"/>
        <pt x="1300" y="-600" on="1"/>
        <pt x="1180" y="-600" on="0"/>
        <pt x="1126" y="-560" on="1"/>
        <pt x="1082" y="-528" on="0"/>
        <pt x="1044" y="-456" on="1"/>
        <pt x="920" y="-500" on="0"/>
        <pt x="723" y="-500" on="1"/>
        <pt x="444" y="-500" on="0"/>
        <pt x="207" y="-374" on="1"/>
        <pt x="261" y="-277" on="1"/>
        <pt x="467" y="-400" on="0"/>
        <pt x="723" y="-400" on="1"/>
        <pt x="1150" y="-400" on="0"/>
        <pt x="1150" y="-187" on="1"/>
      </contour>
    </TTGlyph>
    <TTGlyph name="uni17AF" xMin="100" yMin="0" xMax="1250" yMax="1900">
      <contour>
        <pt x="225" y="800" on="1"/>
        <pt x="214" y="800" on="0"/>
        <pt x="200" y="781" on="0"/>
        <pt x="200" y="675" on="1"/>
        <pt x="200" y="569" on="0"/>
        <pt x="214" y="550" on="0"/>
        <pt x="225" y="550" on="1"/>
        <pt x="236" y="550" on="0"/>
        <pt x="250" y="569" on="0"/>
        <pt x="250" y="675" on="1"/>
        <pt x="250" y="781" on="0"/>
        <pt x="236" y="800" on="0"/>
      </contour>
      <contour>
        <pt x="1250" y="0" on="1"/>
        <pt x="1100" y="0" on="1"/>
        <pt x="750" y="300" on="1"/>
        <pt x="400" y="0" on="1"/>
        <pt x="250" y="0" on="1"/>
        <pt x="250" y="452" on="1"/>
        <pt x="238" y="450" on="0"/>
        <pt x="225" y="450" on="1"/>
        <pt x="167" y="450" on="0"/>
        <pt x="100" y="547" on="0"/>
        <pt x="100" y="675" on="1"/>
        <pt x="100" y="803" on="0"/>
        <pt x="167" y="900" on="0"/>
        <pt x="225" y="900" on="1"/>
        <pt x="283" y="900" on="0"/>
        <pt x="350" y="803" on="0"/>
        <pt x="350" y="675" on="1"/>
        <pt x="350" y="100" on="1"/>
        <pt x="750" y="450" on="1"/>
        <pt x="1150" y="100" on="1"/>
        <pt x="1150" y="1100" on="1"/>
        <pt x="1150" y="1400" on="0"/>
        <pt x="750" y="1400" on="1"/>
        <pt x="350" y="1400" on="0"/>
        <pt x="350" y="1100" on="1"/>
        <pt x="250" y="1100" on="1"/>
        <pt x="250" y="1700" on="1"/>
        <pt x="250" y="1800" on="0"/>
        <pt x="150" y="1800" on="1"/>
        <pt x="100" y="1800" on="1"/>
        <pt x="100" y="1900" on="1"/>
        <pt x="150" y="1900" on="1"/>
        <pt x="350" y="1900" on="0"/>
        <pt x="350" y="1700" on="1"/>
        <pt x="350" y="1378" on="1"/>
        <pt x="474" y="1500" on="0"/>
        <pt x="750" y="1500" on="1"/>
        <pt x="1250" y="1500" on="0"/>
        <pt x="1250" y="1100" on="1"/>
      </contour>
    </TTGlyph>
    <TTGlyph name="uni17B0" xMin="250" yMin="-550" xMax="1250" yMax="1500">
      <contour>
        <pt x="400" y="350" on="1"/>
        <pt x="379" y="350" on="0"/>
        <pt x="350" y="311" on="0"/>
        <pt x="350" y="225" on="1"/>
        <pt x="350" y="139" on="0"/>
        <pt x="379" y="100" on="0"/>
        <pt x="400" y="100" on="1"/>
        <pt x="421" y="100" on="0"/>
        <pt x="450" y="139" on="0"/>
        <pt x="450" y="225" on="1"/>
        <pt x="450" y="311" on="0"/>
        <pt x="421" y="350" on="0"/>
      </contour>
      <contour>
        <pt x="884" y="-253" on="1"/>
        <pt x="987" y="-350" on="0"/>
        <pt x="1048" y="-350" on="1"/>
        <pt x="1100" y="-350" on="0"/>
        <pt x="1150" y="-284" on="0"/>
        <pt x="1152" y="-117" on="1"/>
        <pt x="1064" y="-197" on="0"/>
      </contour>
      <contour>
        <pt x="836" y="-266" on="1"/>
        <pt x="646" y="-320" on="0"/>
        <pt x="550" y="-340" on="1"/>
        <pt x="550" y="-450" on="0"/>
        <pt x="660" y="-450" on="1"/>
        <pt x="793" y="-450" on="0"/>
      </contour>
      <contour>
        <pt x="1150" y="0" on="1"/>
        <pt x="1150" y="1150" on="1"/>
        <pt x="980" y="1355" on="1"/>
        <pt x="750" y="1170" on="1"/>
        <pt x="520" y="1355" on="1"/>
        <pt x="350" y="1150" on="1"/>
        <pt x="350" y="440" on="1"/>
        <pt x="373" y="450" on="0"/>
        <pt x="400" y="450" on="1"/>
        <pt x="463" y="450" on="0"/>
        <pt x="550" y="343" on="0"/>
        <pt x="550" y="225" on="1"/>
        <pt x="550" y="107" on="0"/>
        <pt x="463" y="0" on="0"/>
        <pt x="400" y="0" on="1"/>
        <pt x="337" y="0" on="0"/>
        <pt x="294" y="54" on="1"/>
        <pt x="260" y="95" on="0"/>
        <pt x="252" y="175" on="1"/>
        <pt x="250" y="175" on="1"/>
        <pt x="250" y="1190" on="1"/>
        <pt x="510" y="1500" on="1"/>
        <pt x="750" y="1300" on="1"/>
        <pt x="990" y="1500" on="1"/>
        <pt x="1250" y="1190" on="1"/>
        <pt x="1250" y="0" on="1"/>
        <pt x="1250" y="-260" on="0"/>
        <pt x="1154" y="-450" on="0"/>
        <pt x="1064" y="-450" on="1"/>
        <pt x="962" y="-450" on="0"/>
        <pt x="889" y="-352" on="1"/>
        <pt x="850" y="-550" on="0"/>
        <pt x="660" y="-550" on="1"/>
        <pt x="450" y="-550" on="0"/>
        <pt x="450" y="-340" on="1"/>
        <pt x="450" y="-270" on="0"/>
        <pt x="635" y="-235" on="0"/>
        <pt x="1079" y="-103" on="0"/>
      </contour>
    </TTGlyph>
    <TTGlyph name="uni17B1" xMin="250" yMin="0" xMax="1250" yMax="1900">
      <contour>
        <pt x="1150" y="750" on="0"/>
        <pt x="1150" y="1100" on="1"/>
        <pt x="1150" y="1400" on="0"/>
        <pt x="750" y="1400" on="1"/>
        <pt x="350" y="1400" on="0"/>
        <pt x="350" y="1100" on="1"/>
        <pt x="350" y="929" on="0"/>
        <pt x="444" y="929" on="1"/>
        <pt x="489" y="929" on="0"/>
        <pt x="560" y="950" on="1"/>
        <pt x="560" y="850" on="1"/>
        <pt x="521" y="821" on="0"/>
        <pt x="458" y="821" on="1"/>
        <pt x="250" y="821" on="0"/>
        <pt x="250" y="1100" on="1"/>
        <pt x="250" y="1500" on="0"/>
        <pt x="750" y="1500" on="1"/>
        <pt x="1250" y="1500" on="0"/>
        <pt x="1250" y="1100" on="1"/>
        <pt x="1250" y="680" on="0"/>
        <pt x="350" y="500" on="1"/>
        <pt x="350" y="400" on="1"/>
        <pt x="350" y="100" on="0"/>
        <pt x="530" y="100" on="1"/>
        <pt x="686" y="100" on="0"/>
        <pt x="1150" y="400" on="1"/>
        <pt x="1150" y="600" on="1"/>
        <pt x="1250" y="600" on="1"/>
        <pt x="1250" y="0" on="1"/>
        <pt x="1150" y="0" on="1"/>
        <pt x="1150" y="300" on="1"/>
        <pt x="736" y="0" on="0"/>
        <pt x="530" y="0" on="1"/>
        <pt x="250" y="0" on="0"/>
        <pt x="250" y="400" on="1"/>
        <pt x="250" y="560" on="1"/>
      </contour>
      <contour>
        <pt x="350" y="1674" on="1"/>
        <pt x="350" y="1608" on="0"/>
        <pt x="424" y="1608" on="1"/>
        <pt x="469" y="1608" on="0"/>
        <pt x="500" y="1629" on="1"/>
        <pt x="560" y="1609" on="0"/>
        <pt x="560" y="1559" on="1"/>
        <pt x="560" y="1500" on="0"/>
        <pt x="448" y="1500" on="1"/>
        <pt x="250" y="1500" on="0"/>
        <pt x="250" y="1685" on="1"/>
        <pt x="250" y="1790" on="0"/>
        <pt x="430" y="1900" on="0"/>
        <pt x="590" y="1900" on="1"/>
        <pt x="790" y="1900" on="0"/>
        <pt x="1250" y="1590" on="1"/>
        <pt x="1200" y="1500" on="1"/>
        <pt x="750" y="1800" on="0"/>
        <pt x="585" y="1800" on="1"/>
        <pt x="460" y="1800" on="0"/>
        <pt x="350" y="1740" on="0"/>
      </contour>
    </TTGlyph>
    <TTGlyph name="uni17B2" xMin="250" yMin="0" xMax="1255" yMax="1500">
      <contour>
        <pt x="1250" y="405" on="1"/>
        <pt x="1250" y="0" on="0"/>
        <pt x="750" y="0" on="1"/>
        <pt x="250" y="0" on="0"/>
        <pt x="250" y="500" on="1"/>
        <pt x="250" y="1000" on="1"/>
        <pt x="250" y="1500" on="0"/>
        <pt x="750" y="1500" on="1"/>
        <pt x="1250" y="1500" on="0"/>
        <pt x="1250" y="1200" on="1"/>
        <pt x="1150" y="1200" on="1"/>
        <pt x="1150" y="1400" on="0"/>
        <pt x="750" y="1400" on="1"/>
        <pt x="350" y="1400" on="0"/>
        <pt x="350" y="1000" on="1"/>
        <pt x="350" y="500" on="1"/>
        <pt x="350" y="100" on="0"/>
        <pt x="750" y="100" on="1"/>
        <pt x="1150" y="100" on="0"/>
        <pt x="1150" y="405" on="1"/>
        <pt x="1155" y="405" on="1"/>
        <pt x="1155" y="605" on="0"/>
        <pt x="955" y="605" on="1"/>
        <pt x="865" y="605" on="1"/>
        <pt x="865" y="705" on="1"/>
        <pt x="955" y="705" on="1"/>
        <pt x="1155" y="705" on="0"/>
        <pt x="1155" y="855" on="1"/>
        <pt x="1155" y="1005" on="0"/>
        <pt x="955" y="1005" on="1"/>
        <pt x="875" y="1005" on="1"/>
        <pt x="875" y="1105" on="1"/>
        <pt x="955" y="1105" on="1"/>
        <pt x="1255" y="1105" on="0"/>
        <pt x="1255" y="855" on="1"/>
        <pt x="1255" y="712" on="0"/>
        <pt x="1156" y="650" on="1"/>
        <pt x="1255" y="577" on="0"/>
        <pt x="1255" y="405" on="1"/>
      </contour>
    </TTGlyph>
    <TTGlyph name="uni17B3" xMin="250" yMin="0" xMax="1400" yMax="2100">
      <contour>
        <pt x="1150" y="750" on="0"/>
        <pt x="1150" y="1100" on="1"/>
        <pt x="1150" y="1400" on="0"/>
        <pt x="750" y="1400" on="1"/>
        <pt x="350" y="1400" on="0"/>
        <pt x="350" y="1100" on="1"/>
        <pt x="350" y="929" on="0"/>
        <pt x="444" y="929" on="1"/>
        <pt x="489" y="929" on="0"/>
        <pt x="560" y="950" on="1"/>
        <pt x="560" y="850" on="1"/>
        <pt x="521" y="821" on="0"/>
        <pt x="458" y="821" on="1"/>
        <pt x="250" y="821" on="0"/>
        <pt x="250" y="1100" on="1"/>
        <pt x="250" y="1500" on="0"/>
        <pt x="750" y="1500" on="1"/>
        <pt x="1250" y="1500" on="0"/>
        <pt x="1250" y="1100" on="1"/>
        <pt x="1250" y="680" on="0"/>
        <pt x="350" y="500" on="1"/>
        <pt x="350" y="400" on="1"/>
        <pt x="350" y="100" on="0"/>
        <pt x="530" y="100" on="1"/>
        <pt x="686" y="100" on="0"/>
        <pt x="1150" y="400" on="1"/>
        <pt x="1150" y="600" on="1"/>
        <pt x="1250" y="600" on="1"/>
        <pt x="1250" y="0" on="1"/>
        <pt x="1150" y="0" on="1"/>
        <pt x="1150" y="300" on="1"/>
        <pt x="736" y="0" on="0"/>
        <pt x="530" y="0" on="1"/>
        <pt x="250" y="0" on="0"/>
        <pt x="250" y="400" on="1"/>
        <pt x="250" y="560" on="1"/>
      </contour>
      <contour>
        <pt x="1150" y="1533" on="1"/>
        <pt x="741" y="1800" on="0"/>
        <pt x="585" y="1800" on="1"/>
        <pt x="460" y="1800" on="0"/>
        <pt x="350" y="1740" on="0"/>
        <pt x="350" y="1674" on="1"/>
        <pt x="350" y="1608" on="0"/>
        <pt x="424" y="1608" on="1"/>
        <pt x="469" y="1608" on="0"/>
        <pt x="500" y="1629" on="1"/>
        <pt x="560" y="1609" on="0"/>
        <pt x="560" y="1559" on="1"/>
        <pt x="560" y="1500" on="0"/>
        <pt x="448" y="1500" on="1"/>
        <pt x="250" y="1500" on="0"/>
        <pt x="250" y="1685" on="1"/>
        <pt x="250" y="1790" on="0"/>
        <pt x="430" y="1900" on="0"/>
        <pt x="590" y="1900" on="1"/>
        <pt x="768" y="1900" on="0"/>
        <pt x="1150" y="1656" on="1"/>
        <pt x="1150" y="1900" on="1"/>
        <pt x="1150" y="2100" on="0"/>
        <pt x="1350" y="2100" on="1"/>
        <pt x="1400" y="2100" on="1"/>
        <pt x="1400" y="2000" on="1"/>
        <pt x="1350" y="2000" on="1"/>
        <pt x="1250" y="2000" on="0"/>
        <pt x="1250" y="1900" on="1"/>
        <pt x="1250" y="1590" on="1"/>
      </contour>
    </TTGlyph>
    <TTGlyph name="uni17B6" xMin="-250" yMin="0" xMax="350" yMax="1500">
      <contour>
        <pt x="-250" y="1500" on="1"/>
        <pt x="-50" y="1500" on="1"/>
        <pt x="350" y="1500" on="0"/>
        <pt x="350" y="1100" on="1"/>
        <pt x="350" y="0" on="1"/>
        <pt x="250" y="0" on="1"/>
        <pt x="250" y="1100" on="1"/>
        <pt x="250" y="1400" on="0"/>
        <pt x="-50" y="1400" on="1"/>
        <pt x="-250" y="1400" on="1"/>
      </contour>
    </TTGlyph>
    <TTGlyph name="uni17B7" xMin="-1150" yMin="1800" xMax="-250" yMax="2250">
      <contour>
        <pt x="-1150" y="2000" on="1"/>
        <pt x="-1150" y="2250" on="0"/>
        <pt x="-800" y="2250" on="1"/>
        <pt x="-600" y="2250" on="0"/>
        <pt x="-250" y="1950" on="0"/>
        <pt x="-250" y="1900" on="1"/>
        <pt x="-250" y="1800" on="1"/>
        <pt x="-900" y="1800" on="1"/>
        <pt x="-1150" y="1800" on="0"/>
      </contour>
      <contour>
        <pt x="-1050" y="1900" on="0"/>
        <pt x="-900" y="1900" on="1"/>
        <pt x="-350" y="1900" on="1"/>
        <pt x="-599" y="2150" on="0"/>
        <pt x="-800" y="2150" on="1"/>
        <pt x="-1050" y="2150" on="0"/>
        <pt x="-1050" y="2000" on="1"/>
      </contour>
    </TTGlyph>
    <TTGlyph name="uni17B7.a" xMin="-1150" yMin="1950" xMax="-250" yMax="2400">
      <contour>
        <pt x="-1150" y="2150" on="1"/>
        <pt x="-1150" y="2400" on="0"/>
        <pt x="-800" y="2400" on="1"/>
        <pt x="-600" y="2400" on="0"/>
        <pt x="-250" y="2100" on="0"/>
        <pt x="-250" y="2050" on="1"/>
        <pt x="-250" y="1950" on="1"/>
        <pt x="-900" y="1950" on="1"/>
        <pt x="-1150" y="1950" on="0"/>
      </contour>
      <contour>
        <pt x="-1050" y="2050" on="0"/>
        <pt x="-900" y="2050" on="1"/>
        <pt x="-350" y="2050" on="1"/>
        <pt x="-599" y="2300" on="0"/>
        <pt x="-800" y="2300" on="1"/>
        <pt x="-1050" y="2300" on="0"/>
        <pt x="-1050" y="2150" on="1"/>
      </contour>
    </TTGlyph>
    <TTGlyph name="uni17B7.r" xMin="-900" yMin="1800" xMax="0" yMax="2250">
      <contour>
        <pt x="-900" y="2000" on="1"/>
        <pt x="-900" y="2250" on="0"/>
        <pt x="-550" y="2250" on="1"/>
        <pt x="-350" y="2250" on="0"/>
        <pt x="0" y="1950" on="0"/>
        <pt x="0" y="1900" on="1"/>
        <pt x="0" y="1800" on="1"/>
        <pt x="-650" y="1800" on="1"/>
        <pt x="-900" y="1800" on="0"/>
      </contour>
      <contour>
        <pt x="-800" y="1900" on="0"/>
        <pt x="-650" y="1900" on="1"/>
        <pt x="-100" y="1900" on="1"/>
        <pt x="-349" y="2150" on="0"/>
        <pt x="-550" y="2150" on="1"/>
        <pt x="-800" y="2150" on="0"/>
        <pt x="-800" y="2000" on="1"/>
      </contour>
    </TTGlyph>
    <TTGlyph name="uni17B717CD" xMin="-1150" yMin="1800" xMax="0" yMax="2368">
      <contour>
        <pt x="-900" y="1900" on="1"/>
        <pt x="-350" y="1900" on="1"/>
        <pt x="-599" y="2150" on="0"/>
        <pt x="-800" y="2150" on="1"/>
        <pt x="-1050" y="2150" on="0"/>
        <pt x="-1050" y="2000" on="1"/>
        <pt x="-1050" y="1900" on="0"/>
      </contour>
      <contour>
        <pt x="-274" y="1950" on="1"/>
        <pt x="-250" y="1918" on="0"/>
        <pt x="-250" y="1900" on="1"/>
        <pt x="-250" y="1800" on="1"/>
        <pt x="-900" y="1800" on="1"/>
        <pt x="-1150" y="1800" on="0"/>
        <pt x="-1150" y="2000" on="1"/>
        <pt x="-1150" y="2250" on="0"/>
        <pt x="-800" y="2250" on="1"/>
        <pt x="-628" y="2250" on="0"/>
        <pt x="-475" y="2139" on="1"/>
        <pt x="-470" y="2300" on="0"/>
        <pt x="-295" y="2300" on="1"/>
        <pt x="-230" y="2300" on="0"/>
        <pt x="-175" y="2265" on="1"/>
        <pt x="-96" y="2271" on="0"/>
        <pt x="-67" y="2368" on="1"/>
        <pt x="0" y="2310" on="1"/>
        <pt x="-50" y="2190" on="0"/>
        <pt x="-190" y="2160" on="1"/>
        <pt x="-227" y="2220" on="0"/>
        <pt x="-285" y="2220" on="1"/>
        <pt x="-375" y="2220" on="0"/>
        <pt x="-375" y="2130" on="1"/>
        <pt x="-375" y="2050" on="0"/>
        <pt x="-295" y="2050" on="1"/>
        <pt x="-225" y="2050" on="0"/>
        <pt x="-225" y="2070" on="1"/>
        <pt x="-245" y="2090" on="1"/>
        <pt x="-210" y="2150" on="1"/>
        <pt x="-125" y="2091" on="0"/>
        <pt x="-125" y="2041" on="1"/>
        <pt x="-125" y="1956" on="0"/>
      </contour>
    </TTGlyph>
    <TTGlyph name="uni17B717CD.r" xMin="-900" yMin="1800" xMax="250" yMax="2368">
      <contour>
        <pt x="-650" y="1900" on="1"/>
        <pt x="-100" y="1900" on="1"/>
        <pt x="-349" y="2150" on="0"/>
        <pt x="-550" y="2150" on="1"/>
        <pt x="-800" y="2150" on="0"/>
        <pt x="-800" y="2000" on="1"/>
        <pt x="-800" y="1900" on="0"/>
      </contour>
      <contour>
        <pt x="-24" y="1950" on="1"/>
        <pt x="0" y="1918" on="0"/>
        <pt x="0" y="1900" on="1"/>
        <pt x="0" y="1800" on="1"/>
        <pt x="-650" y="1800" on="1"/>
        <pt x="-900" y="1800" on="0"/>
        <pt x="-900" y="2000" on="1"/>
        <pt x="-900" y="2250" on="0"/>
        <pt x="-550" y="2250" on="1"/>
        <pt x="-378" y="2250" on="0"/>
        <pt x="-225" y="2139" on="1"/>
        <pt x="-220" y="2300" on="0"/>
        <pt x="-45" y="2300" on="1"/>
        <pt x="20" y="2300" on="0"/>
        <pt x="75" y="2265" on="1"/>
        <pt x="154" y="2271" on="0"/>
        <pt x="183" y="2368" on="1"/>
        <pt x="250" y="2310" on="1"/>
        <pt x="200" y="2190" on="0"/>
        <pt x="60" y="2160" on="1"/>
        <pt x="23" y="2220" on="0"/>
        <pt x="-35" y="2220" on="1"/>
        <pt x="-125" y="2220" on="0"/>
        <pt x="-125" y="2130" on="1"/>
        <pt x="-125" y="2050" on="0"/>
        <pt x="-45" y="2050" on="1"/>
        <pt x="25" y="2050" on="0"/>
        <pt x="25" y="2070" on="1"/>
        <pt x="5" y="2090" on="1"/>
        <pt x="40" y="2150" on="1"/>
        <pt x="125" y="2091" on="0"/>
        <pt x="125" y="2041" on="1"/>
        <pt x="125" y="1956" on="0"/>
      </contour>
    </TTGlyph>
</ttFont>
